<svg width="150" height="112" viewBox="0 0 150 112" fill="none" xmlns="http://www.w3.org/2000/svg">
<path d="M75.0001 111.603C107.125 111.603 133.167 110.083 133.167 108.207C133.167 106.331 107.125 104.811 75.0001 104.811C42.8754 104.811 16.8331 106.331 16.8331 108.207C16.8331 110.083 42.8754 111.603 75.0001 111.603Z" fill="#F5F5F5"/>
<path d="M87.7558 100.017C87.7288 95.7238 86.4538 93.0898 85.3858 91.6378C84.7803 90.7576 83.986 90.0238 83.0608 89.4898L83.1958 89.2078C83.2438 89.2318 88.0168 91.6078 88.0708 100.008L87.7558 100.017Z" fill="#F39712"/>
<path d="M88.9948 99.2578L88.6948 99.2308C89.9248 85.2988 80.5948 80.4028 80.5138 80.3548L80.6548 80.0758C80.7388 80.1238 90.2458 85.1158 88.9948 99.2578Z" fill="#F39712"/>
<path d="M90.0481 99.7768C89.7151 91.8418 90.5551 83.0218 90.5641 82.9318L90.8641 82.9618C90.8641 83.0518 90.0181 91.8508 90.3511 99.7618L90.0481 99.7768Z" fill="#F39712"/>
<path d="M90.6691 100.239C91.2121 96.8548 92.5411 94.9318 93.5581 93.9148C94.1442 93.2934 94.8617 92.8107 95.6581 92.5018L95.5861 92.2618C95.5441 92.2618 91.4911 93.5638 90.4231 100.2L90.6691 100.239Z" fill="#F39712"/>
<g opacity="0.3">
<path d="M87.7563 100.017C87.7293 95.7239 86.4543 93.0899 85.3863 91.6379C84.7808 90.7578 83.9865 90.0239 83.0613 89.4899L83.1963 89.2079C83.2443 89.2319 88.0173 91.6079 88.0713 100.008L87.7563 100.017Z" fill="white"/>
<path d="M88.9948 99.2578L88.6948 99.2308C89.9248 85.2988 80.5948 80.4028 80.5138 80.3548L80.6548 80.0758C80.7388 80.1238 90.2458 85.1158 88.9948 99.2578Z" fill="white"/>
<path d="M90.0481 99.7769C89.7151 91.8419 90.5551 83.0219 90.5641 82.9319L90.8641 82.9619C90.8641 83.0519 90.0181 91.8509 90.3511 99.7619L90.0481 99.7769Z" fill="white"/>
<path d="M90.6691 100.239C91.2121 96.855 92.5411 94.932 93.5581 93.915C94.1442 93.2935 94.8617 92.8108 95.6581 92.502L95.5861 92.262C95.5441 92.262 91.4911 93.564 90.4231 100.2L90.6691 100.239Z" fill="white"/>
</g>
<path d="M81.5521 80.6999C81.5521 80.6999 79.4791 75.4229 76.5001 79.3439C74.0821 82.5269 76.5001 86.0129 76.5001 86.0129C76.5001 86.0129 89.4691 86.3399 87.1501 81.3899C85.7131 78.3299 81.5521 80.6999 81.5521 80.6999Z" fill="#F39712"/>
<g opacity="0.5">
<path d="M81.1291 80.9399C81.1291 80.9399 77.3071 80.3399 77.2861 80.6399C77.2651 80.9399 80.6371 81.0749 80.3221 81.4919C80.0071 81.9089 76.7581 82.2689 76.7221 82.6679C76.6861 83.0669 79.7671 82.0949 79.6291 82.4489C79.4911 82.8029 77.4331 84.4559 77.4001 84.8939C77.3671 85.3319 79.3321 83.0279 79.5661 83.2889C79.8001 83.5499 79.9201 85.6379 80.1181 85.1579C80.3161 84.6779 80.0761 82.5719 80.5501 82.1579C81.0241 81.7439 83.8051 84.3749 84.4351 84.0209C85.0651 83.6669 81.3511 82.1999 81.1291 80.9399Z" fill="white"/>
<path d="M83.127 81.1498C83.127 81.1498 86.307 81.1918 86.403 82.0498C86.499 82.9078 85.8 81.9988 83.127 81.1498Z" fill="white"/>
</g>
<path d="M82.6799 99.7529L84.1559 107.772C84.231 108.181 84.4471 108.551 84.7666 108.817C85.0861 109.084 85.4889 109.23 85.9049 109.23H91.6499C92.0659 109.23 92.4687 109.084 92.7883 108.817C93.1078 108.551 93.3239 108.181 93.3989 107.772L94.8779 99.7529C94.9052 99.6038 94.8993 99.4505 94.8608 99.3039C94.8223 99.1573 94.7521 99.0209 94.6551 98.9045C94.558 98.788 94.4366 98.6943 94.2994 98.6299C94.1622 98.5655 94.0125 98.532 93.8609 98.5319H83.6999C83.5479 98.5311 83.3976 98.5639 83.2598 98.6279C83.1219 98.6919 82.9999 98.7856 82.9025 98.9022C82.805 99.0189 82.7345 99.1556 82.6961 99.3027C82.6576 99.4497 82.6521 99.6035 82.6799 99.7529Z" fill="#F39712"/>
<path d="M81.7832 89.9518C81.7832 89.9518 78.2192 86.9308 77.5832 90.9388C77.0702 94.1908 80.1752 95.7808 80.1752 95.7808C80.1752 95.7808 89.7182 90.9808 86.1032 88.2808C83.8832 86.6188 81.7832 89.9518 81.7832 89.9518Z" fill="#F39712"/>
<path opacity="0.2" d="M81.7832 89.9518C81.7832 89.9518 78.2192 86.9308 77.5832 90.9388C77.0702 94.1908 80.1752 95.7808 80.1752 95.7808C80.1752 95.7808 89.7182 90.9808 86.1032 88.2808C83.8832 86.6188 81.7832 89.9518 81.7832 89.9518Z" fill="black"/>
<g opacity="0.5">
<path d="M81.5731 90.2999C81.5731 90.2999 78.5731 91.3589 78.6691 91.5839C78.7651 91.8089 81.2701 90.5939 81.2041 91.0199C81.1381 91.4459 78.9211 92.9729 79.0531 93.2759C79.1851 93.5789 81.0391 91.6739 81.0781 91.9829C81.1171 92.2919 80.2651 94.2959 80.4121 94.6289C80.5591 94.9619 81.0871 92.5289 81.3571 92.6189C81.6271 92.7089 82.5331 94.1849 82.4881 93.7589C82.4431 93.3329 81.4471 91.8989 81.6331 91.4159C81.8191 90.9329 84.8611 91.7579 85.1791 91.2539C85.4971 90.7499 82.2211 91.1189 81.5731 90.2999Z" fill="white"/>
<path d="M83.1 89.6731C83.1 89.6731 85.425 88.4731 85.827 89.0461C86.229 89.6191 85.38 89.2471 83.1 89.6731Z" fill="white"/>
</g>
<path d="M94.0439 81.7798C94.0439 81.7798 98.1809 78.2698 98.9189 82.9288C99.5189 86.7088 95.9039 88.5538 95.9039 88.5538C95.9039 88.5538 84.8039 82.9588 89.0039 79.8298C91.6019 77.9068 94.0439 81.7798 94.0439 81.7798Z" fill="#F39712"/>
<path opacity="0.3" d="M94.0439 81.7798C94.0439 81.7798 98.1809 78.2698 98.9189 82.9288C99.5189 86.7088 95.9039 88.5538 95.9039 88.5538C95.9039 88.5538 84.8039 82.9588 89.0039 79.8298C91.6019 77.9068 94.0439 81.7798 94.0439 81.7798Z" fill="black"/>
<g opacity="0.5">
<path d="M94.2869 82.1997C94.2869 82.1997 97.7789 83.4327 97.6619 83.6997C97.5449 83.9667 94.6379 82.5477 94.7129 83.0427C94.7879 83.5377 97.3679 85.3107 97.2149 85.6647C97.0619 86.0187 94.9079 83.8017 94.8629 84.1647C94.8179 84.5277 95.8049 86.8647 95.6339 87.2397C95.4629 87.6147 94.8509 84.7887 94.5359 84.9027C94.2209 85.0167 93.1709 86.7237 93.2219 86.2287C93.2729 85.7337 94.4219 84.0657 94.2149 83.5047C94.0079 82.9437 90.4649 83.9037 90.0929 83.3157C89.7209 82.7277 93.5309 83.1357 94.2869 82.1997Z" fill="white"/>
<path d="M92.5052 81.4558C92.5052 81.4558 89.8052 80.0518 89.3342 80.7298C88.8632 81.4078 89.8622 80.9608 92.5052 81.4558Z" fill="white"/>
</g>
<path d="M96.4712 92.3997C96.4712 92.3997 99.2612 89.5377 100.125 92.9007C100.824 95.6307 98.3042 97.2357 98.3042 97.2357C98.3042 97.2357 89.7902 93.8997 92.6522 91.3077C94.4132 89.7177 96.4712 92.3997 96.4712 92.3997Z" fill="#F39712"/>
<path opacity="0.4" d="M96.4712 92.3997C96.4712 92.3997 99.2612 89.5377 100.125 92.9007C100.824 95.6307 98.3042 97.2357 98.3042 97.2357C98.3042 97.2357 89.7902 93.8997 92.6522 91.3077C94.4132 89.7177 96.4712 92.3997 96.4712 92.3997Z" fill="black"/>
<g opacity="0.5">
<path d="M96.6781 92.67C96.6781 92.67 99.3211 93.33 99.2551 93.531C99.1891 93.732 96.9601 92.895 97.0471 93.255C97.1341 93.615 99.1471 94.734 99.0631 95.001C98.9791 95.268 97.2421 93.801 97.2361 94.062C97.2301 94.323 98.1121 95.97 98.0131 96.264C97.9141 96.558 97.2691 94.521 97.0471 94.626C96.8251 94.731 96.1711 96.057 96.1741 95.691C96.1771 95.325 96.9121 94.02 96.7171 93.624C96.5221 93.228 93.9931 94.176 93.6811 93.771C93.3691 93.366 96.1891 93.42 96.6781 92.67Z" fill="white"/>
<path d="M95.3191 92.2588C95.3191 92.2588 93.2431 91.4158 92.9461 91.9588C92.6491 92.5018 93.3511 92.0788 95.3191 92.2588Z" fill="white"/>
</g>
<path d="M114.441 61.6141H93.0479C92.8032 61.6185 92.5603 61.5708 92.3355 61.474C92.1107 61.3772 91.9091 61.2336 91.7442 61.0528C91.5792 60.872 91.4547 60.658 91.379 60.4253C91.3032 60.1926 91.278 59.9463 91.3049 59.7031L92.4569 46.5271C92.5096 46.0091 92.7502 45.5283 93.1333 45.1757C93.5163 44.823 94.0153 44.6229 94.5359 44.6131H115.929C116.174 44.6086 116.417 44.6564 116.642 44.7534C116.868 44.8503 117.069 44.9941 117.235 45.1752C117.4 45.3564 117.525 45.5706 117.601 45.8037C117.676 46.0368 117.702 46.2834 117.675 46.5271L116.52 59.7001C116.468 60.2183 116.227 60.6995 115.844 61.0522C115.461 61.405 114.962 61.6049 114.441 61.6141Z" fill="#263238"/>
<path d="M101.835 52.0499C101.739 52.9951 101.3 53.8723 100.6 54.5153C99.9009 55.1583 98.99 55.5225 98.0401 55.5389C97.5933 55.5472 97.1498 55.4601 96.7393 55.2834C96.3287 55.1067 95.9606 54.8446 95.6594 54.5144C95.3582 54.1843 95.1308 53.7937 94.9925 53.3687C94.8541 52.9437 94.808 52.4941 94.8571 52.0499C94.9576 51.1068 95.3983 50.2325 96.0969 49.5909C96.7954 48.9492 97.7038 48.5841 98.6521 48.5639L98.8081 46.7789C97.3733 46.8045 95.9976 47.355 94.9412 48.3263C93.8847 49.2976 93.2209 50.6223 93.0751 52.0499C93.0014 52.7204 93.0712 53.3988 93.2798 54.0402C93.4884 54.6816 93.8311 55.2712 94.285 55.7701C94.739 56.2689 95.2939 56.6654 95.9129 56.9333C96.5318 57.2012 97.2007 57.3344 97.8751 57.3239C99.3104 57.2983 100.686 56.7473 101.743 55.7755C102.799 54.8036 103.463 53.4781 103.608 52.0499H101.835Z" fill="#F39712"/>
<path d="M104.244 51.279C104.318 50.6085 104.248 49.9301 104.04 49.2887C103.831 48.6473 103.488 48.0576 103.034 47.5588C102.58 47.06 102.026 46.6635 101.407 46.3956C100.788 46.1277 100.119 45.9945 99.4443 46.005L99.2883 47.805C99.735 47.7972 100.178 47.8846 100.589 48.0615C100.999 48.2383 101.367 48.5005 101.668 48.8305C101.969 49.1606 102.196 49.551 102.335 49.9757C102.473 50.4005 102.52 50.8498 102.471 51.294L104.244 51.279Z" fill="#F39712"/>
<path opacity="0.7" d="M104.244 51.279C104.318 50.6085 104.248 49.9301 104.04 49.2887C103.831 48.6473 103.488 48.0576 103.034 47.5588C102.58 47.06 102.026 46.6635 101.407 46.3956C100.788 46.1277 100.119 45.9945 99.4443 46.005L99.2883 47.805C99.735 47.7972 100.178 47.8846 100.589 48.0615C100.999 48.2383 101.367 48.5005 101.668 48.8305C101.969 49.1606 102.196 49.551 102.335 49.9757C102.473 50.4005 102.52 50.8498 102.471 51.294L104.244 51.279Z" fill="white"/>
<path d="M99.876 52.05C99.8321 52.4804 99.6321 52.8798 99.3137 53.1728C98.9953 53.4657 98.5806 53.6319 98.148 53.64C97.9446 53.6433 97.7428 53.6033 97.556 53.5226C97.3692 53.442 97.2017 53.3224 97.0646 53.1721C96.9276 53.0217 96.8241 52.8438 96.761 52.6504C96.698 52.4569 96.6769 52.2522 96.699 52.05C96.743 51.6198 96.9432 51.2207 97.2616 50.9283C97.5801 50.6358 97.9947 50.4703 98.427 50.463L98.496 49.653C97.8432 49.665 97.2174 49.9159 96.737 50.3581C96.2566 50.8004 95.955 51.4033 95.889 52.053C95.8553 52.3583 95.8871 52.6673 95.9821 52.9594C96.0771 53.2516 96.2333 53.5201 96.4402 53.7472C96.6471 53.9742 96.9 54.1546 97.1821 54.2763C97.4641 54.398 97.7689 54.4582 98.076 54.453C98.7294 54.4416 99.3559 54.1911 99.8369 53.7487C100.318 53.3064 100.62 52.7031 100.686 52.053L99.876 52.05Z" fill="#F39712"/>
<path opacity="0.7" d="M99.876 52.05C99.8321 52.4804 99.6321 52.8798 99.3137 53.1728C98.9953 53.4657 98.5806 53.6319 98.148 53.64C97.9446 53.6433 97.7428 53.6033 97.556 53.5226C97.3692 53.442 97.2017 53.3224 97.0646 53.1721C96.9276 53.0217 96.8241 52.8438 96.761 52.6504C96.698 52.4569 96.6769 52.2522 96.699 52.05C96.743 51.6198 96.9432 51.2207 97.2616 50.9283C97.5801 50.6358 97.9947 50.4703 98.427 50.463L98.496 49.653C97.8432 49.665 97.2174 49.9159 96.737 50.3581C96.2566 50.8004 95.955 51.4033 95.889 52.053C95.8553 52.3583 95.8871 52.6673 95.9821 52.9594C96.0771 53.2516 96.2333 53.5201 96.4402 53.7472C96.6471 53.9742 96.9 54.1546 97.1821 54.2763C97.4641 54.398 97.7689 54.4582 98.076 54.453C98.7294 54.4416 99.3559 54.1911 99.8369 53.7487C100.318 53.3064 100.62 52.7031 100.686 52.053L99.876 52.05Z" fill="white"/>
<path d="M100.971 51.6988C101.005 51.3932 100.973 51.084 100.878 50.7916C100.782 50.4993 100.626 50.2306 100.419 50.0035C100.211 49.7764 99.9582 49.5961 99.6757 49.4746C99.3933 49.353 99.0882 49.2931 98.7808 49.2988L98.6998 50.0998C98.903 50.0965 99.1045 50.1365 99.2911 50.217C99.4777 50.2975 99.645 50.4167 99.782 50.5667C99.919 50.7168 100.023 50.8943 100.086 51.0874C100.149 51.2805 100.171 51.4848 100.149 51.6868L100.971 51.6988Z" fill="#F39712"/>
<path d="M111.255 46.779L111.099 48.564C111.545 48.5558 111.989 48.6429 112.399 48.8193C112.809 48.9958 113.177 49.2577 113.478 49.5875C113.779 49.9174 114.007 50.3076 114.145 50.7322C114.284 51.1568 114.33 51.606 114.282 52.05C114.186 52.9947 113.747 53.8715 113.048 54.5144C112.349 55.1573 111.439 55.5219 110.49 55.539C110.043 55.5477 109.599 55.461 109.188 55.2845C108.778 55.108 108.409 54.8458 108.108 54.5155C107.807 54.1853 107.579 53.7945 107.441 53.3693C107.303 52.9441 107.257 52.4943 107.307 52.05C107.397 51.1028 107.838 50.2235 108.543 49.584L107.394 48.324C106.328 49.2899 105.661 50.6184 105.522 52.05C105.448 52.7204 105.518 53.3989 105.726 54.0403C105.935 54.6816 106.278 55.2713 106.732 55.7701C107.186 56.2689 107.741 56.6654 108.36 56.9334C108.978 57.2013 109.647 57.3344 110.322 57.324C111.757 57.2977 113.133 56.7465 114.189 55.7748C115.245 54.803 115.909 53.4779 116.055 52.05C116.128 51.3798 116.058 50.7017 115.849 50.0607C115.64 49.4197 115.298 48.8304 114.844 48.3319C114.39 47.8334 113.835 47.4372 113.216 47.1695C112.597 46.9017 111.929 46.7686 111.255 46.779Z" fill="#F39712"/>
<path opacity="0.7" d="M111.255 46.779L111.099 48.564C111.545 48.5558 111.989 48.6429 112.399 48.8193C112.809 48.9958 113.177 49.2577 113.478 49.5875C113.779 49.9174 114.007 50.3076 114.145 50.7322C114.284 51.1568 114.33 51.606 114.282 52.05C114.186 52.9947 113.747 53.8715 113.048 54.5144C112.349 55.1573 111.439 55.5219 110.49 55.539C110.043 55.5477 109.599 55.461 109.188 55.2845C108.778 55.108 108.409 54.8458 108.108 54.5155C107.807 54.1853 107.579 53.7945 107.441 53.3693C107.303 52.9441 107.257 52.4943 107.307 52.05C107.397 51.1028 107.838 50.2235 108.543 49.584L107.394 48.324C106.328 49.2899 105.661 50.6184 105.522 52.05C105.448 52.7204 105.518 53.3989 105.726 54.0403C105.935 54.6816 106.278 55.2713 106.732 55.7701C107.186 56.2689 107.741 56.6654 108.36 56.9334C108.978 57.2013 109.647 57.3344 110.322 57.324C111.757 57.2977 113.133 56.7465 114.189 55.7748C115.245 54.803 115.909 53.4779 116.055 52.05C116.128 51.3798 116.058 50.7017 115.849 50.0607C115.64 49.4197 115.298 48.8304 114.844 48.3319C114.39 47.8334 113.835 47.4372 113.216 47.1695C112.597 46.9017 111.929 46.7686 111.255 46.779Z" fill="white"/>
<path d="M107.049 47.346L108.201 48.609C108.894 47.959 109.807 47.5938 110.757 47.586L110.913 45.804C109.477 45.816 108.098 46.3663 107.049 47.346Z" fill="#F39712"/>
<path opacity="0.3" d="M107.049 47.346L108.201 48.609C108.894 47.959 109.807 47.5938 110.757 47.586L110.913 45.804C109.477 45.816 108.098 46.3663 107.049 47.346Z" fill="black"/>
<path d="M111.018 49.5001L110.943 50.3521C111.156 50.3477 111.369 50.3891 111.565 50.4735C111.761 50.5578 111.938 50.6831 112.082 50.8411C112.226 50.999 112.334 51.1859 112.4 51.3893C112.466 51.5926 112.488 51.8077 112.464 52.0201C112.418 52.4692 112.21 52.8861 111.878 53.1926C111.547 53.4992 111.115 53.6743 110.664 53.6851C110.45 53.6894 110.238 53.6481 110.042 53.5639C109.846 53.4797 109.67 53.3547 109.526 53.1971C109.382 53.0395 109.274 52.8529 109.207 52.65C109.141 52.447 109.119 52.2323 109.143 52.0201C109.188 51.5657 109.402 51.1448 109.743 50.8411L109.194 50.2411C108.682 50.7022 108.361 51.3377 108.294 52.0231C108.258 52.3437 108.292 52.6682 108.392 52.9749C108.491 53.2816 108.656 53.5635 108.873 53.8017C109.091 54.0399 109.356 54.229 109.653 54.3563C109.949 54.4837 110.269 54.5463 110.592 54.5401C111.277 54.5282 111.934 54.2655 112.439 53.8017C112.944 53.3378 113.261 52.705 113.331 52.0231C113.367 51.7008 113.334 51.3746 113.233 51.0663C113.132 50.758 112.967 50.4748 112.748 50.2357C112.529 49.9967 112.261 49.8074 111.963 49.6805C111.664 49.5536 111.342 49.4921 111.018 49.5001Z" fill="#F39712"/>
<path d="M109.008 49.7581L109.557 50.3581C109.89 50.0487 110.326 49.8744 110.781 49.8691L110.853 49.0171C110.167 49.0246 109.509 49.289 109.008 49.7581Z" fill="#F39712"/>
<path opacity="0.3" d="M109.008 49.7581L109.557 50.3581C109.89 50.0487 110.326 49.8744 110.781 49.8691L110.853 49.0171C110.167 49.0246 109.509 49.289 109.008 49.7581Z" fill="black"/>
<path d="M95.4544 59.631C95.3825 59.6323 95.3112 59.6182 95.2451 59.5898C95.1791 59.5614 95.1198 59.5193 95.0713 59.4662C95.0228 59.4132 94.9861 59.3504 94.9637 59.2821C94.9413 59.2138 94.9337 59.1415 94.9414 59.07C94.9565 58.9197 95.0257 58.78 95.136 58.6768C95.2464 58.5737 95.3904 58.514 95.5414 58.509C95.6132 58.5077 95.6846 58.5218 95.7506 58.5502C95.8167 58.5786 95.8759 58.6207 95.9244 58.6738C95.9729 58.7268 96.0096 58.7896 96.032 58.8579C96.0544 58.9262 96.062 58.9985 96.0544 59.07C96.0386 59.22 95.9692 59.3594 95.859 59.4624C95.7488 59.5655 95.6051 59.6253 95.4544 59.631Z" fill="white"/>
<path d="M101.208 59.355H97.0077C96.971 59.3561 96.9345 59.3493 96.9007 59.335C96.8669 59.3208 96.8366 59.2994 96.8118 59.2723C96.787 59.2453 96.7684 59.2132 96.7571 59.1783C96.7459 59.1433 96.7423 59.1064 96.7467 59.07C96.7467 58.9904 96.7783 58.9141 96.8345 58.8578C96.8908 58.8016 96.9671 58.77 97.0467 58.77H101.247C101.285 58.7685 101.323 58.7755 101.358 58.7907C101.393 58.8058 101.424 58.8286 101.449 58.8574C101.474 58.8862 101.492 58.9202 101.503 58.957C101.513 58.9938 101.514 59.0324 101.508 59.07C101.504 59.1469 101.471 59.2194 101.415 59.2725C101.359 59.3255 101.285 59.3551 101.208 59.355Z" fill="white"/>
<path d="M100.053 60.4801H96.9151C96.8771 60.481 96.8394 60.4736 96.8046 60.4583C96.7699 60.443 96.7389 60.4202 96.714 60.3915C96.6891 60.3629 96.6708 60.329 96.6604 60.2925C96.6501 60.2559 96.6479 60.2176 96.6541 60.1801C96.6584 60.1019 96.6914 60.0281 96.7467 59.9727C96.8021 59.9174 96.8759 59.8844 96.9541 59.8801H100.095C100.133 59.8791 100.171 59.8866 100.206 59.9019C100.24 59.9172 100.271 59.94 100.296 59.9687C100.321 59.9973 100.339 60.0311 100.35 60.0677C100.36 60.1042 100.362 60.1426 100.356 60.1801C100.351 60.2585 100.317 60.3324 100.262 60.3877C100.206 60.443 100.132 60.4758 100.053 60.4801Z" fill="white"/>
<path d="M107.616 59.631C107.544 59.6327 107.472 59.619 107.406 59.5907C107.339 59.5625 107.28 59.5205 107.231 59.4674C107.182 59.4143 107.145 59.3513 107.123 59.2828C107.1 59.2143 107.092 59.1417 107.1 59.07C107.115 58.9197 107.184 58.78 107.295 58.6768C107.405 58.5737 107.549 58.514 107.7 58.509C107.772 58.5077 107.843 58.5218 107.909 58.5502C107.975 58.5786 108.035 58.6207 108.083 58.6738C108.132 58.7268 108.168 58.7896 108.191 58.8579C108.213 58.9262 108.221 58.9985 108.213 59.07C108.197 59.2195 108.128 59.3585 108.019 59.4615C107.909 59.5645 107.766 59.6246 107.616 59.631Z" fill="white"/>
<path d="M113.37 59.355H109.17C109.133 59.3556 109.097 59.3485 109.064 59.334C109.03 59.3196 109 59.2982 108.975 59.2713C108.951 59.2443 108.932 59.2124 108.921 59.1777C108.909 59.143 108.905 59.1063 108.909 59.07C108.913 58.9918 108.946 58.918 109.002 58.8626C109.057 58.8073 109.131 58.7743 109.209 58.77H113.409C113.447 58.7685 113.485 58.7755 113.52 58.7907C113.555 58.8058 113.586 58.8286 113.611 58.8574C113.636 58.8862 113.655 58.9202 113.665 58.957C113.675 58.9938 113.677 59.0324 113.67 59.07C113.666 59.1469 113.633 59.2194 113.577 59.2725C113.521 59.3255 113.447 59.3551 113.37 59.355Z" fill="white"/>
<path d="M112.215 60.4801H109.077C109.039 60.481 109.002 60.4736 108.967 60.4583C108.932 60.443 108.901 60.4202 108.876 60.3915C108.851 60.3629 108.833 60.329 108.823 60.2925C108.812 60.2559 108.81 60.2176 108.816 60.1801C108.821 60.1019 108.854 60.0281 108.909 59.9727C108.964 59.9174 109.038 59.8844 109.116 59.8801H112.257C112.295 59.8791 112.333 59.8866 112.368 59.9019C112.403 59.9172 112.433 59.94 112.458 59.9687C112.483 59.9973 112.502 60.0311 112.512 60.0677C112.522 60.1042 112.525 60.1426 112.518 60.1801C112.513 60.2585 112.48 60.3324 112.424 60.3877C112.368 60.443 112.294 60.4758 112.215 60.4801Z" fill="white"/>
<path d="M86.8229 68.799H54.7739C54.5291 68.8034 54.2861 68.7557 54.0612 68.6589C53.8363 68.5622 53.6345 68.4186 53.4693 68.2378C53.3042 68.0571 53.1794 67.8432 53.1033 67.6105C53.0272 67.3777 53.0015 67.1315 53.0279 66.888L54.8099 46.527C54.8626 46.009 55.1032 45.5283 55.4863 45.1756C55.8694 44.823 56.3683 44.6228 56.8889 44.613H88.9409C89.1858 44.609 89.4287 44.6571 89.6535 44.7543C89.8783 44.8514 90.0798 44.9953 90.2447 45.1763C90.4096 45.3574 90.5341 45.5715 90.6098 45.8044C90.6855 46.0373 90.7108 46.2836 90.6839 46.527L88.9049 66.9C88.8487 67.4158 88.6062 67.8934 88.2228 68.243C87.8395 68.5927 87.3417 68.7904 86.8229 68.799Z" fill="#F39712"/>
<path opacity="0.7" d="M86.8229 68.799H54.7739C54.5291 68.8034 54.2861 68.7557 54.0612 68.6589C53.8363 68.5622 53.6345 68.4186 53.4693 68.2378C53.3042 68.0571 53.1794 67.8432 53.1033 67.6105C53.0272 67.3777 53.0015 67.1315 53.0279 66.888L54.8099 46.527C54.8626 46.009 55.1032 45.5283 55.4863 45.1756C55.8694 44.823 56.3683 44.6228 56.8889 44.613H88.9409C89.1858 44.609 89.4287 44.6571 89.6535 44.7543C89.8783 44.8514 90.0798 44.9953 90.2447 45.1763C90.4096 45.3574 90.5341 45.5715 90.6098 45.8044C90.6855 46.0373 90.7108 46.2836 90.6839 46.527L88.9049 66.9C88.8487 67.4158 88.6062 67.8934 88.2228 68.243C87.8395 68.5927 87.3417 68.7904 86.8229 68.799Z" fill="white"/>
<path d="M56.1126 62.7119H55.2996L56.3886 50.2679H57.2016L56.1126 62.7119Z" fill="#F39712"/>
<path d="M57.2674 62.7121H56.4514L57.2524 53.5591H58.0684L57.2674 62.7121Z" fill="#263238"/>
<path d="M59.0974 62.7121H58.2844L58.8064 56.7301H59.6194L59.0974 62.7121Z" fill="#F39712"/>
<path d="M60.2493 62.712H59.4363L60.0603 55.578H60.8733L60.2493 62.712Z" fill="#263238"/>
<path d="M62.0824 62.712H61.2664L62.1964 52.08H63.0124L62.0824 62.712Z" fill="#F39712"/>
<path d="M63.2341 62.7121H62.4181L63.2221 53.5591H64.0351L63.2341 62.7121Z" fill="#263238"/>
<path d="M65.0642 62.7121H64.2512L65.0522 53.5591H65.8652L65.0642 62.7121Z" fill="#F39712"/>
<path d="M66.2166 62.712H65.4036L66.4056 51.252H67.2186L66.2166 62.712Z" fill="#263238"/>
<path d="M68.049 62.712H67.233L67.779 56.49H68.592L68.049 62.712Z" fill="#F39712"/>
<path d="M69.2014 62.7121H68.3884L69.1894 53.5591H70.0024L69.2014 62.7121Z" fill="#263238"/>
<path d="M71.0314 62.712H70.2184L71.1484 52.08H71.9614L71.0314 62.712Z" fill="#F39712"/>
<path d="M72.1862 62.712H71.3702L72.4982 49.812H73.3142L72.1862 62.712Z" fill="#263238"/>
<path d="M74.0162 62.7122H73.2032L73.4973 59.3252H74.3133L74.0162 62.7122Z" fill="#F39712"/>
<path d="M75.1681 62.7121H74.3551L74.9041 56.4421H75.7171L75.1681 62.7121Z" fill="#263238"/>
<path d="M76.9982 62.7121H76.1852L76.7102 56.7301H77.5232L76.9982 62.7121Z" fill="#F39712"/>
<path d="M78.1535 62.712H77.3375L78.3665 50.964H79.1795L78.1535 62.712Z" fill="#263238"/>
<path d="M79.983 62.7121H79.17L79.845 55.0021H80.658L79.983 62.7121Z" fill="#F39712"/>
<path d="M81.1354 62.7121H80.3224L81.6274 47.7931H82.4404L81.1354 62.7121Z" fill="#263238"/>
<path d="M82.9683 62.712H82.1523L83.0283 52.6949H83.8443L82.9683 62.712Z" fill="#F39712"/>
<path d="M84.1202 62.7121H83.3073L84.1082 53.5591H84.9213L84.1202 62.7121Z" fill="#263238"/>
<path d="M85.9502 62.7119H85.1372L86.2412 50.0999H87.0542L85.9502 62.7119Z" fill="#F39712"/>
<path d="M87.1025 62.712H86.2896L86.9405 55.29H87.7536L87.1025 62.712Z" fill="#263238"/>
<path d="M55.8001 66.108C55.6976 66.1103 55.5958 66.0907 55.5015 66.0505C55.4072 66.0103 55.3226 65.9504 55.2533 65.8749C55.184 65.7993 55.1316 65.7098 55.0997 65.6124C55.0677 65.515 55.057 65.4119 55.0681 65.31C55.0919 65.0939 55.1932 64.8938 55.3531 64.7465C55.513 64.5993 55.7208 64.5149 55.9381 64.509C56.0409 64.5066 56.143 64.5263 56.2375 64.5667C56.332 64.607 56.4168 64.6672 56.4862 64.7431C56.5555 64.819 56.6078 64.9088 56.6396 65.0066C56.6713 65.1044 56.6817 65.2078 56.6701 65.31C56.6456 65.5255 56.5441 65.7249 56.3842 65.8716C56.2244 66.0182 56.0169 66.1021 55.8001 66.108Z" fill="#263238"/>
<path d="M63.9875 65.7151H58.0205C57.9684 65.7163 57.9167 65.7063 57.8689 65.6859C57.821 65.6655 57.778 65.6351 57.7428 65.5968C57.7076 65.5585 57.681 65.5131 57.6647 65.4637C57.6484 65.4142 57.6429 65.3619 57.6485 65.3101C57.6601 65.1997 57.7116 65.0974 57.7934 65.0223C57.8751 64.9472 57.9815 64.9044 58.0925 64.9021H64.0595C64.1116 64.9014 64.1634 64.9118 64.2112 64.9325C64.2591 64.9533 64.302 64.9839 64.3372 65.0225C64.3724 65.061 64.3989 65.1066 64.4152 65.1562C64.4314 65.2058 64.437 65.2583 64.4315 65.3101C64.4197 65.4202 64.3681 65.5222 64.2863 65.5969C64.2045 65.6715 64.0982 65.7136 63.9875 65.7151Z" fill="#263238"/>
<path d="M62.3495 67.3169H57.8795C57.8266 67.3179 57.7741 67.3073 57.7257 67.286C57.6772 67.2647 57.6339 67.2332 57.5989 67.1935C57.5638 67.1539 57.5377 67.1071 57.5225 67.0564C57.5072 67.0057 57.5032 66.9523 57.5105 66.8999C57.5209 66.7895 57.5716 66.6868 57.653 66.6115C57.7344 66.5362 57.8407 66.4937 57.9515 66.4919H62.4185C62.4708 66.4907 62.5228 66.5007 62.5709 66.5213C62.619 66.5419 62.6622 66.5726 62.6974 66.6112C62.7327 66.6499 62.7592 66.6957 62.7753 66.7455C62.7914 66.7953 62.7966 66.8479 62.7905 66.8999C62.7817 67.0117 62.7317 67.1162 62.6502 67.1932C62.5687 67.2702 62.4616 67.3143 62.3495 67.3169Z" fill="#263238"/>
<path opacity="0.3" d="M63.9875 65.7151H58.0205C57.9684 65.7163 57.9167 65.7063 57.8689 65.6859C57.821 65.6655 57.778 65.6351 57.7428 65.5968C57.7076 65.5585 57.681 65.5131 57.6647 65.4637C57.6484 65.4142 57.6429 65.3619 57.6485 65.3101C57.6601 65.1997 57.7116 65.0974 57.7934 65.0223C57.8751 64.9472 57.9815 64.9044 58.0925 64.9021H64.0595C64.1116 64.9014 64.1634 64.9118 64.2112 64.9325C64.2591 64.9533 64.302 64.9839 64.3372 65.0225C64.3724 65.061 64.3989 65.1066 64.4152 65.1562C64.4314 65.2058 64.437 65.2583 64.4315 65.3101C64.4197 65.4202 64.3681 65.5222 64.2863 65.5969C64.2045 65.6715 64.0982 65.7136 63.9875 65.7151Z" fill="white"/>
<path opacity="0.3" d="M62.3495 67.3169H57.8795C57.8266 67.3179 57.7741 67.3073 57.7257 67.286C57.6772 67.2647 57.6339 67.2332 57.5989 67.1935C57.5638 67.1539 57.5377 67.1071 57.5225 67.0564C57.5072 67.0057 57.5032 66.9523 57.5105 66.8999C57.5209 66.7895 57.5716 66.6868 57.653 66.6115C57.7344 66.5362 57.8407 66.4937 57.9515 66.4919H62.4185C62.4708 66.4907 62.5228 66.5007 62.5709 66.5213C62.619 66.5419 62.6622 66.5726 62.6974 66.6112C62.7327 66.6499 62.7592 66.6957 62.7753 66.7455C62.7914 66.7953 62.7966 66.8479 62.7905 66.8999C62.7817 67.0117 62.7317 67.1162 62.6502 67.1932C62.5687 67.2702 62.4616 67.3143 62.3495 67.3169Z" fill="white"/>
<path d="M67.6022 66.108C67.4999 66.1098 67.3983 66.0899 67.3042 66.0495C67.2102 66.0091 67.1257 65.9493 67.0565 65.8738C66.9873 65.7984 66.9349 65.7091 66.9028 65.6119C66.8707 65.5147 66.8596 65.4118 66.8702 65.31C66.8941 65.0939 66.9953 64.8938 67.1552 64.7465C67.3151 64.5993 67.523 64.5149 67.7402 64.509C67.843 64.5066 67.9451 64.5263 68.0396 64.5667C68.1342 64.607 68.219 64.6672 68.2883 64.7431C68.3577 64.819 68.41 64.9088 68.4417 65.0066C68.4734 65.1044 68.4838 65.2078 68.4722 65.31C68.4477 65.5255 68.3462 65.7249 68.1864 65.8716C68.0265 66.0182 67.8191 66.1021 67.6022 66.108Z" fill="#F39712"/>
<path opacity="0.3" d="M67.6022 66.108C67.4999 66.1098 67.3983 66.0899 67.3042 66.0495C67.2102 66.0091 67.1257 65.9493 67.0565 65.8738C66.9873 65.7984 66.9349 65.7091 66.9028 65.6119C66.8707 65.5147 66.8596 65.4118 66.8702 65.31C66.8941 65.0939 66.9953 64.8938 67.1552 64.7465C67.3151 64.5993 67.523 64.5149 67.7402 64.509C67.843 64.5066 67.9451 64.5263 68.0396 64.5667C68.1342 64.607 68.219 64.6672 68.2883 64.7431C68.3577 64.819 68.41 64.9088 68.4417 65.0066C68.4734 65.1044 68.4838 65.2078 68.4722 65.31C68.4477 65.5255 68.3462 65.7249 68.1864 65.8716C68.0265 66.0182 67.8191 66.1021 67.6022 66.108Z" fill="black"/>
<path d="M75.7865 65.7151H69.8195C69.7675 65.7163 69.7158 65.7063 69.6679 65.6859C69.6201 65.6655 69.5771 65.6351 69.5419 65.5968C69.5067 65.5585 69.4801 65.5131 69.4638 65.4637C69.4475 65.4142 69.442 65.3619 69.4475 65.3101C69.4592 65.1997 69.5107 65.0974 69.5925 65.0223C69.6742 64.9472 69.7805 64.9044 69.8915 64.9021H75.8585C75.9107 64.9014 75.9624 64.9118 76.0103 64.9325C76.0582 64.9533 76.1011 64.9839 76.1363 65.0225C76.1714 65.061 76.198 65.1066 76.2143 65.1562C76.2305 65.2058 76.236 65.2583 76.2305 65.3101C76.2188 65.4202 76.1672 65.5222 76.0854 65.5969C76.0035 65.6715 75.8972 65.7136 75.7865 65.7151Z" fill="#263238"/>
<path d="M74.1485 67.3169H69.6815C69.6276 67.3197 69.5737 67.3105 69.5238 67.2899C69.4739 67.2694 69.4291 67.2381 69.3927 67.1983C69.3563 67.1584 69.3291 67.111 69.3132 67.0594C69.2972 67.0078 69.2929 66.9534 69.3005 66.8999C69.3108 66.7895 69.3616 66.6868 69.443 66.6115C69.5243 66.5362 69.6307 66.4937 69.7415 66.4919H74.2085C74.2608 66.4907 74.3128 66.5007 74.3609 66.5213C74.409 66.5419 74.4521 66.5726 74.4874 66.6112C74.5227 66.6499 74.5492 66.6957 74.5653 66.7455C74.5813 66.7953 74.5865 66.8479 74.5805 66.8999C74.5725 67.0104 74.5239 67.1141 74.4442 67.191C74.3645 67.2679 74.2592 67.3128 74.1485 67.3169Z" fill="#263238"/>
<path opacity="0.3" d="M75.7865 65.7151H69.8195C69.7675 65.7163 69.7158 65.7063 69.6679 65.6859C69.6201 65.6655 69.5771 65.6351 69.5419 65.5968C69.5067 65.5585 69.4801 65.5131 69.4638 65.4637C69.4475 65.4142 69.442 65.3619 69.4475 65.3101C69.4592 65.1997 69.5107 65.0974 69.5925 65.0223C69.6742 64.9472 69.7805 64.9044 69.8915 64.9021H75.8585C75.9107 64.9014 75.9624 64.9118 76.0103 64.9325C76.0582 64.9533 76.1011 64.9839 76.1363 65.0225C76.1714 65.061 76.198 65.1066 76.2143 65.1562C76.2305 65.2058 76.236 65.2583 76.2305 65.3101C76.2188 65.4202 76.1672 65.5222 76.0854 65.5969C76.0035 65.6715 75.8972 65.7136 75.7865 65.7151Z" fill="white"/>
<path opacity="0.3" d="M74.1485 67.3169H69.6815C69.6276 67.3197 69.5737 67.3105 69.5238 67.2899C69.4739 67.2694 69.4291 67.2381 69.3927 67.1983C69.3563 67.1584 69.3291 67.111 69.3132 67.0594C69.2972 67.0078 69.2929 66.9534 69.3005 66.8999C69.3108 66.7895 69.3616 66.6868 69.443 66.6115C69.5243 66.5362 69.6307 66.4937 69.7415 66.4919H74.2085C74.2608 66.4907 74.3128 66.5007 74.3609 66.5213C74.409 66.5419 74.4521 66.5726 74.4874 66.6112C74.5227 66.6499 74.5492 66.6957 74.5653 66.7455C74.5813 66.7953 74.5865 66.8479 74.5805 66.8999C74.5725 67.0104 74.5239 67.1141 74.4442 67.191C74.3645 67.2679 74.2592 67.3128 74.1485 67.3169Z" fill="white"/>
<path d="M79.4011 66.1082C79.2989 66.11 79.1974 66.0901 79.1034 66.0497C79.0095 66.0093 78.9252 65.9494 78.8563 65.8739C78.7873 65.7984 78.7352 65.7091 78.7034 65.6119C78.6717 65.5147 78.661 65.4118 78.6721 65.3102C78.6959 65.0941 78.7972 64.894 78.9571 64.7467C79.117 64.5995 79.3248 64.5151 79.5421 64.5092C79.6446 64.5072 79.7464 64.5272 79.8406 64.5678C79.9347 64.6084 80.0192 64.6686 80.0882 64.7444C80.1572 64.8203 80.2092 64.91 80.2408 65.0075C80.2723 65.1051 80.2827 65.2083 80.2711 65.3102C80.2466 65.5257 80.1451 65.7251 79.9852 65.8717C79.8254 66.0184 79.6179 66.1023 79.4011 66.1082Z" fill="#F39712"/>
<path d="M87.6004 65.7151H81.6184C81.5665 65.7163 81.5149 65.7064 81.4672 65.686C81.4194 65.6655 81.3766 65.6351 81.3416 65.5967C81.3066 65.5583 81.2803 65.5129 81.2644 65.4634C81.2485 65.414 81.2434 65.3617 81.2494 65.3101C81.2597 65.1997 81.3105 65.0971 81.3918 65.0218C81.4732 64.9465 81.5795 64.9039 81.6904 64.9021H87.6574C87.7096 64.9014 87.7613 64.9118 87.8092 64.9325C87.8571 64.9533 87.9 64.9839 87.9351 65.0225C87.9703 65.061 87.9969 65.1066 88.0131 65.1562C88.0294 65.2058 88.0349 65.2583 88.0294 65.3101C88.0181 65.4178 87.9686 65.5178 87.8899 65.592C87.8112 65.6663 87.7085 65.71 87.6004 65.7151Z" fill="#263238"/>
<path d="M85.9474 67.317H81.4804C81.4281 67.3182 81.3761 67.3082 81.328 67.2876C81.2799 67.267 81.2368 67.2363 81.2015 67.1977C81.1662 67.159 81.1397 67.1132 81.1236 67.0634C81.1076 67.0136 81.1024 66.961 81.1084 66.909C81.1187 66.7986 81.1694 66.6959 81.2508 66.6206C81.3322 66.5453 81.4385 66.5027 81.5494 66.501H86.0194C86.0716 66.4986 86.1237 66.5075 86.1722 66.5269C86.2207 66.5464 86.2645 66.576 86.3006 66.6138C86.3367 66.6516 86.3643 66.6967 86.3815 66.7461C86.3987 66.7955 86.4052 66.8479 86.4004 66.9C86.392 67.014 86.3405 67.1206 86.2564 67.1981C86.1722 67.2755 86.0617 67.3181 85.9474 67.317Z" fill="#263238"/>
<path opacity="0.3" d="M87.6004 65.7151H81.6184C81.5665 65.7163 81.5149 65.7064 81.4672 65.686C81.4194 65.6655 81.3766 65.6351 81.3416 65.5967C81.3066 65.5583 81.2803 65.5129 81.2644 65.4634C81.2485 65.414 81.2434 65.3617 81.2494 65.3101C81.2597 65.1997 81.3105 65.0971 81.3918 65.0218C81.4732 64.9465 81.5795 64.9039 81.6904 64.9021H87.6574C87.7096 64.9014 87.7613 64.9118 87.8092 64.9325C87.8571 64.9533 87.9 64.9839 87.9351 65.0225C87.9703 65.061 87.9969 65.1066 88.0131 65.1562C88.0294 65.2058 88.0349 65.2583 88.0294 65.3101C88.0181 65.4178 87.9686 65.5178 87.8899 65.592C87.8112 65.6663 87.7085 65.71 87.6004 65.7151Z" fill="white"/>
<path opacity="0.3" d="M85.9474 67.317H81.4804C81.4281 67.3182 81.3761 67.3082 81.328 67.2876C81.2799 67.267 81.2368 67.2363 81.2015 67.1977C81.1662 67.159 81.1397 67.1132 81.1236 67.0634C81.1076 67.0136 81.1024 66.961 81.1084 66.909C81.1187 66.7986 81.1694 66.6959 81.2508 66.6206C81.3322 66.5453 81.4385 66.5027 81.5494 66.501H86.0194C86.0716 66.4986 86.1237 66.5075 86.1722 66.5269C86.2207 66.5464 86.2645 66.576 86.3006 66.6138C86.3367 66.6516 86.3643 66.6967 86.3815 66.7461C86.3987 66.7955 86.4052 66.8479 86.4004 66.9C86.392 67.014 86.3405 67.1206 86.2564 67.1981C86.1722 67.2755 86.0617 67.3181 85.9474 67.317Z" fill="white"/>
<path d="M119.328 42.6991H100.692C100.447 42.7036 100.204 42.6558 99.9795 42.559C99.7546 42.4623 99.5528 42.3187 99.3877 42.138C99.2225 41.9572 99.0977 41.7433 99.0216 41.5106C98.9455 41.2778 98.9198 41.0316 98.9462 40.7881L99.9362 29.4691C99.989 28.9514 100.23 28.471 100.613 28.1189C100.996 27.7667 101.495 27.5672 102.015 27.5581H120.651C120.896 27.5537 121.139 27.6015 121.364 27.6982C121.589 27.795 121.791 27.9385 121.956 28.1193C122.121 28.3001 122.246 28.514 122.322 28.7467C122.398 28.9794 122.424 29.2257 122.397 29.4691L121.407 40.8001C121.352 41.3157 121.11 41.7932 120.727 42.1429C120.344 42.4926 119.847 42.6904 119.328 42.6991Z" fill="#F39712"/>
<path d="M108.747 34.401C108.651 35.3344 108.217 36.2004 107.527 36.8359C106.837 37.4714 105.938 37.8325 105 37.851C104.558 37.8588 104.12 37.7724 103.714 37.5975C103.308 37.4227 102.945 37.1635 102.647 36.8371C102.349 36.5107 102.124 36.1246 101.988 35.7046C101.851 35.2846 101.805 34.8402 101.853 34.401C101.947 33.4672 102.381 32.6004 103.071 31.9647C103.762 31.3289 104.661 30.9683 105.6 30.951C106.042 30.9433 106.48 31.0297 106.886 31.2045C107.291 31.3794 107.655 31.6386 107.953 31.965C108.251 32.2914 108.475 32.6775 108.612 33.0975C108.749 33.5175 108.795 33.9619 108.747 34.401Z" fill="#F39712"/>
<path opacity="0.7" d="M108.747 34.401C108.651 35.3344 108.217 36.2004 107.527 36.8359C106.837 37.4714 105.938 37.8325 105 37.851C104.558 37.8588 104.12 37.7724 103.714 37.5975C103.308 37.4227 102.945 37.1635 102.647 36.8371C102.349 36.5107 102.124 36.1246 101.988 35.7046C101.851 35.2846 101.805 34.8402 101.853 34.401C101.947 33.4672 102.381 32.6004 103.071 31.9647C103.762 31.3289 104.661 30.9683 105.6 30.951C106.042 30.9433 106.48 31.0297 106.886 31.2045C107.291 31.3794 107.655 31.6386 107.953 31.965C108.251 32.2914 108.475 32.6775 108.612 33.0975C108.749 33.5175 108.795 33.9619 108.747 34.401Z" fill="white"/>
<path d="M106.341 33.7889C106.275 34.5449 105.987 35.1569 105.231 35.1569C104.475 35.1569 104.292 34.5569 104.358 33.7889C104.424 33.0209 104.715 32.4209 105.471 32.4209C106.227 32.4209 106.407 33.0329 106.341 33.7889Z" fill="#263238"/>
<path d="M105.192 35.5831C103.611 35.5831 102.753 35.9341 102.348 36.4501C102.636 36.8872 103.029 37.2446 103.492 37.4895C103.954 37.7344 104.471 37.8587 104.994 37.8511C105.549 37.8438 106.096 37.7145 106.596 37.4724C107.096 37.2303 107.536 36.8813 107.886 36.4501C107.571 35.9341 106.776 35.5831 105.192 35.5831Z" fill="#263238"/>
<path d="M116.874 30.5489H111.273C111.213 30.5502 111.152 30.5384 111.097 30.5144C111.041 30.4905 110.991 30.4549 110.95 30.41C110.909 30.3651 110.878 30.312 110.859 30.2542C110.841 30.1964 110.834 30.1353 110.841 30.0749C110.855 29.9465 110.914 29.8273 111.009 29.74C111.104 29.6527 111.228 29.6032 111.357 29.6009H116.958C117.019 29.5997 117.079 29.6114 117.135 29.6354C117.191 29.6594 117.241 29.695 117.282 29.7399C117.323 29.7848 117.354 29.8379 117.372 29.8957C117.391 29.9535 117.397 30.0146 117.39 30.0749C117.378 30.2036 117.318 30.3231 117.223 30.4106C117.128 30.4981 117.004 30.5473 116.874 30.5489Z" fill="white"/>
<path d="M118.368 34.0503H110.967C110.907 34.0515 110.846 34.0398 110.79 34.0158C110.735 33.9918 110.685 33.9562 110.644 33.9113C110.603 33.8664 110.572 33.8133 110.553 33.7555C110.535 33.6977 110.528 33.6366 110.535 33.5763C110.548 33.4476 110.608 33.3281 110.703 33.2402C110.798 33.1524 110.922 33.1023 111.051 33.0993H118.452C118.513 33.0985 118.574 33.1106 118.629 33.1349C118.685 33.1592 118.735 33.1951 118.776 33.2403C118.817 33.2854 118.848 33.3387 118.866 33.3966C118.885 33.4545 118.891 33.5158 118.884 33.5763C118.872 33.705 118.812 33.8245 118.717 33.912C118.622 33.9994 118.498 34.0487 118.368 34.0503Z" fill="white"/>
<path d="M119.715 35.799H110.814C110.754 35.8003 110.693 35.7885 110.638 35.7646C110.582 35.7406 110.532 35.705 110.491 35.6601C110.45 35.6152 110.419 35.5621 110.4 35.5043C110.382 35.4465 110.376 35.3854 110.382 35.325C110.396 35.1966 110.455 35.0775 110.55 34.9901C110.645 34.9028 110.769 34.8533 110.898 34.851H119.799C119.86 34.8498 119.92 34.8616 119.976 34.8855C120.032 34.9095 120.082 34.9451 120.123 34.99C120.164 35.0349 120.195 35.088 120.213 35.1458C120.232 35.2036 120.238 35.2647 120.231 35.325C120.219 35.4537 120.159 35.5732 120.064 35.6607C119.969 35.7482 119.845 35.7974 119.715 35.799Z" fill="white"/>
<path d="M118.962 37.5511H110.661C110.6 37.5519 110.54 37.5397 110.484 37.5154C110.428 37.4911 110.378 37.4552 110.338 37.4101C110.297 37.365 110.266 37.3117 110.247 37.2537C110.229 37.1958 110.222 37.1346 110.229 37.0741C110.243 36.9459 110.303 36.8271 110.398 36.7399C110.493 36.6527 110.616 36.603 110.745 36.6001H119.046C119.107 36.5988 119.167 36.6106 119.223 36.6345C119.279 36.6585 119.329 36.6941 119.37 36.739C119.411 36.7839 119.442 36.837 119.46 36.8948C119.479 36.9526 119.485 37.0137 119.478 37.0741C119.466 37.203 119.406 37.3229 119.311 37.4109C119.216 37.4988 119.092 37.5487 118.962 37.5511Z" fill="white"/>
<path d="M117.9 39.3H110.508C110.448 39.3013 110.387 39.2895 110.332 39.2656C110.276 39.2416 110.226 39.206 110.185 39.1611C110.144 39.1162 110.113 39.0631 110.094 39.0053C110.076 38.9475 110.069 38.8864 110.076 38.826C110.089 38.6971 110.148 38.5772 110.243 38.4892C110.339 38.4013 110.463 38.3514 110.592 38.349H117.993C118.054 38.3482 118.115 38.3604 118.17 38.3847C118.226 38.409 118.276 38.4449 118.317 38.49C118.358 38.5351 118.389 38.5884 118.407 38.6464C118.426 38.7043 118.432 38.7655 118.425 38.826C118.412 38.956 118.351 39.0764 118.254 39.1639C118.157 39.2515 118.031 39.3 117.9 39.3Z" fill="white"/>
<path d="M118.656 41.0492H110.355C110.295 41.0504 110.234 41.0387 110.178 41.0147C110.123 40.9907 110.073 40.9551 110.032 40.9102C109.991 40.8653 109.96 40.8122 109.941 40.7544C109.923 40.6966 109.916 40.6355 109.923 40.5752C109.936 40.4465 109.995 40.327 110.091 40.2395C110.186 40.152 110.31 40.1028 110.439 40.1012H118.74C118.801 40.0999 118.861 40.1117 118.917 40.1356C118.973 40.1596 119.023 40.1952 119.064 40.2401C119.105 40.285 119.136 40.3381 119.154 40.3959C119.173 40.4537 119.179 40.5148 119.172 40.5752C119.158 40.7033 119.098 40.8221 119.004 40.9093C118.909 40.9966 118.785 41.0463 118.656 41.0492Z" fill="white"/>
<path d="M95.1004 42.6989H63.0454C62.8006 42.7033 62.5576 42.6555 62.3327 42.5588C62.1077 42.462 61.906 42.3185 61.7408 42.1377C61.5756 41.9569 61.4509 41.743 61.3747 41.5103C61.2986 41.2776 61.273 41.0313 61.2994 40.7879L63.0814 20.4239C63.1342 19.9062 63.3749 19.4257 63.758 19.0736C64.1411 18.7214 64.6401 18.5219 65.1604 18.5129H97.2004C97.4451 18.5084 97.688 18.5561 97.9128 18.6529C98.1376 18.7497 98.3392 18.8933 98.5041 19.0741C98.669 19.255 98.7935 19.4689 98.8693 19.7016C98.945 19.9344 98.9703 20.1806 98.9434 20.4239L97.1764 40.7999C97.1203 41.3147 96.8787 41.7914 96.4966 42.1409C96.1145 42.4904 95.6181 42.6888 95.1004 42.6989Z" fill="#F39712"/>
<path opacity="0.7" d="M95.1004 42.6989H63.0454C62.8006 42.7033 62.5576 42.6555 62.3327 42.5588C62.1077 42.462 61.906 42.3185 61.7408 42.1377C61.5756 41.9569 61.4509 41.743 61.3747 41.5103C61.2986 41.2776 61.273 41.0313 61.2994 40.7879L63.0814 20.4239C63.1342 19.9062 63.3749 19.4257 63.758 19.0736C64.1411 18.7214 64.6401 18.5219 65.1604 18.5129H97.2004C97.4451 18.5084 97.688 18.5561 97.9128 18.6529C98.1376 18.7497 98.3392 18.8933 98.5041 19.0741C98.669 19.255 98.7935 19.4689 98.8693 19.7016C98.945 19.9344 98.9703 20.1806 98.9434 20.4239L97.1764 40.7999C97.1203 41.3147 96.8787 41.7914 96.4966 42.1409C96.1145 42.4904 95.6181 42.6888 95.1004 42.6989Z" fill="white"/>
<path d="M98.283 28.1158C97.662 25.8748 96.681 23.6308 95.253 23.6308C92.553 23.6308 91.242 27.8548 89.853 32.3308C88.629 36.2608 87.363 40.3228 85.389 40.3228C82.884 40.3228 82.197 35.2978 81.534 30.4378C80.79 24.9928 80.088 19.8478 76.86 19.8478C73.632 19.8478 72.033 24.9928 70.335 30.4378C68.82 35.2978 67.257 40.3228 64.749 40.3228C63.579 40.3228 62.49 36.8608 61.917 33.7828L61.656 36.7828C62.28 39.0058 63.255 41.2168 64.671 41.2168C67.899 41.2168 69.501 36.0718 71.196 30.6268C72.696 25.7698 74.277 20.7418 76.782 20.7418C79.287 20.7418 79.974 25.7698 80.637 30.6418C81.381 36.0868 82.083 41.2318 85.311 41.2318C88.011 41.2318 89.322 37.0078 90.711 32.5318C91.935 28.6018 93.201 24.5398 95.178 24.5398C96.357 24.5398 97.455 28.0498 98.022 31.1398L98.283 28.1158Z" fill="#F39712"/>
<path d="M77.8368 21.0403C78.3777 20.5224 78.4318 19.7009 77.9574 19.2054C77.4831 18.7099 76.66 18.728 76.119 19.2459C75.5781 19.7638 75.5241 20.5853 75.9984 21.0808C76.4727 21.5763 77.2958 21.5581 77.8368 21.0403Z" fill="#263238"/>
<path d="M77.4009 20.5815C77.6689 20.3248 77.6949 19.9169 77.4588 19.6704C77.2227 19.4238 76.8141 19.4321 76.546 19.6888C76.278 19.9455 76.252 20.3534 76.4881 20.5999C76.7242 20.8464 77.1328 20.8382 77.4009 20.5815Z" fill="#F39712"/>
<path d="M79.7045 14.6549H75.2045C74.9691 14.6595 74.7436 14.7498 74.5701 14.9089C74.3967 15.0679 74.2873 15.2849 74.2625 15.5189L74.1905 16.3409C74.1785 16.451 74.1901 16.5623 74.2245 16.6675C74.2589 16.7726 74.3153 16.8693 74.3899 16.951C74.4646 17.0328 74.5557 17.0977 74.6574 17.1414C74.759 17.1852 74.8688 17.2069 74.9795 17.2049H76.4795L76.9265 17.8799C76.9561 17.9197 76.9945 17.9519 77.0388 17.9741C77.0831 17.9964 77.1319 18.0079 77.1815 18.0079C77.231 18.0079 77.2799 17.9964 77.3241 17.9741C77.3684 17.9519 77.4069 17.9197 77.4365 17.8799L78.0005 17.2049H79.5005C79.7355 17.2003 79.9606 17.1099 80.1336 16.9508C80.3066 16.7916 80.4153 16.5747 80.4395 16.3409L80.5115 15.5189C80.5236 15.4074 80.5116 15.2945 80.4762 15.188C80.4407 15.0815 80.3827 14.9839 80.3061 14.9019C80.2295 14.8199 80.1361 14.7553 80.0322 14.7127C79.9284 14.6701 79.8166 14.6504 79.7045 14.6549Z" fill="#F39712"/>
<path d="M79.3533 15.7409H75.2643C75.2355 15.7416 75.2069 15.736 75.1804 15.7246C75.154 15.7133 75.1303 15.6963 75.1109 15.675C75.0916 15.6537 75.0771 15.6284 75.0683 15.601C75.0596 15.5735 75.0568 15.5445 75.0603 15.5159C75.0687 15.4575 75.0973 15.4039 75.1411 15.3644C75.185 15.325 75.2413 15.3021 75.3003 15.2999H79.3863C79.4149 15.2998 79.4433 15.3057 79.4695 15.3172C79.4957 15.3287 79.5193 15.3457 79.5385 15.3669C79.5577 15.3881 79.5723 15.4132 79.5812 15.4404C79.5901 15.4676 79.5932 15.4964 79.5903 15.5249C79.5831 15.5833 79.5553 15.6372 79.5118 15.6769C79.4683 15.7165 79.4121 15.7392 79.3533 15.7409Z" fill="#263238"/>
<path d="M77.0641 16.557H75.1951C75.1662 16.5576 75.1375 16.552 75.111 16.5406C75.0844 16.5293 75.0605 16.5124 75.0409 16.4911C75.0214 16.4699 75.0065 16.4447 74.9974 16.4172C74.9883 16.3898 74.9852 16.3607 74.9881 16.332C74.9941 16.2707 75.0225 16.2138 75.0679 16.1722C75.1134 16.1307 75.1726 16.1074 75.2341 16.107H77.1001C77.1289 16.1063 77.1575 16.1119 77.184 16.1233C77.2104 16.1347 77.2342 16.1516 77.2535 16.1729C77.2728 16.1943 77.2874 16.2195 77.2961 16.2469C77.3049 16.2744 77.3076 16.3034 77.3041 16.332C77.2977 16.392 77.27 16.4478 77.2259 16.489C77.1819 16.5303 77.1245 16.5544 77.0641 16.557Z" fill="#263238"/>
<path d="M86.0484 41.0941C86.5894 40.5762 86.6434 39.7547 86.1691 39.2592C85.6948 38.7637 84.8717 38.7819 84.3307 39.2997C83.7897 39.8176 83.7357 40.6391 84.2101 41.1346C84.6844 41.6301 85.5075 41.612 86.0484 41.0941Z" fill="#263238"/>
<path d="M85.8335 40.2C85.8159 40.3743 85.7351 40.5362 85.6063 40.6551C85.4775 40.7739 85.3097 40.8415 85.1345 40.845C85.0508 40.8486 84.9674 40.834 84.8899 40.8022C84.8124 40.7704 84.7427 40.7222 84.6857 40.6609C84.6287 40.5995 84.5856 40.5266 84.5595 40.447C84.5334 40.3675 84.5249 40.2832 84.5345 40.2C84.552 40.0256 84.6328 39.8637 84.7616 39.7449C84.8904 39.6261 85.0583 39.5585 85.2335 39.555C85.3171 39.5514 85.4006 39.566 85.4781 39.5978C85.5556 39.6296 85.6252 39.6778 85.6822 39.7391C85.7393 39.8004 85.7823 39.8734 85.8084 39.9529C85.8346 40.0325 85.8431 40.1168 85.8335 40.2Z" fill="#F39712"/>
<path d="M87.9185 34.707H83.4185C83.1835 34.7116 82.9583 34.802 82.7853 34.9611C82.6124 35.1203 82.5036 35.3372 82.4795 35.571L82.4075 36.39C82.3951 36.5002 82.4063 36.6119 82.4405 36.7174C82.4747 36.823 82.531 36.92 82.6057 37.0021C82.6804 37.0841 82.7717 37.1493 82.8736 37.1933C82.9755 37.2372 83.0855 37.259 83.1965 37.257H84.6815L85.1285 37.932C85.1587 37.9712 85.1976 38.003 85.2421 38.0248C85.2865 38.0467 85.3354 38.058 85.385 38.058C85.4345 38.058 85.4834 38.0467 85.5279 38.0248C85.5723 38.003 85.6112 37.9712 85.6415 37.932L86.2055 37.257H87.6905C87.9264 37.253 88.1528 37.1625 88.3264 37.0027C88.5001 36.8429 88.609 36.6248 88.6325 36.39L88.7045 35.571C88.7164 35.4612 88.7048 35.3502 88.6706 35.2452C88.6364 35.1402 88.5803 35.0437 88.506 34.962C88.4317 34.8804 88.3409 34.8154 88.2396 34.7714C88.1383 34.7274 88.0289 34.7055 87.9185 34.707Z" fill="#263238"/>
<path d="M87.5669 35.793H83.4779C83.4491 35.7937 83.4205 35.7881 83.3941 35.7767C83.3676 35.7653 83.3439 35.7484 83.3246 35.7271C83.3052 35.7057 83.2907 35.6805 83.2819 35.6531C83.2732 35.6256 83.2705 35.5966 83.2739 35.568C83.2798 35.5072 83.3078 35.4508 83.3526 35.4093C83.3974 35.3678 83.4559 35.3442 83.5169 35.343H87.5999C87.6286 35.3429 87.6569 35.3488 87.6831 35.3603C87.7094 35.3718 87.7329 35.3888 87.7521 35.41C87.7714 35.4312 87.7859 35.4563 87.7949 35.4835C87.8038 35.5107 87.8069 35.5395 87.8039 35.568C87.7988 35.628 87.7718 35.6841 87.7282 35.7256C87.6845 35.767 87.6271 35.791 87.5669 35.793Z" fill="white"/>
<path d="M85.2781 36.5999H83.4001C83.3714 36.6006 83.3428 36.595 83.3163 36.5836C83.2898 36.5723 83.2661 36.5553 83.2468 36.534C83.2274 36.5127 83.2129 36.4874 83.2042 36.46C83.1954 36.4325 83.1927 36.4035 83.1961 36.3749C83.2026 36.3144 83.2308 36.2583 83.2755 36.2169C83.3202 36.1756 83.3783 36.1518 83.4391 36.1499H85.3111C85.34 36.1494 85.3687 36.1549 85.3953 36.1663C85.4219 36.1776 85.4458 36.1945 85.4654 36.2158C85.4849 36.2371 85.4998 36.2623 85.5089 36.2897C85.518 36.3171 85.5211 36.3462 85.5181 36.3749C85.5123 36.4352 85.4848 36.4913 85.4406 36.5327C85.3964 36.5741 85.3387 36.598 85.2781 36.5999Z" fill="white"/>
<path d="M96.5283 23.9999C96.4931 24.3515 96.3301 24.678 96.0702 24.9174C95.8103 25.1569 95.4716 25.2926 95.1183 25.2989C94.9519 25.3021 94.7868 25.2697 94.6339 25.204C94.481 25.1382 94.3439 25.0406 94.2318 24.9177C94.1196 24.7947 94.035 24.6493 93.9835 24.491C93.9321 24.3328 93.9149 24.1653 93.9333 23.9999C93.9698 23.6491 94.1333 23.3237 94.393 23.0851C94.6527 22.8464 94.9907 22.7108 95.3433 22.7039C95.5094 22.7008 95.6743 22.7332 95.8269 22.7987C95.9796 22.8643 96.1165 22.9616 96.2286 23.0842C96.3407 23.2068 96.4254 23.3519 96.4771 23.5098C96.5288 23.6677 96.5462 23.8348 96.5283 23.9999Z" fill="#263238"/>
<path d="M95.8741 23.9999C95.8566 24.1743 95.7758 24.3362 95.647 24.455C95.5182 24.5739 95.3503 24.6414 95.1751 24.6449C95.0915 24.6485 95.008 24.6339 94.9305 24.6021C94.8531 24.5704 94.7834 24.5221 94.7264 24.4608C94.6693 24.3995 94.6263 24.3266 94.6001 24.247C94.574 24.1674 94.5655 24.0831 94.5751 23.9999C94.5934 23.8261 94.6745 23.665 94.8032 23.5467C94.9319 23.4285 95.0994 23.3614 95.2741 23.3579C95.3575 23.3544 95.4407 23.3689 95.5179 23.4006C95.5952 23.4322 95.6647 23.4801 95.7216 23.5411C95.7786 23.6021 95.8218 23.6746 95.8481 23.7538C95.8744 23.833 95.8833 23.917 95.8741 23.9999Z" fill="#F39712"/>
<path d="M97.9593 18.5128H93.4593C93.2238 18.5167 92.9979 18.6068 92.8243 18.766C92.6507 18.9252 92.5415 19.1425 92.5174 19.3768L92.4453 20.1988C92.4334 20.3088 92.445 20.4201 92.4794 20.5253C92.5138 20.6305 92.5702 20.7272 92.6448 20.8089C92.7194 20.8906 92.8106 20.9555 92.9123 20.9993C93.0139 21.0431 93.1237 21.0647 93.2343 21.0628H94.7343L95.1813 21.7378C95.2109 21.7775 95.2494 21.8098 95.2937 21.832C95.338 21.8542 95.3868 21.8658 95.4363 21.8658C95.4859 21.8658 95.5347 21.8542 95.579 21.832C95.6233 21.8098 95.6617 21.7775 95.6913 21.7378L96.2553 21.0628H97.7403C97.9759 21.0589 98.2018 20.9689 98.3754 20.8096C98.5489 20.6504 98.6582 20.4331 98.6823 20.1988L98.7543 19.3768C98.7664 19.2663 98.7546 19.1545 98.7198 19.0488C98.6851 18.9432 98.6282 18.8462 98.5529 18.7644C98.4776 18.6826 98.3857 18.6178 98.2833 18.5744C98.181 18.531 98.0705 18.51 97.9593 18.5128Z" fill="#F39712"/>
<path d="M97.6082 19.5989H93.5192C93.4904 19.5996 93.4618 19.594 93.4353 19.5826C93.4089 19.5713 93.3852 19.5543 93.3658 19.533C93.3465 19.5117 93.3319 19.4864 93.3232 19.459C93.3145 19.4315 93.3117 19.4025 93.3152 19.3739C93.321 19.3132 93.349 19.2567 93.3938 19.2152C93.4386 19.1737 93.4971 19.1501 93.5582 19.1489H97.6472C97.6758 19.1488 97.7042 19.1547 97.7304 19.1662C97.7566 19.1777 97.7801 19.1947 97.7994 19.2159C97.8186 19.2371 97.8332 19.2622 97.8421 19.2894C97.851 19.3166 97.8541 19.3454 97.8512 19.3739C97.8459 19.435 97.8181 19.4918 97.7732 19.5334C97.7283 19.5751 97.6694 19.5984 97.6082 19.5989Z" fill="#263238"/>
<path d="M95.319 20.4149H93.447C93.4184 20.415 93.39 20.4092 93.3638 20.3976C93.3376 20.3861 93.3141 20.3691 93.2948 20.3479C93.2756 20.3267 93.261 20.3016 93.2521 20.2744C93.2432 20.2472 93.2401 20.2184 93.243 20.1899C93.249 20.1286 93.2774 20.0717 93.3228 20.0301C93.3682 19.9886 93.4275 19.9653 93.489 19.9649H95.358C95.3869 19.9643 95.4156 19.9699 95.4422 19.9812C95.4688 19.9926 95.4927 20.0094 95.5122 20.0307C95.5318 20.052 95.5466 20.0772 95.5557 20.1046C95.5648 20.1321 95.568 20.1611 95.565 20.1899C95.5585 20.2509 95.5298 20.3074 95.4845 20.3489C95.4393 20.3903 95.3804 20.4138 95.319 20.4149Z" fill="#263238"/>
<path d="M66.3724 40.3438C66.3365 40.6949 66.1732 41.0206 65.9134 41.2595C65.6535 41.4983 65.3152 41.6336 64.9624 41.6398C64.7965 41.6425 64.632 41.6099 64.4797 41.5441C64.3274 41.4784 64.1909 41.381 64.0791 41.2584C63.9673 41.1359 63.8829 40.9909 63.8314 40.8332C63.7799 40.6756 63.7625 40.5087 63.7804 40.3438C63.8156 39.9922 63.9786 39.6658 64.2385 39.4263C64.4984 39.1869 64.8371 39.0512 65.1904 39.0448C65.3565 39.0421 65.5213 39.0748 65.6738 39.1408C65.8264 39.2067 65.9631 39.3044 66.0749 39.4273C66.1867 39.5502 66.2711 39.6955 66.3224 39.8535C66.3737 40.0115 66.3907 40.1787 66.3724 40.3438Z" fill="#263238"/>
<path d="M65.7213 40.3438C65.703 40.5181 65.6214 40.6797 65.4921 40.7979C65.3627 40.9162 65.1945 40.9831 65.0193 40.9858C64.936 40.9888 64.8531 40.9739 64.7761 40.9421C64.6991 40.9103 64.6298 40.8624 64.5729 40.8015C64.516 40.7407 64.4729 40.6683 64.4464 40.5893C64.4199 40.5104 64.4106 40.4266 64.4193 40.3438C64.4375 40.1691 64.519 40.0072 64.6482 39.8884C64.7775 39.7697 64.9458 39.7022 65.1213 39.6988C65.2048 39.6957 65.288 39.7106 65.3653 39.7426C65.4425 39.7745 65.5119 39.8228 65.5689 39.884C65.6258 39.9452 65.6689 40.0179 65.6952 40.0973C65.7215 40.1766 65.7304 40.2607 65.7213 40.3438Z" fill="#F39712"/>
<path d="M67.8 34.854H63.3C63.0646 34.8585 62.8391 34.9488 62.6656 35.1079C62.4922 35.267 62.3828 35.4839 62.358 35.718L62.289 36.54C62.2765 36.6501 62.2878 36.7616 62.322 36.867C62.3562 36.9724 62.4126 37.0693 62.4873 37.1511C62.562 37.233 62.6534 37.2979 62.7553 37.3415C62.8571 37.3851 62.9672 37.4064 63.078 37.404H64.578L65.025 38.079C65.0546 38.1187 65.093 38.151 65.1373 38.1732C65.1816 38.1954 65.2304 38.207 65.28 38.207C65.3295 38.207 65.3784 38.1954 65.4226 38.1732C65.4669 38.151 65.5054 38.1187 65.535 38.079L66.102 37.404H67.602C67.8373 37.3995 68.0628 37.3092 68.2363 37.1501C68.4098 36.991 68.5192 36.774 68.544 36.54L68.613 35.718C68.6258 35.6058 68.614 35.4921 68.5784 35.385C68.5428 35.2778 68.4842 35.1797 68.4068 35.0974C68.3295 35.0152 68.2351 34.9508 68.1303 34.9088C68.0254 34.8667 67.9127 34.848 67.8 34.854Z" fill="#263238"/>
<path d="M67.452 35.9428H63.366C63.3371 35.9434 63.3084 35.9378 63.2819 35.9265C63.2553 35.9151 63.2314 35.8983 63.2118 35.877C63.1923 35.8557 63.1774 35.8305 63.1683 35.8031C63.1592 35.7757 63.1561 35.7466 63.159 35.7178C63.165 35.6566 63.1934 35.5997 63.2388 35.5581C63.2843 35.5165 63.3435 35.4933 63.405 35.4928H67.5C67.5289 35.4923 67.5576 35.4978 67.5842 35.5092C67.6108 35.5205 67.6347 35.5374 67.6543 35.5587C67.6738 35.58 67.6887 35.6051 67.6978 35.6326C67.7069 35.66 67.71 35.6891 67.707 35.7178C67.7003 35.7804 67.6704 35.8382 67.6232 35.8798C67.576 35.9215 67.515 35.9439 67.452 35.9428Z" fill="white"/>
<path d="M65.1663 36.756H63.3003C63.2716 36.7561 63.2433 36.7502 63.2171 36.7387C63.1908 36.7271 63.1673 36.7102 63.1481 36.689C63.1288 36.6678 63.1143 36.6427 63.1054 36.6155C63.0964 36.5883 63.0933 36.5595 63.0963 36.531C63.1015 36.4699 63.1293 36.4131 63.1743 36.3714C63.2192 36.3298 63.2781 36.3065 63.3393 36.306H65.2113C65.2401 36.3053 65.2687 36.3109 65.2951 36.3223C65.3216 36.3336 65.3453 36.3506 65.3646 36.3719C65.384 36.3932 65.3985 36.4185 65.4073 36.4459C65.416 36.4734 65.4187 36.5024 65.4153 36.531C65.4093 36.5928 65.3805 36.6501 65.3344 36.6917C65.2883 36.7333 65.2284 36.7562 65.1663 36.756Z" fill="white"/>
<path d="M44.5322 35.2409L43.6682 36.7409L42.8192 38.2799C42.2612 39.3089 41.7272 40.3439 41.2412 41.3879C40.9982 41.9099 40.7672 42.4289 40.5572 42.9539L40.5182 43.0469C40.5193 43.0549 40.5193 43.063 40.5182 43.0709C40.5072 43.0835 40.4981 43.0977 40.4912 43.1129C40.4753 43.1395 40.4622 43.1676 40.4522 43.1969C40.43 43.31 40.4426 43.4272 40.4882 43.5329C40.6544 43.9422 40.9002 44.3144 41.2112 44.6279C41.5783 45.0223 41.969 45.394 42.3812 45.7409L41.6792 47.2409C41.3487 47.1497 41.0249 47.0354 40.7102 46.8989C40.3939 46.763 40.0872 46.6056 39.7922 46.4279C39.1187 46.0382 38.5415 45.5019 38.1032 44.8589C37.8273 44.4499 37.6422 43.9865 37.5602 43.4999C37.5257 43.229 37.5257 42.9548 37.5602 42.6839C37.574 42.5495 37.597 42.4162 37.6292 42.2849L37.6772 42.0899L37.7162 41.9729C37.9082 41.3579 38.1092 40.7519 38.3432 40.1729C38.7957 39.0071 39.3064 37.8647 39.8732 36.7499C40.1522 36.1949 40.4432 35.6459 40.7492 35.1089C41.0552 34.5719 41.3492 34.0409 41.7062 33.4919L44.5322 35.2409Z" fill="#FFC3BD"/>
<path d="M41.6163 45.5791L43.1943 45.1681L43.2843 47.7151C43.2843 47.7151 42.0513 47.8981 41.2953 47.1421L41.6163 45.5791Z" fill="#FFC3BD"/>
<path d="M45.4266 44.7389L45.0726 46.9739L43.2846 47.7149L43.1946 45.1679L45.4266 44.7389Z" fill="#FFC3BD"/>
<path d="M51.9482 23.2471C51.9812 23.4211 52.1042 23.5471 52.2182 23.5201C52.3322 23.4931 52.3952 23.3371 52.3592 23.1631C52.3232 22.9891 52.2032 22.8631 52.0892 22.8901C51.9752 22.9171 51.9002 23.0731 51.9482 23.2471Z" fill="#263238"/>
<path d="M52.0864 23.5469C52.4036 24.0365 52.7862 24.4806 53.2234 24.8669C53.1218 24.9764 52.9974 25.0624 52.8591 25.1189C52.7207 25.1754 52.5717 25.201 52.4224 25.1939L52.0864 23.5469Z" fill="#ED847E"/>
<path d="M51.1145 22.4101C51.088 22.4103 51.0623 22.4007 51.0425 22.3831C51.0232 22.3635 51.0125 22.3371 51.0125 22.3096C51.0125 22.2822 51.0232 22.2558 51.0425 22.2361C51.1531 22.1096 51.2928 22.0118 51.4496 21.9512C51.6063 21.8906 51.7755 21.8689 51.9425 21.8881C51.9699 21.8929 51.9943 21.9084 52.0104 21.9312C52.0264 21.954 52.0327 21.9822 52.028 22.0096C52.0232 22.0371 52.0077 22.0615 51.9849 22.0776C51.9621 22.0936 51.9339 22.0999 51.9065 22.0951C51.7759 22.0832 51.6444 22.1026 51.5229 22.1516C51.4013 22.2007 51.2932 22.278 51.2075 22.3771C51.1957 22.3896 51.1811 22.3991 51.165 22.4049C51.1488 22.4106 51.1315 22.4124 51.1145 22.4101Z" fill="#263238"/>
<path d="M46.9865 25.698C47.2865 27.309 47.6165 30.264 46.4885 31.341C46.4885 31.341 46.9295 32.976 49.9265 32.976C53.2265 32.976 51.4985 31.341 51.4985 31.341C49.6985 30.912 49.7495 29.577 50.0615 28.323L46.9865 25.698Z" fill="#FFC3BD"/>
<path d="M45.8372 31.6379C45.5972 31.1909 45.3332 30.6779 45.8822 30.5189C46.4822 30.3419 50.3612 30.0149 51.5012 30.3449C51.1502 30.9689 51.7442 31.7339 51.7442 31.7339L45.8372 31.6379Z" fill="#263238"/>
<path d="M36.0781 106.8C36.167 106.832 36.2613 106.845 36.3556 106.84C36.4498 106.835 36.5421 106.811 36.6271 106.77C36.6599 106.74 36.6825 106.7 36.6916 106.657C36.7008 106.613 36.696 106.568 36.6781 106.527C36.6684 106.493 36.6512 106.462 36.6279 106.435C36.6045 106.409 36.5755 106.388 36.5431 106.374C36.2431 106.23 35.5621 106.509 35.5321 106.521C35.5231 106.526 35.5156 106.532 35.5103 106.541C35.505 106.549 35.5021 106.559 35.5021 106.569C35.5006 106.579 35.5025 106.589 35.5074 106.598C35.5123 106.606 35.5199 106.613 35.5291 106.617C35.7051 106.697 35.8891 106.759 36.0781 106.8ZM36.4381 106.446L36.4981 106.467C36.5174 106.475 36.5347 106.487 36.5487 106.503C36.5627 106.518 36.5731 106.537 36.5791 106.557C36.6061 106.65 36.5791 106.68 36.5581 106.689C36.4411 106.791 36.0001 106.689 35.6911 106.572C35.9284 106.478 36.1833 106.437 36.4381 106.452V106.446Z" fill="#F39712"/>
<path d="M35.5415 106.626H35.5685C35.8175 106.554 36.3515 106.173 36.3575 105.924C36.3576 105.885 36.3443 105.847 36.3197 105.816C36.2952 105.785 36.2608 105.764 36.2225 105.756C36.1847 105.743 36.1448 105.739 36.1051 105.742C36.0655 105.745 36.0268 105.756 35.9915 105.774C35.6915 105.924 35.5115 106.536 35.5025 106.56C35.4977 106.568 35.4951 106.576 35.4951 106.585C35.4951 106.594 35.4977 106.603 35.5025 106.611C35.5071 106.617 35.5131 106.621 35.52 106.624C35.5268 106.626 35.5342 106.627 35.5415 106.626ZM36.1655 105.846H36.1895C36.2525 105.867 36.2525 105.9 36.2525 105.912C36.2525 106.059 35.8955 106.356 35.6525 106.479C35.7216 106.237 35.8616 106.02 36.0545 105.858C36.0894 105.843 36.1281 105.839 36.1655 105.846Z" fill="#F39712"/>
<path d="M52.3502 107.175C52.6322 107.175 52.9052 107.136 52.9982 107.01C53.0224 106.976 53.0354 106.936 53.0354 106.894C53.0354 106.853 53.0224 106.813 52.9982 106.779C52.9803 106.749 52.9565 106.723 52.9281 106.702C52.8997 106.681 52.8675 106.667 52.8332 106.659C52.4672 106.56 51.6962 106.998 51.6632 107.016C51.6544 107.022 51.6475 107.03 51.6432 107.039C51.6389 107.049 51.6376 107.06 51.6392 107.07C51.641 107.08 51.646 107.09 51.6535 107.098C51.661 107.105 51.6707 107.11 51.6812 107.112C51.9018 107.153 52.1258 107.175 52.3502 107.175ZM52.7012 106.746C52.7342 106.743 52.7673 106.743 52.8002 106.746C52.8427 106.757 52.8793 106.784 52.9022 106.821C52.9412 106.884 52.9262 106.917 52.9022 106.935C52.7972 107.079 52.2422 107.082 51.8312 107.022C52.1011 106.876 52.3964 106.782 52.7012 106.746Z" fill="#F39712"/>
<path d="M51.6845 107.115H51.7055C51.9725 106.995 52.5005 106.515 52.4585 106.269C52.4585 106.212 52.4075 106.14 52.2635 106.125C52.2099 106.117 52.1552 106.121 52.1033 106.136C52.0515 106.152 52.0037 106.179 51.9635 106.215C51.6815 106.443 51.6245 107.037 51.6215 107.064C51.6202 107.073 51.6215 107.082 51.6252 107.09C51.6289 107.098 51.6349 107.104 51.6425 107.109C51.6553 107.116 51.6702 107.118 51.6845 107.115ZM52.2215 106.215H52.2545C52.3475 106.215 52.3535 106.263 52.3565 106.275C52.3805 106.425 52.0205 106.8 51.7565 106.962C51.7837 106.709 51.8885 106.472 52.0565 106.281C52.1034 106.243 52.1614 106.222 52.2215 106.221V106.215Z" fill="#F39712"/>
<path d="M49.2601 107.061H51.4651L51.6841 101.958H49.4791L49.2601 107.061Z" fill="#FFC3BD"/>
<path d="M33.0841 106.041L35.2381 106.506L37.4011 101.754L35.2471 101.289L33.0841 106.041Z" fill="#FFC3BD"/>
<path d="M35.4455 106.29L33.0275 105.768C32.9845 105.757 32.9392 105.762 32.8996 105.782C32.86 105.802 32.8287 105.835 32.8115 105.876L31.9715 107.697C31.9511 107.741 31.941 107.79 31.942 107.839C31.943 107.888 31.955 107.936 31.9773 107.979C31.9995 108.023 32.0313 108.061 32.0703 108.09C32.1093 108.12 32.1545 108.14 32.2025 108.15C33.0515 108.318 33.4715 108.357 34.5365 108.588C35.1905 108.729 36.6695 109.089 37.5725 109.284C38.4755 109.479 38.7905 108.612 38.4365 108.45C36.8555 107.727 36.1955 107.091 35.7665 106.5C35.6892 106.393 35.5748 106.318 35.4455 106.29Z" fill="#263238"/>
<path d="M51.4505 106.8H49.0505C49.0068 106.8 48.9643 106.815 48.93 106.842C48.8958 106.869 48.8716 106.907 48.8615 106.95L48.4265 108.909C48.4156 108.956 48.4156 109.006 48.4266 109.053C48.4375 109.101 48.4592 109.145 48.4898 109.183C48.5204 109.221 48.5593 109.251 48.6034 109.272C48.6476 109.292 48.6958 109.303 48.7445 109.302C49.6115 109.287 50.8655 109.236 51.9575 109.236C53.2325 109.236 54.3365 109.305 55.8335 109.305C56.7335 109.305 56.9885 108.39 56.6105 108.309C54.8855 107.931 53.4785 107.892 51.9875 106.971C51.8279 106.865 51.6419 106.806 51.4505 106.8Z" fill="#263238"/>
<path d="M42.5435 31.839C40.4765 32.313 38.7725 37.584 38.7725 37.584L42.9215 40.746C43.996 39.6033 44.754 38.2001 45.1205 36.675C45.8315 33.9 44.6555 31.353 42.5435 31.839Z" fill="#F39712"/>
<path opacity="0.2" d="M44.313 35.7151C43.191 36.8251 42.813 38.8471 42.738 40.6051L42.921 40.7461C43.9956 39.6018 44.7544 38.1979 45.123 36.6721C45.165 36.5071 45.201 36.3421 45.231 36.1801L44.313 35.7151Z" fill="black"/>
<path d="M54.9005 31.953C54.9005 31.953 56.5925 33.609 55.9535 42.414C55.7855 44.742 54.8945 47.571 54.4325 51H44.1335C44.0495 49.2 44.2865 40.365 42.5435 31.839C43.8503 31.5876 45.1721 31.4212 46.5005 31.341C48.1691 31.2449 49.8418 31.2449 51.5105 31.341C52.6547 31.4563 53.7881 31.6609 54.9005 31.953Z" fill="#263238"/>
<path opacity="0.6" d="M56.0824 39.324C55.8874 38.046 55.6804 36.9241 55.4824 35.9641L55.4164 35.925L52.1884 37.278C52.3444 39.285 54.4654 41.31 55.9414 42.495C55.9414 42.468 55.9414 42.438 55.9414 42.4141C56.0254 41.265 56.0674 40.242 56.0824 39.324Z" fill="black"/>
<path opacity="0.2" d="M51.6845 101.958L51.5705 104.589H49.3655L49.4795 101.958H51.6845Z" fill="black"/>
<path opacity="0.2" d="M35.2476 101.289L37.4016 101.754L36.2856 104.205L34.1316 103.74L35.2476 101.289Z" fill="black"/>
<path d="M46.0624 24.06C46.6294 26.16 46.8514 27.438 48.1624 28.317C50.1244 29.637 52.5634 28.122 52.6414 25.881C52.7104 23.865 51.7714 20.748 49.5064 20.325C49.0065 20.227 48.4898 20.2587 48.0056 20.4171C47.5213 20.5755 47.0858 20.8553 46.7404 21.2298C46.3951 21.6044 46.1514 22.0611 46.0327 22.5566C45.914 23.052 45.9243 23.5696 46.0624 24.06Z" fill="#FFC3BD"/>
<path d="M50.8384 51.0001C50.8384 51.0001 48.3364 67.8451 46.9654 74.1541C45.4654 81.0541 37.3984 103.926 37.3984 103.926L33.4534 103.071C33.4534 103.071 39.0904 84.4411 40.3534 74.7811C40.9144 70.4761 40.9954 63.1651 41.7184 57.7831C42.06 55.383 42.8813 53.0761 44.1334 51.0001H50.8384Z" fill="#263238"/>
<path d="M38.3435 102.6L37.6085 104.025L33.1685 103.065L33.5435 101.73L38.3435 102.6Z" fill="#F39712"/>
<path opacity="0.6" d="M49.2573 57.0001C46.3653 57.5671 46.6713 68.3521 47.0193 73.8991C47.8533 69.9781 49.0743 62.4331 49.9083 57.0781C49.7065 56.9787 49.4768 56.9511 49.2573 57.0001Z" fill="black"/>
<path d="M54.42 51.0001C54.42 51.0001 55.32 67.4791 55.083 74.1991C54.834 81.1921 52.383 104.079 52.383 104.079H48.66C48.66 104.079 48.522 81.6001 48.36 74.7331C48.177 67.2481 47.274 51.0001 47.274 51.0001H54.42Z" fill="#263238"/>
<path d="M53.1003 102.6C53.1153 102.6 52.8873 104.148 52.8873 104.148H48.3573L48.2373 102.765L53.1003 102.6Z" fill="#F39712"/>
<path d="M55.9774 33.963C56.3164 34.491 56.7004 35.082 57.0874 35.631C57.4744 36.18 57.8734 36.735 58.2874 37.266C59.0713 38.3182 59.9457 39.2999 60.9004 40.2C61.1314 40.413 61.3684 40.611 61.6084 40.8L61.7884 40.935C61.7555 40.9176 61.7201 40.9054 61.6834 40.899C61.6054 40.884 61.5664 40.899 61.5874 40.899C61.7641 40.912 61.9411 40.8778 62.1004 40.8C62.3625 40.6874 62.6161 40.556 62.8594 40.407C63.9767 39.6703 65.0358 38.8489 66.0274 37.95L67.3144 38.991C66.5338 40.3009 65.5621 41.4869 64.4314 42.51C64.1105 42.793 63.7651 43.047 63.3994 43.269C62.9375 43.5565 62.4221 43.7474 61.8844 43.83C61.2832 43.9159 60.6711 43.7863 60.1564 43.464L59.8954 43.299C59.5534 43.077 59.2264 42.843 58.9144 42.597C57.7268 41.6321 56.6439 40.5451 55.6834 39.354C55.2124 38.772 54.7594 38.184 54.3364 37.575C53.9134 36.966 53.5054 36.375 53.1094 35.679L55.9774 33.963Z" fill="#FFC3BD"/>
<path d="M51.6484 35.286C50.9434 38.241 56.2894 41.133 56.2894 41.133L59.7604 37.065C58.7183 35.5268 57.5308 34.0922 56.2144 32.781C53.7844 30.45 52.1824 33.036 51.6484 35.286Z" fill="#F39712"/>
<path d="M65.6735 38.553L66.4925 35.922L68.6495 36.996C68.6495 36.996 68.3345 38.916 66.7655 39.249L65.6735 38.553Z" fill="#FFC3BD"/>
<path d="M67.3561 35.1931L69.3031 35.7271L68.6491 36.9961L66.4921 35.9221L67.3561 35.1931Z" fill="#FFC3BD"/>
<path d="M48.3002 27.174C48.8602 27.0491 49.3727 26.7662 49.7768 26.3589C50.1809 25.9516 50.4597 25.4369 50.5802 24.876C50.5802 24.876 50.1002 23.61 51.0002 22.749C51.9002 21.888 51.4562 20.949 50.5562 20.772C49.6562 20.595 48.2762 21.672 48.2762 21.672L47.1782 23.64L47.6252 25.626L48.3002 27.174Z" fill="#263238"/>
<path opacity="0.3" d="M48.3002 27.174C48.8602 27.0491 49.3727 26.7662 49.7768 26.3589C50.1809 25.9516 50.4597 25.4369 50.5802 24.876C50.5802 24.876 50.1002 23.61 51.0002 22.749C51.9002 21.888 51.4562 20.949 50.5562 20.772C49.6562 20.595 48.2762 21.672 48.2762 21.672L47.1782 23.64L47.6252 25.626L48.3002 27.174Z" fill="white"/>
<path d="M49.6563 24.1471C49.8023 24.6736 50.1189 25.1368 50.5563 25.4641C51.1293 25.8901 51.5583 25.4641 51.5163 24.8221C51.4803 24.2221 51.1383 23.3221 50.5053 23.1361C49.8723 22.9501 49.5003 23.5141 49.6563 24.1471Z" fill="#FFC3BD"/>
<path d="M48.6004 26.5861C48.0634 25.3051 47.0734 21.9901 50.5714 20.7721C50.5714 20.7721 50.3164 17.5741 52.0174 18.8761C52.0174 18.8761 50.3914 16.8001 50.1664 18.9241C50.1664 18.9241 49.7674 18.2011 50.3674 17.7241C50.3674 17.7241 47.1664 16.6501 47.2414 19.0741C47.1531 18.8248 47.1275 18.5576 47.1667 18.296C47.2059 18.0345 47.3088 17.7866 47.4664 17.5741C47.4664 17.5741 46.7704 17.5321 46.4944 18.6301C46.2184 19.7281 43.5004 19.5001 43.7494 21.9991C43.7494 21.9991 41.3494 25.0171 47.1124 27.5941C47.1124 27.5941 46.3534 28.0621 46.7854 28.8091C46.8639 28.5471 46.9956 28.304 47.1721 28.095C47.3486 27.886 47.5662 27.7155 47.8114 27.5941C47.8114 27.5941 47.4364 28.4491 48.2374 28.7011C48.1575 28.4802 48.1373 28.242 48.1789 28.0108C48.2206 27.7795 48.3225 27.5634 48.4744 27.3841C48.5693 27.277 48.6317 27.1449 48.654 27.0035C48.6763 26.8621 48.6577 26.7173 48.6004 26.5861Z" fill="#263238"/>
<path opacity="0.1" d="M50.6613 27.9C49.8993 27.936 49.9443 28.68 49.9563 28.8C50.6168 28.7356 51.2353 28.4465 51.7083 27.981C51.4323 28.029 51.1383 27.879 50.6613 27.9Z" fill="black"/>
<path d="M50.2745 20.4511C50.2745 20.4511 50.6675 19.0021 51.4085 19.2901C52.1495 19.5781 51.6245 20.7511 52.0085 21.3001C51.8306 21.2243 51.6755 21.1033 51.5587 20.9491C51.4418 20.7949 51.3673 20.6129 51.3425 20.4211C51.2345 19.7371 50.5625 20.7721 50.5625 20.7721L50.2745 20.4511Z" fill="#263238"/>
<path d="M50.565 26.2531L51.279 25.4341L51.006 25.1941H50.121L49.848 25.4341L50.565 26.2531Z" fill="#F39712"/>
<path opacity="0.2" d="M50.466 25.1941H50.121L49.848 25.4341L50.565 26.2531L50.193 25.4341L50.466 25.1941Z" fill="white"/>
</svg>
