<svg width="159" height="134" viewBox="0 0 159 134" fill="none" xmlns="http://www.w3.org/2000/svg">
<g filter="url(#filter0_d_704_2616)">
<path d="M126.88 121.841L99.752 114.887H125.361L153.107 121.841H126.88Z" fill="#F39712"/>
<path d="M30.2273 121.841L57.355 114.887H31.7499L4 121.841H30.2273Z" fill="#F39712"/>
<path d="M79.8054 92.9128C79.8054 92.9128 79.7798 92.7847 79.7395 92.5468" stroke="#2E353A" stroke-width="0.5" stroke-miterlimit="10"/>
<path d="M79.6188 91.8295C79.2272 89.2931 78.5647 82.965 81.0498 80.1395C84.2011 76.5638 87.9781 79.6271 98.5042 80.1395C109.03 80.6519 114.447 79.1184 114.557 70.0929C114.667 61.0675 108.492 60.4709 108.492 60.4709H104.591" stroke="#2E353A" stroke-width="0.5" stroke-miterlimit="10" stroke-dasharray="2.01 2.01"/>
<path d="M104.221 60.4857H103.855" stroke="#2E353A" stroke-width="0.5" stroke-miterlimit="10"/>
<path d="M103.855 32.7612H104.221" stroke="#2E353A" stroke-width="0.5" stroke-miterlimit="10"/>
<path d="M104.953 32.7612H118.129C118.129 32.7612 122.1 33.1053 121.935 37.6875C121.771 42.2698 115.164 46.563 115.585 55.7129C116.006 64.8628 131.62 63.4976 133.746 72.6585C135.873 81.8194 120.252 81.3619 118.799 86.0906C118.342 87.1507 118.117 88.2963 118.14 89.4504C118.14 90.9876 118.14 94.6403 118.14 96.2031" stroke="#2E353A" stroke-width="0.5" stroke-miterlimit="10" stroke-dasharray="2 2"/>
<path d="M118.14 96.5729V96.9389" stroke="#2E353A" stroke-width="0.5" stroke-miterlimit="10"/>
<path d="M55.3531 6.82678H54.9871" stroke="#2E353A" stroke-width="0.5" stroke-miterlimit="10"/>
<path d="M54.2591 6.82692H47.8066C47.8066 6.82692 30.2388 6.62562 30.2388 21.4668C30.2388 28.3365 32.6251 33.4715 39.6961 41.9113C46.7672 50.3512 46.6501 76.7323 44.3516 81.4646C42.0531 86.1969 37.1781 85.4906 35.4652 88.0525C35.4652 88.0525 34.2318 89.3445 34.1257 90.922C34.0415 92.1627 34.0891 96.2289 34.1257 97.8978" stroke="#2E353A" stroke-width="0.5" stroke-miterlimit="10" stroke-dasharray="1.99 1.99"/>
<path d="M34.1069 98.2822C34.1069 98.5127 34.1069 98.6482 34.1069 98.6482" stroke="#2E353A" stroke-width="0.5" stroke-miterlimit="10"/>
<path d="M59.3024 25.9356C58.5118 25.9368 57.7354 26.1464 57.0516 26.5432C57.1147 26.1917 57.1466 25.8353 57.1467 25.4781C57.1479 23.927 56.5697 22.4314 55.5255 21.2845C54.4813 20.1375 53.0463 19.422 51.5018 19.2781C49.9574 19.1343 48.415 19.5725 47.1768 20.5068C45.9387 21.4411 45.0943 22.8043 44.809 24.3289C44.058 24.0548 43.2562 23.948 42.4597 24.0161C41.6631 24.0841 40.891 24.3252 40.1974 24.7227C39.5037 25.1201 38.9053 25.6643 38.4438 26.3171C37.9823 26.9699 37.669 27.7156 37.5257 28.5021C37.3824 29.2886 37.4126 30.0969 37.6142 30.8705C37.8158 31.6441 38.1839 32.3643 38.6928 32.9809C39.2017 33.5974 39.8391 34.0954 40.5605 34.4399C41.2819 34.7845 42.0698 34.9674 42.8692 34.9757H59.3061C60.5049 34.9757 61.6546 34.4995 62.5023 33.6518C63.3499 32.8042 63.8261 31.6545 63.8261 30.4557C63.8261 29.2569 63.3499 28.1072 62.5023 27.2595C61.6546 26.4118 60.5049 25.9356 59.3061 25.9356H59.3024Z" fill="white" stroke="#2E353A" stroke-width="0.5" stroke-miterlimit="10"/>
<path d="M128.787 44.3012C127.944 44.3016 127.116 44.5238 126.386 44.9453C126.45 44.5718 126.483 44.1935 126.485 43.8144C126.485 42.1635 125.869 40.5719 124.757 39.3514C123.645 38.131 122.118 37.3697 120.474 37.2167C118.83 37.0638 117.188 37.5301 115.87 38.5244C114.553 39.5187 113.653 40.9693 113.349 42.592C112.547 42.2943 111.69 42.176 110.837 42.2453C109.985 42.3146 109.158 42.5698 108.414 42.993C107.671 43.4163 107.029 43.9972 106.534 44.695C106.04 45.3928 105.704 46.1905 105.55 47.032C105.397 47.8735 105.43 48.7384 105.647 49.5659C105.863 50.3934 106.259 51.1633 106.805 51.8216C107.351 52.4798 108.035 53.0104 108.808 53.3761C109.582 53.7417 110.426 53.9334 111.281 53.9379H128.787C130.063 53.9379 131.287 53.4308 132.19 52.5282C133.093 51.6256 133.6 50.4015 133.6 49.125C133.6 47.8486 133.093 46.6244 132.19 45.7218C131.287 44.8192 130.063 44.3122 128.787 44.3122V44.3012Z" fill="white" stroke="#2E353A" stroke-width="0.5" stroke-miterlimit="10"/>
<path d="M125.676 55.1641H127.14" stroke="#2E353A" stroke-width="0.5" stroke-linecap="round" stroke-linejoin="round"/>
<path d="M118.539 55.1641H123.663" stroke="#2E353A" stroke-width="0.5" stroke-linecap="round" stroke-linejoin="round"/>
<path d="M113.693 37.4828C114.442 36.853 115.368 36.4695 116.343 36.3848" stroke="#2E353A" stroke-width="0.5" stroke-linecap="round" stroke-linejoin="round"/>
<path d="M111.951 40.1582C112.083 39.5794 112.332 39.0339 112.683 38.5551" stroke="#2E353A" stroke-width="0.5" stroke-linecap="round" stroke-linejoin="round"/>
<path d="M56.3744 66.583C55.1073 66.5839 53.8626 66.9184 52.7657 67.5529C52.866 66.9911 52.9162 66.4216 52.9158 65.851C52.9176 63.3695 51.9922 60.9769 50.3212 59.1424C48.6502 57.3079 46.3541 56.1639 43.8832 55.9348C41.4123 55.7057 38.945 56.408 36.9651 57.9039C34.9853 59.3998 33.6358 61.5815 33.1812 64.021C31.9793 63.5799 30.6954 63.4069 29.4195 63.5142C28.1437 63.6214 26.9067 64.0063 25.7952 64.6418C24.6837 65.2774 23.7245 66.1482 22.985 67.1933C22.2454 68.2385 21.7432 69.4327 21.5137 70.6923C21.2841 71.9519 21.3327 73.2465 21.656 74.4854C21.9793 75.7242 22.5696 76.8774 23.3854 77.8642C24.2012 78.851 25.2229 79.6475 26.3789 80.198C27.5349 80.7484 28.7973 81.0395 30.0776 81.0508H56.3744C58.2639 81.0083 60.0616 80.2279 61.3828 78.8766C62.7041 77.5253 63.4439 75.7104 63.4439 73.8205C63.4439 71.9307 62.7041 70.1158 61.3828 68.7645C60.0616 67.4132 58.2639 66.6328 56.3744 66.5903V66.583Z" fill="white" stroke="#2E353A" stroke-width="0.5" stroke-miterlimit="10"/>
<path d="M23.325 80.3154C23.6932 80.5598 24.0785 80.7775 24.4778 80.9668" stroke="#2E353A" stroke-width="0.5" stroke-linecap="round" stroke-linejoin="round"/>
<path d="M20.4519 76.9407C20.8024 77.7742 21.3121 78.5313 21.9525 79.1697" stroke="#2E353A" stroke-width="0.5" stroke-linecap="round" stroke-linejoin="round"/>
<path d="M36.6765 55.3469C38.1967 54.3008 40.0199 53.7862 41.8627 53.8829" stroke="#2E353A" stroke-width="0.5" stroke-linecap="round" stroke-linejoin="round"/>
<path d="M35.0916 56.811C35.3467 56.4777 35.6362 56.1722 35.9553 55.8997" stroke="#2E353A" stroke-width="0.5" stroke-linecap="round" stroke-linejoin="round"/>
<path d="M103.855 30.7374H102.116V35.3343H103.855V30.7374Z" fill="#2E353A" stroke="#2E353A" stroke-width="0.5" stroke-miterlimit="10"/>
<path d="M103.855 57.8541H102.116V62.451H103.855V57.8541Z" fill="#2E353A" stroke="#2E353A" stroke-width="0.5" stroke-miterlimit="10"/>
<path d="M57.0915 4.14056H55.353V8.73748H57.0915V4.14056Z" fill="#2E353A" stroke="#2E353A" stroke-width="0.5" stroke-miterlimit="10"/>
<path d="M57.0915 44.4697H55.353V49.0666H57.0915V44.4697Z" fill="#2E353A" stroke="#2E353A" stroke-width="0.5" stroke-miterlimit="10"/>
<path d="M102.687 1.59668H56.9268V11.5079H102.687V1.59668Z" fill="white" stroke="#2E353A" stroke-width="0.5" stroke-miterlimit="10"/>
<path d="M90.6641 4.12579H59.1262V8.97891H90.6641V4.12579Z" fill="#F39712" stroke="#2E353A" stroke-width="0.5" stroke-miterlimit="10"/>
<path d="M94.9353 7.56265C95.6104 7.56265 96.1577 7.01535 96.1577 6.34023C96.1577 5.6651 95.6104 5.1178 94.9353 5.1178C94.2602 5.1178 93.7129 5.6651 93.7129 6.34023C93.7129 7.01535 94.2602 7.56265 94.9353 7.56265Z" fill="white" stroke="#2E353A" stroke-width="0.5" stroke-miterlimit="10"/>
<path d="M100.949 6.34023C100.949 6.09845 100.877 5.86211 100.743 5.66108C100.608 5.46005 100.418 5.30337 100.194 5.21085C99.9708 5.11833 99.725 5.09412 99.4878 5.14129C99.2507 5.18845 99.0329 5.30488 98.8619 5.47584C98.691 5.6468 98.5746 5.86461 98.5274 6.10174C98.4802 6.33887 98.5044 6.58466 98.597 6.80803C98.6895 7.0314 98.8462 7.22231 99.0472 7.35664C99.2482 7.49096 99.4846 7.56265 99.7263 7.56265C100.051 7.56265 100.361 7.43386 100.591 7.20461C100.82 6.97536 100.949 6.66443 100.949 6.34023Z" fill="#F39712" stroke="#2E353A" stroke-width="0.5" stroke-miterlimit="10"/>
<path d="M87.8023 7.56265C88.4774 7.56265 89.0247 7.01535 89.0247 6.34023C89.0247 5.6651 88.4774 5.1178 87.8023 5.1178C87.1271 5.1178 86.5798 5.6651 86.5798 6.34023C86.5798 7.01535 87.1271 7.56265 87.8023 7.56265Z" fill="white" stroke="#2E353A" stroke-width="0.5" stroke-miterlimit="10"/>
<path d="M100.952 11.5079H58.665V14.9007H100.952V11.5079Z" fill="#2E353A" stroke="#2E353A" stroke-width="0.5" stroke-miterlimit="10"/>
<path d="M102.687 14.9008H56.9268V24.8119H102.687V14.9008Z" fill="white" stroke="#2E353A" stroke-width="0.5" stroke-miterlimit="10"/>
<path d="M90.6641 17.4299H59.1262V22.283H90.6641V17.4299Z" fill="#F39712" stroke="#2E353A" stroke-width="0.5" stroke-miterlimit="10"/>
<path d="M94.9353 20.8702C95.6104 20.8702 96.1577 20.3229 96.1577 19.6478C96.1577 18.9727 95.6104 18.4254 94.9353 18.4254C94.2602 18.4254 93.7129 18.9727 93.7129 19.6478C93.7129 20.3229 94.2602 20.8702 94.9353 20.8702Z" fill="#F39712" stroke="#2E353A" stroke-width="0.5" stroke-miterlimit="10"/>
<path d="M100.949 19.6478C100.949 19.406 100.877 19.1697 100.743 18.9686C100.608 18.7676 100.418 18.6109 100.194 18.5184C99.9708 18.4259 99.725 18.4017 99.4878 18.4488C99.2507 18.496 99.0329 18.6124 98.8619 18.7834C98.691 18.9544 98.5746 19.1722 98.5274 19.4093C98.4802 19.6464 98.5044 19.8922 98.597 20.1156C98.6895 20.339 98.8462 20.5299 99.0472 20.6642C99.2482 20.7985 99.4846 20.8702 99.7263 20.8702C99.887 20.8707 100.046 20.8394 100.195 20.7781C100.343 20.7169 100.478 20.6269 100.592 20.5132C100.705 20.3996 100.795 20.2647 100.857 20.1162C100.918 19.9676 100.949 19.8085 100.949 19.6478Z" fill="white" stroke="#2E353A" stroke-width="0.5" stroke-miterlimit="10"/>
<path d="M87.8023 20.8702C88.4774 20.8702 89.0247 20.3229 89.0247 19.6478C89.0247 18.9727 88.4774 18.4254 87.8023 18.4254C87.1271 18.4254 86.5798 18.9727 86.5798 19.6478C86.5798 20.3229 87.1271 20.8702 87.8023 20.8702Z" fill="white" stroke="#2E353A" stroke-width="0.5" stroke-miterlimit="10"/>
<path d="M100.952 24.8157H58.665V28.2085H100.952V24.8157Z" fill="#2E353A" stroke="#2E353A" stroke-width="0.5" stroke-miterlimit="10"/>
<path d="M102.687 28.2084H56.9268V38.1196H102.687V28.2084Z" fill="white" stroke="#2E353A" stroke-width="0.5" stroke-miterlimit="10"/>
<path d="M90.6641 30.7374H59.1262V35.5905H90.6641V30.7374Z" fill="#F39712" stroke="#2E353A" stroke-width="0.5" stroke-miterlimit="10"/>
<path d="M94.9353 34.1743C95.6104 34.1743 96.1577 33.627 96.1577 32.9519C96.1577 32.2767 95.6104 31.7294 94.9353 31.7294C94.2602 31.7294 93.7129 32.2767 93.7129 32.9519C93.7129 33.627 94.2602 34.1743 94.9353 34.1743Z" fill="white" stroke="#2E353A" stroke-width="0.5" stroke-miterlimit="10"/>
<path d="M100.949 32.9519C100.949 32.7101 100.877 32.4737 100.743 32.2727C100.608 32.0717 100.418 31.915 100.194 31.8225C99.9708 31.73 99.725 31.7058 99.4878 31.7529C99.2507 31.8001 99.0329 31.9165 98.8619 32.0875C98.691 32.2584 98.5746 32.4762 98.5274 32.7134C98.4802 32.9505 98.5044 33.1963 98.597 33.4197C98.6895 33.643 98.8462 33.834 99.0472 33.9683C99.2482 34.1026 99.4846 34.1743 99.7263 34.1743C100.051 34.1743 100.361 34.0455 100.591 33.8162C100.82 33.587 100.949 33.2761 100.949 32.9519Z" fill="#F39712" stroke="#2E353A" stroke-width="0.5" stroke-miterlimit="10"/>
<path d="M87.8023 34.1743C88.4774 34.1743 89.0247 33.627 89.0247 32.9519C89.0247 32.2767 88.4774 31.7294 87.8023 31.7294C87.1271 31.7294 86.5798 32.2767 86.5798 32.9519C86.5798 33.627 87.1271 34.1743 87.8023 34.1743Z" fill="white" stroke="#2E353A" stroke-width="0.5" stroke-miterlimit="10"/>
<path d="M100.952 38.1195H58.665V41.5123H100.952V38.1195Z" fill="#2E353A" stroke="#2E353A" stroke-width="0.5" stroke-miterlimit="10"/>
<path d="M102.687 41.5124H56.9268V51.4236H102.687V41.5124Z" fill="white" stroke="#2E353A" stroke-width="0.5" stroke-miterlimit="10"/>
<path d="M90.6641 44.0415H59.1262V48.8946H90.6641V44.0415Z" fill="#F39712" stroke="#2E353A" stroke-width="0.5" stroke-miterlimit="10"/>
<path d="M94.9353 47.4819C95.6104 47.4819 96.1577 46.9346 96.1577 46.2595C96.1577 45.5843 95.6104 45.037 94.9353 45.037C94.2602 45.037 93.7129 45.5843 93.7129 46.2595C93.7129 46.9346 94.2602 47.4819 94.9353 47.4819Z" fill="#F39712" stroke="#2E353A" stroke-width="0.5" stroke-miterlimit="10"/>
<path d="M100.949 46.2595C100.949 46.0177 100.877 45.7814 100.743 45.5803C100.608 45.3793 100.418 45.2226 100.194 45.1301C99.9708 45.0376 99.725 45.0134 99.4878 45.0605C99.2507 45.1077 99.0329 45.2241 98.8619 45.3951C98.691 45.566 98.5746 45.7839 98.5274 46.021C98.4802 46.2581 98.5044 46.5039 98.597 46.7273C98.6895 46.9507 98.8462 47.1416 99.0472 47.2759C99.2482 47.4102 99.4846 47.4819 99.7263 47.4819C99.887 47.4824 100.046 47.4511 100.195 47.3898C100.343 47.3286 100.478 47.2386 100.592 47.1249C100.705 47.0113 100.795 46.8764 100.857 46.7279C100.918 46.5793 100.949 46.4201 100.949 46.2595Z" fill="white" stroke="#2E353A" stroke-width="0.5" stroke-miterlimit="10"/>
<path d="M87.8023 47.4819C88.4774 47.4819 89.0247 46.9346 89.0247 46.2595C89.0247 45.5843 88.4774 45.037 87.8023 45.037C87.1271 45.037 86.5798 45.5843 86.5798 46.2595C86.5798 46.9346 87.1271 47.4819 87.8023 47.4819Z" fill="white" stroke="#2E353A" stroke-width="0.5" stroke-miterlimit="10"/>
<path d="M100.952 51.4271H58.665V54.8199H100.952V51.4271Z" fill="#2E353A" stroke="#2E353A" stroke-width="0.5" stroke-miterlimit="10"/>
<path d="M102.687 54.82H56.9268V64.7312H102.687V54.82Z" fill="white" stroke="#2E353A" stroke-width="0.5" stroke-miterlimit="10"/>
<path d="M90.6641 57.3491H59.1262V62.2022H90.6641V57.3491Z" fill="#F39712" stroke="#2E353A" stroke-width="0.5" stroke-miterlimit="10"/>
<path d="M94.9353 60.7856C95.6104 60.7856 96.1577 60.2383 96.1577 59.5632C96.1577 58.8881 95.6104 58.3408 94.9353 58.3408C94.2602 58.3408 93.7129 58.8881 93.7129 59.5632C93.7129 60.2383 94.2602 60.7856 94.9353 60.7856Z" fill="white" stroke="#2E353A" stroke-width="0.5" stroke-miterlimit="10"/>
<path d="M100.949 59.5632C100.949 59.3214 100.877 59.0851 100.743 58.884C100.608 58.683 100.418 58.5263 100.194 58.4338C99.9708 58.3413 99.725 58.3171 99.4878 58.3642C99.2507 58.4114 99.0329 58.5278 98.8619 58.6988C98.691 58.8698 98.5746 59.0876 98.5274 59.3247C98.4802 59.5618 98.5044 59.8076 98.597 60.031C98.6895 60.2544 98.8462 60.4453 99.0472 60.5796C99.2482 60.7139 99.4846 60.7856 99.7263 60.7856C100.051 60.7856 100.361 60.6568 100.591 60.4276C100.82 60.1983 100.949 59.8874 100.949 59.5632Z" fill="#F39712" stroke="#2E353A" stroke-width="0.5" stroke-miterlimit="10"/>
<path d="M87.8023 60.7856C88.4774 60.7856 89.0247 60.2383 89.0247 59.5632C89.0247 58.8881 88.4774 58.3408 87.8023 58.3408C87.1271 58.3408 86.5798 58.8881 86.5798 59.5632C86.5798 60.2383 87.1271 60.7856 87.8023 60.7856Z" fill="white" stroke="#2E353A" stroke-width="0.5" stroke-miterlimit="10"/>
<path d="M82.854 0.264526H85.416" stroke="#2E353A" stroke-width="0.5" stroke-linecap="round" stroke-linejoin="round"/>
<path d="M65.1033 0.264526H79.9261" stroke="#2E353A" stroke-width="0.5" stroke-linecap="round" stroke-linejoin="round"/>
<path d="M55.0383 60.4709V62.3009" stroke="#2E353A" stroke-width="0.5" stroke-linecap="round" stroke-linejoin="round"/>
<path d="M55.0383 54.7982V58.6411" stroke="#2E353A" stroke-width="0.5" stroke-linecap="round" stroke-linejoin="round"/>
<path d="M122.532 20.9763L119.97 15.9072C119.955 15.8718 119.934 15.8398 119.906 15.813C119.879 15.7863 119.847 15.7655 119.811 15.7519C119.775 15.7384 119.737 15.7323 119.699 15.7341C119.661 15.7359 119.623 15.7455 119.589 15.7624C119.555 15.7793 119.524 15.8031 119.5 15.8322C119.475 15.8614 119.457 15.8953 119.446 15.9319C119.435 15.9685 119.431 16.007 119.436 16.0449C119.44 16.0829 119.453 16.1195 119.472 16.1524L121.92 21.2764C121.87 21.3281 121.835 21.3929 121.82 21.4634C121.804 21.5338 121.809 21.6072 121.833 21.6753L124.424 26.5321C124.493 26.6712 124.713 26.7005 124.922 26.598C125.13 26.4955 125.24 26.3015 125.171 26.1661L122.901 21.1483C122.864 21.0862 122.808 21.0367 122.743 21.006C122.677 20.9754 122.603 20.965 122.532 20.9763Z" fill="#2E353A"/>
<path d="M136.718 20.9763L139.298 15.9072C139.33 15.8418 139.386 15.7915 139.454 15.7675C139.523 15.7435 139.598 15.7477 139.664 15.7791C139.728 15.8121 139.777 15.8685 139.801 15.9366C139.825 16.0047 139.822 16.0793 139.792 16.1451L137.34 21.2691C137.391 21.3201 137.426 21.3853 137.441 21.4563C137.455 21.5273 137.448 21.601 137.42 21.668L134.829 26.5248C134.76 26.6639 134.536 26.6931 134.331 26.5907C134.126 26.4882 134.013 26.2942 134.079 26.1588L136.352 21.141C136.39 21.0808 136.445 21.0332 136.51 21.004C136.575 20.9747 136.647 20.9651 136.718 20.9763Z" fill="#2E353A"/>
<path d="M137.699 26.7517H121.606L122.813 24.7021H136.491L137.699 26.7517Z" fill="white" stroke="#2E353A" stroke-width="0.5" stroke-linecap="round" stroke-linejoin="round"/>
<path d="M137.695 26.7519H121.606V28.8015H137.695V26.7519Z" fill="white" stroke="#2E353A" stroke-width="0.5" stroke-linecap="round" stroke-linejoin="round"/>
<path d="M129.372 28.2303H123.187C123.067 28.2293 122.953 28.1811 122.868 28.0961C122.784 28.0111 122.737 27.8962 122.737 27.7765C122.737 27.6571 122.784 27.5426 122.868 27.4581C122.953 27.3737 123.067 27.3263 123.187 27.3263H129.372C129.491 27.3263 129.606 27.3737 129.69 27.4581C129.775 27.5426 129.822 27.6571 129.822 27.7765C129.822 27.8962 129.775 28.0111 129.691 28.0961C129.606 28.1811 129.492 28.2293 129.372 28.2303Z" fill="white" stroke="#2E353A" stroke-width="0.5" stroke-miterlimit="10"/>
<path d="M133.116 28.1168C133.335 28.1168 133.512 27.9399 133.512 27.7216C133.512 27.5033 133.335 27.3263 133.116 27.3263C132.898 27.3263 132.721 27.5033 132.721 27.7216C132.721 27.9399 132.898 28.1168 133.116 28.1168Z" fill="white" stroke="#2E353A" stroke-width="0.5" stroke-miterlimit="10"/>
<path d="M135.151 27.7217C135.151 27.6428 135.128 27.5657 135.084 27.5001C135.04 27.4344 134.978 27.3833 134.905 27.3531C134.832 27.3229 134.752 27.315 134.675 27.3304C134.597 27.3458 134.526 27.3838 134.47 27.4396C134.415 27.4954 134.377 27.5665 134.361 27.6439C134.346 27.7213 134.354 27.8015 134.384 27.8744C134.414 27.9473 134.465 28.0096 134.531 28.0534C134.596 28.0972 134.674 28.1206 134.752 28.1206C134.805 28.1211 134.857 28.1111 134.906 28.0913C134.954 28.0714 134.998 28.042 135.036 28.0049C135.073 27.9677 135.102 27.9236 135.122 27.8749C135.142 27.8263 135.152 27.7742 135.151 27.7217Z" fill="white" stroke="#2E353A" stroke-width="0.5" stroke-miterlimit="10"/>
<path d="M136.392 28.1168C136.61 28.1168 136.787 27.9399 136.787 27.7216C136.787 27.5033 136.61 27.3263 136.392 27.3263C136.174 27.3263 135.997 27.5033 135.997 27.7216C135.997 27.9399 136.174 28.1168 136.392 28.1168Z" fill="white" stroke="#2E353A" stroke-width="0.5" stroke-miterlimit="10"/>
<path d="M143.32 15.2266C143.372 15.4782 143.398 15.7346 143.397 15.9915C143.397 16.0244 143.397 16.0537 143.397 16.0867" stroke="#2E353A" stroke-width="0.5" stroke-linecap="round" stroke-linejoin="round"/>
<path d="M137.508 12.8111C137.98 12.5002 138.516 12.2986 139.077 12.2212C139.637 12.1438 140.207 12.1924 140.746 12.3636C141.285 12.5347 141.779 12.8241 142.192 13.2105C142.605 13.5969 142.927 14.0707 143.133 14.5972" stroke="#2E353A" stroke-width="0.5" stroke-linecap="round" stroke-linejoin="round"/>
<path d="M138.57 13.3637C138.366 13.4434 138.172 13.5466 137.991 13.6711" stroke="#2E353A" stroke-width="0.5" stroke-linecap="round" stroke-linejoin="round"/>
<path d="M142.409 16.0611C142.411 16.038 142.411 16.0147 142.409 15.9916C142.409 15.2432 142.112 14.5254 141.582 13.9962C141.053 13.467 140.336 13.1697 139.587 13.1697C139.44 13.1689 139.293 13.1811 139.148 13.2063" stroke="#2E353A" stroke-width="0.5" stroke-linecap="round" stroke-linejoin="round"/>
<path d="M141.494 16.0391V15.9916C141.494 15.4868 141.293 15.0027 140.936 14.6458C140.579 14.2889 140.095 14.0884 139.591 14.0884C139.175 14.088 138.771 14.2258 138.441 14.48" stroke="#2E353A" stroke-width="0.5" stroke-linecap="round" stroke-linejoin="round"/>
<path d="M139.192 15.0216C139.071 15.0722 138.96 15.1455 138.866 15.2375" stroke="#2E353A" stroke-width="0.5" stroke-linecap="round" stroke-linejoin="round"/>
<path d="M140.641 16.017V15.9914C140.641 15.7128 140.53 15.4456 140.333 15.2486C140.136 15.0516 139.869 14.941 139.591 14.941" stroke="#2E353A" stroke-width="0.5" stroke-linecap="round" stroke-linejoin="round"/>
<path d="M115.947 15.4534C115.921 15.634 115.908 15.8162 115.907 15.9987C115.907 16.0316 115.907 16.0609 115.907 16.0939" stroke="#2E353A" stroke-width="0.5" stroke-linecap="round" stroke-linejoin="round"/>
<path d="M120.471 12.2619C120.222 12.2103 119.968 12.1845 119.713 12.1851C118.916 12.1847 118.139 12.4347 117.492 12.8996C116.844 13.3645 116.359 14.0209 116.104 14.7763" stroke="#2E353A" stroke-width="0.5" stroke-linecap="round" stroke-linejoin="round"/>
<path d="M121.796 12.8109C121.554 12.6515 121.295 12.5202 121.024 12.4193" stroke="#2E353A" stroke-width="0.5" stroke-linecap="round" stroke-linejoin="round"/>
<path d="M119.487 13.1806C119.56 13.1806 119.637 13.1806 119.713 13.1806C120.286 13.1811 120.845 13.356 121.317 13.682" stroke="#2E353A" stroke-width="0.5" stroke-linecap="round" stroke-linejoin="round"/>
<path d="M116.895 16.0611C116.895 16.0391 116.895 16.0171 116.895 15.9915C116.895 15.4369 117.059 14.8946 117.365 14.4325C117.672 13.9703 118.108 13.6087 118.619 13.3929" stroke="#2E353A" stroke-width="0.5" stroke-linecap="round" stroke-linejoin="round"/>
<path d="M117.807 16.0391V15.9916C117.807 15.4868 118.007 15.0027 118.364 14.6458C118.721 14.2889 119.205 14.0884 119.71 14.0884C120.126 14.088 120.53 14.2258 120.859 14.48" stroke="#2E353A" stroke-width="0.5" stroke-linecap="round" stroke-linejoin="round"/>
<path d="M118.667 16.0171C118.665 16.0087 118.665 15.9999 118.667 15.9915C118.665 15.785 118.725 15.5827 118.839 15.4102C118.953 15.2377 119.115 15.1026 119.305 15.022C119.495 14.9414 119.705 14.9189 119.908 14.9572C120.111 14.9956 120.298 15.0931 120.445 15.2375" stroke="#2E353A" stroke-width="0.5" stroke-linecap="round" stroke-linejoin="round"/>
<path d="M71.9216 82.9505L69.3596 77.8814C69.328 77.8159 69.2717 77.7657 69.2031 77.7417C69.1345 77.7177 69.0592 77.7218 68.9936 77.7533C68.9295 77.7863 68.8805 77.8427 68.8566 77.9108C68.8328 77.9789 68.836 78.0535 68.8655 78.1193L71.3177 83.2432C71.267 83.294 71.2324 83.3585 71.2181 83.4288C71.2038 83.4991 71.2104 83.572 71.2372 83.6385L73.8285 88.499C73.898 88.6344 74.1213 88.6637 74.3262 88.5648C74.5312 88.466 74.6446 88.2684 74.5788 88.1293L72.3059 83.1115C72.2638 83.0509 72.2053 83.0035 72.1372 82.975C72.0692 82.9465 71.9944 82.938 71.9216 82.9505Z" fill="#2E353A"/>
<path d="M86.1115 82.9505L88.6735 77.8814C88.6879 77.846 88.7094 77.8139 88.7367 77.7872C88.764 77.7605 88.7966 77.7397 88.8323 77.7261C88.868 77.7125 88.9061 77.7065 88.9443 77.7083C88.9825 77.7101 89.0198 77.7197 89.0541 77.7366C89.0884 77.7535 89.1188 77.7772 89.1435 77.8064C89.1682 77.8356 89.1866 77.8695 89.1976 77.9061C89.2086 77.9427 89.2119 77.9812 89.2074 78.0191C89.2028 78.057 89.1905 78.0936 89.1712 78.1266L86.7227 83.2506C86.7728 83.3017 86.8067 83.3664 86.8204 83.4367C86.8341 83.5069 86.8268 83.5797 86.7996 83.6458L84.2083 88.5063C84.1388 88.6417 83.9192 88.671 83.7106 88.5722C83.502 88.4733 83.3922 88.2757 83.458 88.1366L85.7309 83.1188C85.7718 83.0575 85.8293 83.0091 85.8967 82.9793C85.9641 82.9494 86.0386 82.9395 86.1115 82.9505Z" fill="#2E353A"/>
<path d="M87.0885 88.726H70.9993L72.2034 86.6801H85.8807L87.0885 88.726Z" fill="white" stroke="#2E353A" stroke-width="0.5" stroke-linecap="round" stroke-linejoin="round"/>
<path d="M87.0885 88.7261H70.9993V90.7756H87.0885V88.7261Z" fill="white" stroke="#2E353A" stroke-width="0.5" stroke-linecap="round" stroke-linejoin="round"/>
<path d="M78.7656 89.3004H72.5766C72.328 89.3004 72.1265 89.502 72.1265 89.7506V89.7543C72.1265 90.0029 72.328 90.2044 72.5766 90.2044H78.7656C79.0143 90.2044 79.2158 90.0029 79.2158 89.7543V89.7506C79.2158 89.502 79.0143 89.3004 78.7656 89.3004Z" fill="white" stroke="#2E353A" stroke-width="0.5" stroke-miterlimit="10"/>
<path d="M82.5061 90.0948C82.7244 90.0948 82.9014 89.9178 82.9014 89.6995C82.9014 89.4812 82.7244 89.3043 82.5061 89.3043C82.2878 89.3043 82.1108 89.4812 82.1108 89.6995C82.1108 89.9178 82.2878 90.0948 82.5061 90.0948Z" fill="white" stroke="#2E353A" stroke-width="0.5" stroke-miterlimit="10"/>
<path d="M84.541 89.6994C84.5417 89.6202 84.5189 89.5426 84.4753 89.4765C84.4318 89.4103 84.3695 89.3586 84.2965 89.3279C84.2234 89.2973 84.1429 89.2891 84.0652 89.3044C83.9874 89.3196 83.916 89.3577 83.86 89.4137C83.804 89.4697 83.7659 89.5411 83.7507 89.6189C83.7354 89.6966 83.7436 89.7771 83.7742 89.8502C83.8049 89.9232 83.8566 89.9855 83.9227 90.029C83.9889 90.0726 84.0665 90.0955 84.1457 90.0947C84.2506 90.0947 84.3511 90.0531 84.4252 89.979C84.4994 89.9048 84.541 89.8043 84.541 89.6994Z" fill="white" stroke="#2E353A" stroke-width="0.5" stroke-miterlimit="10"/>
<path d="M85.7817 90.0948C86.0001 90.0948 86.177 89.9178 86.177 89.6995C86.177 89.4812 86.0001 89.3043 85.7817 89.3043C85.5634 89.3043 85.3865 89.4812 85.3865 89.6995C85.3865 89.9178 85.5634 90.0948 85.7817 90.0948Z" fill="white" stroke="#2E353A" stroke-width="0.5" stroke-miterlimit="10"/>
<path d="M90.8838 74.668C91.4625 75.0017 91.9433 75.4817 92.278 76.0599C92.6127 76.638 92.7895 77.294 92.7906 77.962C92.7906 77.9949 92.7906 78.0242 92.7906 78.0572" stroke="#2E353A" stroke-width="0.5" stroke-linecap="round" stroke-linejoin="round"/>
<path d="M86.8982 74.7853C87.518 74.3788 88.2432 74.1626 88.9844 74.1631C89.4041 74.1615 89.8211 74.2308 90.2178 74.3681" stroke="#2E353A" stroke-width="0.5" stroke-linecap="round" stroke-linejoin="round"/>
<path d="M88.4903 75.1878C88.0963 75.2617 87.7223 75.4176 87.3923 75.6453" stroke="#2E353A" stroke-width="0.5" stroke-linecap="round" stroke-linejoin="round"/>
<path d="M91.821 78.0388C91.821 78.0169 91.821 77.9949 91.821 77.9693C91.82 77.2694 91.5592 76.5949 91.0893 76.0763C90.6194 75.5577 89.9737 75.2319 89.2773 75.1621" stroke="#2E353A" stroke-width="0.5" stroke-linecap="round" stroke-linejoin="round"/>
<path d="M90.3569 76.6444C90.1803 76.4607 89.9682 76.3148 89.7336 76.2154C89.4989 76.116 89.2466 76.0652 88.9918 76.0661C88.5755 76.0664 88.1706 76.2026 87.8389 76.4541" stroke="#2E353A" stroke-width="0.5" stroke-linecap="round" stroke-linejoin="round"/>
<path d="M90.8839 78.0133C90.8839 78.0133 90.8839 77.9841 90.8839 77.9658C90.8824 77.7143 90.8314 77.4656 90.7339 77.2338" stroke="#2E353A" stroke-width="0.5" stroke-linecap="round" stroke-linejoin="round"/>
<path d="M88.728 76.9408C88.5504 76.9861 88.3876 77.0769 88.2559 77.2043" stroke="#2E353A" stroke-width="0.5" stroke-linecap="round" stroke-linejoin="round"/>
<path d="M90.031 77.9912C90.031 77.9912 90.031 77.9912 90.031 77.9656C90.0343 77.7333 89.9602 77.5065 89.8204 77.321C89.6805 77.1354 89.483 77.0017 89.2588 76.9408" stroke="#2E353A" stroke-width="0.5" stroke-linecap="round" stroke-linejoin="round"/>
<path d="M65.3518 77.3289C65.3149 77.5391 65.2966 77.7522 65.2969 77.9657C65.2969 77.9986 65.2969 78.0279 65.2969 78.0609" stroke="#2E353A" stroke-width="0.5" stroke-linecap="round" stroke-linejoin="round"/>
<path d="M67.6028 74.4666C67.1347 74.6697 66.7118 74.9639 66.3587 75.3321C66.0055 75.7004 65.7292 76.1352 65.5459 76.6114" stroke="#2E353A" stroke-width="0.5" stroke-linecap="round" stroke-linejoin="round"/>
<path d="M71.1858 74.7853C70.5673 74.3789 69.8434 74.1626 69.1033 74.1631C68.8464 74.1624 68.59 74.1881 68.3384 74.24" stroke="#2E353A" stroke-width="0.5" stroke-linecap="round" stroke-linejoin="round"/>
<path d="M66.9731 76.1173C67.4288 75.5939 68.0612 75.2564 68.7497 75.1694C69.4382 75.0823 70.1347 75.2517 70.7063 75.6451" stroke="#2E353A" stroke-width="0.5" stroke-linecap="round" stroke-linejoin="round"/>
<path d="M66.2854 78.0389C66.2854 78.0169 66.2854 77.9949 66.2854 77.9693C66.2857 77.5517 66.3781 77.1393 66.5562 76.7615" stroke="#2E353A" stroke-width="0.5" stroke-linecap="round" stroke-linejoin="round"/>
<path d="M67.7419 76.6371C68.0664 76.3061 68.5005 76.1048 68.9627 76.0711C69.425 76.0374 69.8837 76.1736 70.2527 76.4541" stroke="#2E353A" stroke-width="0.5" stroke-linecap="round" stroke-linejoin="round"/>
<path d="M67.2039 78.0132C67.2039 78.0132 67.2039 77.9839 67.2039 77.9656C67.2031 77.6817 67.2669 77.4013 67.3905 77.1458" stroke="#2E353A" stroke-width="0.5" stroke-linecap="round" stroke-linejoin="round"/>
<path d="M68.4153 77.1715C68.6145 77.0018 68.8696 76.9119 69.1312 76.9194C69.3928 76.9268 69.6424 77.031 69.8317 77.2117" stroke="#2E353A" stroke-width="0.5" stroke-linecap="round" stroke-linejoin="round"/>
<path d="M68.0566 77.9912C68.0566 77.9912 68.0566 77.9912 68.0566 77.9656C68.0566 77.7931 68.0994 77.6234 68.1811 77.4715" stroke="#2E353A" stroke-width="0.5" stroke-linecap="round" stroke-linejoin="round"/>
<path d="M12.5168 52.0863L9.9548 47.0172C9.94042 46.9818 9.9189 46.9498 9.89158 46.923C9.86426 46.8963 9.83173 46.8755 9.79602 46.8619C9.76031 46.8483 9.72218 46.8423 9.68401 46.8441C9.64584 46.8459 9.60845 46.8555 9.57418 46.8724C9.5399 46.8893 9.50947 46.913 9.48479 46.9422C9.4601 46.9714 9.44169 47.0053 9.4307 47.0419C9.41971 47.0785 9.41638 47.117 9.42091 47.1549C9.42544 47.1929 9.43774 47.2295 9.45705 47.2624L11.9056 52.3864C11.8546 52.4377 11.8191 52.5023 11.8029 52.5728C11.7868 52.6433 11.7906 52.7169 11.8141 52.7853L14.4053 57.6457C14.4749 57.7812 14.6945 57.8104 14.9031 57.708C15.1117 57.6055 15.2215 57.4152 15.152 57.2761L12.8828 52.2583C12.8435 52.1987 12.7885 52.1512 12.724 52.1208C12.6594 52.0905 12.5877 52.0785 12.5168 52.0863Z" fill="#2E353A"/>
<path d="M26.7027 52.0863L29.2647 47.0172C29.2963 46.9517 29.3526 46.9015 29.4212 46.8775C29.4898 46.8535 29.5652 46.8576 29.6307 46.8891C29.6948 46.9221 29.7439 46.9785 29.7677 47.0466C29.7915 47.1147 29.7884 47.1893 29.7588 47.2551L27.3066 52.3791C27.3626 52.4286 27.4021 52.4941 27.4198 52.5667C27.4374 52.6393 27.4324 52.7156 27.4054 52.7853L24.8142 57.6457C24.7447 57.7812 24.5214 57.8104 24.3164 57.708C24.1115 57.6055 23.998 57.4152 24.0639 57.2761L26.3367 52.2583C26.3757 52.1984 26.4306 52.1506 26.4953 52.1202C26.5599 52.0898 26.6318 52.0781 26.7027 52.0863Z" fill="#2E353A"/>
<path d="M27.6837 57.8616H11.5945L12.7986 55.8121H26.4759L27.6837 57.8616Z" fill="white" stroke="#2E353A" stroke-width="0.5" stroke-linecap="round" stroke-linejoin="round"/>
<path d="M27.68 57.8616H11.5908V59.9112H27.68V57.8616Z" fill="white" stroke="#2E353A" stroke-width="0.5" stroke-linecap="round" stroke-linejoin="round"/>
<path d="M19.3535 59.3402H13.1719C13.0521 59.3393 12.9376 59.291 12.8533 59.206C12.769 59.121 12.7217 59.0061 12.7217 58.8864C12.7217 58.767 12.7691 58.6525 12.8535 58.5681C12.938 58.4836 13.0525 58.4362 13.1719 58.4362H19.3535C19.4729 58.4362 19.5874 58.4836 19.6719 58.5681C19.7563 58.6525 19.8037 58.767 19.8037 58.8864C19.8037 59.0061 19.7564 59.121 19.6721 59.206C19.5878 59.291 19.4733 59.3393 19.3535 59.3402Z" fill="white" stroke="#2E353A" stroke-width="0.5" stroke-miterlimit="10"/>
<path d="M23.1013 59.2268C23.3196 59.2268 23.4966 59.0498 23.4966 58.8315C23.4966 58.6132 23.3196 58.4362 23.1013 58.4362C22.883 58.4362 22.7061 58.6132 22.7061 58.8315C22.7061 59.0498 22.883 59.2268 23.1013 59.2268Z" fill="white" stroke="#2E353A" stroke-width="0.5" stroke-miterlimit="10"/>
<path d="M24.7373 59.2268C24.9556 59.2268 25.1326 59.0498 25.1326 58.8315C25.1326 58.6132 24.9556 58.4362 24.7373 58.4362C24.519 58.4362 24.342 58.6132 24.342 58.8315C24.342 59.0498 24.519 59.2268 24.7373 59.2268Z" fill="white" stroke="#2E353A" stroke-width="0.5" stroke-miterlimit="10"/>
<path d="M26.7725 58.8313C26.7725 58.7522 26.749 58.675 26.705 58.6093C26.661 58.5436 26.5985 58.4925 26.5254 58.4624C26.4522 58.4323 26.3718 58.4246 26.2944 58.4403C26.2169 58.456 26.1458 58.4944 26.0902 58.5505C26.0345 58.6067 25.9968 58.6781 25.9818 58.7557C25.9669 58.8334 25.9753 58.9137 26.006 58.9865C26.0368 59.0593 26.0885 59.1214 26.1546 59.1648C26.2207 59.2082 26.2982 59.231 26.3772 59.2302C26.4294 59.2302 26.4811 59.2199 26.5293 59.1998C26.5775 59.1797 26.6213 59.1503 26.658 59.1132C26.6948 59.0761 26.7238 59.0321 26.7435 58.9837C26.7631 58.9353 26.773 58.8835 26.7725 58.8313Z" fill="white" stroke="#2E353A" stroke-width="0.5" stroke-miterlimit="10"/>
<path d="M33.1736 45.853C33.3121 46.2545 33.3826 46.6764 33.3822 47.1011C33.3822 47.134 33.3822 47.1633 33.3822 47.1962" stroke="#2E353A" stroke-width="0.5" stroke-linecap="round" stroke-linejoin="round"/>
<path d="M30.3335 43.3679C30.916 43.4856 31.463 43.7374 31.9312 44.1033C32.3995 44.4693 32.776 44.9393 33.0309 45.4761" stroke="#2E353A" stroke-width="0.5" stroke-linecap="round" stroke-linejoin="round"/>
<path d="M27.4934 43.9207C28.0013 43.5858 28.5827 43.3786 29.188 43.3168" stroke="#2E353A" stroke-width="0.5" stroke-linecap="round" stroke-linejoin="round"/>
<path d="M31.6987 45.2419C31.2435 44.721 30.6122 44.386 29.9257 44.301C29.2391 44.2159 28.5452 44.3867 27.9766 44.7807" stroke="#2E353A" stroke-width="0.5" stroke-linecap="round" stroke-linejoin="round"/>
<path d="M32.3941 47.1708C32.396 47.1476 32.396 47.1244 32.3941 47.1012C32.3946 46.6492 32.2867 46.2036 32.0793 45.8019" stroke="#2E353A" stroke-width="0.5" stroke-linecap="round" stroke-linejoin="round"/>
<path d="M29.1841 45.2421C28.9073 45.3055 28.6483 45.4306 28.4265 45.6081" stroke="#2E353A" stroke-width="0.5" stroke-linecap="round" stroke-linejoin="round"/>
<path d="M31.4791 47.1488V47.1012C31.4793 46.6685 31.3317 46.2487 31.0609 45.9113C30.79 45.5738 30.412 45.339 29.9895 45.2456" stroke="#2E353A" stroke-width="0.5" stroke-linecap="round" stroke-linejoin="round"/>
<path d="M30.4027 46.4533C30.3125 46.3374 30.1989 46.2418 30.0693 46.1728C29.9397 46.1039 29.797 46.063 29.6505 46.053C29.504 46.043 29.3571 46.064 29.2193 46.1147C29.0815 46.1654 28.9559 46.2446 28.8508 46.3471" stroke="#2E353A" stroke-width="0.5" stroke-linecap="round" stroke-linejoin="round"/>
<path d="M30.626 47.1269V47.1013C30.6265 46.9984 30.6117 46.896 30.582 46.7975" stroke="#2E353A" stroke-width="0.5" stroke-linecap="round" stroke-linejoin="round"/>
<path d="M9.03234 43.3535C8.15212 43.5099 7.35505 43.9712 6.78087 44.6565C6.2067 45.3417 5.89205 46.2072 5.89209 47.1013C5.89209 47.1342 5.89209 47.1635 5.89209 47.1964" stroke="#2E353A" stroke-width="0.5" stroke-linecap="round" stroke-linejoin="round"/>
<path d="M11.7809 43.9208C11.2338 43.5622 10.6036 43.3504 9.95093 43.306" stroke="#2E353A" stroke-width="0.5" stroke-linecap="round" stroke-linejoin="round"/>
<path d="M10.3206 44.3673C10.6703 44.4432 11.0029 44.5834 11.3014 44.7809" stroke="#2E353A" stroke-width="0.5" stroke-linecap="round" stroke-linejoin="round"/>
<path d="M6.88013 47.1707C6.88013 47.1487 6.88013 47.1268 6.88013 47.1011C6.88013 46.3527 7.17743 45.635 7.70662 45.1058C8.23582 44.5766 8.95356 44.2793 9.70196 44.2793" stroke="#2E353A" stroke-width="0.5" stroke-linecap="round" stroke-linejoin="round"/>
<path d="M8.23096 45.8934C8.54216 45.5126 8.98937 45.268 9.47785 45.2113C9.96632 45.1546 10.4577 45.2903 10.8478 45.5896" stroke="#2E353A" stroke-width="0.5" stroke-linecap="round" stroke-linejoin="round"/>
<path d="M7.79541 47.1488V47.1013C7.79528 46.8496 7.84633 46.6006 7.94547 46.3693" stroke="#2E353A" stroke-width="0.5" stroke-linecap="round" stroke-linejoin="round"/>
<path d="M9.88501 46.0692C10.089 46.1066 10.2774 46.2034 10.4267 46.3474" stroke="#2E353A" stroke-width="0.5" stroke-linecap="round" stroke-linejoin="round"/>
<path d="M8.65186 47.1268C8.65186 47.1268 8.65186 47.1268 8.65186 47.1011C8.65269 46.8527 8.74129 46.6125 8.90201 46.4229C9.06273 46.2334 9.28524 46.1068 9.53025 46.0654" stroke="#2E353A" stroke-width="0.5" stroke-linecap="round" stroke-linejoin="round"/>
<path d="M96.2348 92.9131H63.6208V115.257H96.2348V92.9131Z" fill="#2E353A" stroke="#2E353A" stroke-width="0.5" stroke-miterlimit="10"/>
<path d="M101.128 125.136H58.7312L63.6209 115.257H96.2349L101.128 125.136Z" fill="white" stroke="#2E353A" stroke-width="0.5" stroke-linecap="round" stroke-linejoin="round"/>
<path d="M94.2586 94.6808H65.5974V113.489H94.2586V94.6808Z" fill="white" stroke="#2E353A" stroke-width="0.5" stroke-miterlimit="10"/>
<path d="M84.2228 102.279L79.9369 97.21L75.6511 102.279H77.4445V110.217H82.4294V102.279H84.2228Z" fill="#F39712"/>
<path d="M78.568 118.386L78.6229 117.182H76.9028L76.7856 118.386H78.568Z" fill="white" stroke="#2E353A" stroke-width="0.5" stroke-miterlimit="10"/>
<path d="M82.1293 118.386L82.0708 117.182H80.3469L80.3506 118.386H82.1293Z" fill="white" stroke="#2E353A" stroke-width="0.5" stroke-miterlimit="10"/>
<path d="M91.4036 119.671H93.2482L92.8127 118.387H91.0339L91.4036 119.671Z" fill="white" stroke="#2E353A" stroke-width="0.5" stroke-miterlimit="10"/>
<path d="M76.7858 118.386L76.9029 117.182H75.1791L75.0071 118.386H76.7858Z" fill="white" stroke="#2E353A" stroke-width="0.5" stroke-miterlimit="10"/>
<path d="M73.2245 118.386L73.4551 117.182H71.7313L71.4458 118.386H73.2245Z" fill="white" stroke="#2E353A" stroke-width="0.5" stroke-miterlimit="10"/>
<path d="M89.2515 118.386L88.9624 117.182H87.2385L87.4728 118.386H89.2515Z" fill="white" stroke="#2E353A" stroke-width="0.5" stroke-miterlimit="10"/>
<path d="M91.0342 118.386L90.6865 117.182H88.9626L89.2518 118.386H91.0342Z" fill="white" stroke="#2E353A" stroke-width="0.5" stroke-miterlimit="10"/>
<path d="M71.4457 118.386L71.7312 117.182H70.0074L69.6633 118.386H71.4457Z" fill="white" stroke="#2E353A" stroke-width="0.5" stroke-miterlimit="10"/>
<path d="M83.9118 118.386L83.7947 117.182H82.0708L82.1294 118.386H83.9118Z" fill="white" stroke="#2E353A" stroke-width="0.5" stroke-miterlimit="10"/>
<path d="M92.8127 118.386L92.4101 117.182H90.6863L91.034 118.386H92.8127Z" fill="white" stroke="#2E353A" stroke-width="0.5" stroke-miterlimit="10"/>
<path d="M87.4727 118.386L87.2385 117.182H85.5183L85.6903 118.386H87.4727Z" fill="white" stroke="#2E353A" stroke-width="0.5" stroke-miterlimit="10"/>
<path d="M85.6903 118.386L85.5183 117.182H83.7944L83.9116 118.386H85.6903Z" fill="white" stroke="#2E353A" stroke-width="0.5" stroke-miterlimit="10"/>
<path d="M80.3508 118.386L80.3471 117.182H78.6233L78.5684 118.386H80.3508Z" fill="white" stroke="#2E353A" stroke-width="0.5" stroke-miterlimit="10"/>
<path d="M67.8847 118.387H66.1023L65.6118 119.671H67.4528L67.8847 118.387Z" fill="white" stroke="#2E353A" stroke-width="0.5" stroke-miterlimit="10"/>
<path d="M68.2836 117.182H66.5635L66.1023 118.386H67.8847L68.2836 117.182Z" fill="white" stroke="#2E353A" stroke-width="0.5" stroke-miterlimit="10"/>
<path d="M69.6635 118.386L70.0075 117.182H68.2837L67.8848 118.386H69.6635Z" fill="white" stroke="#2E353A" stroke-width="0.5" stroke-miterlimit="10"/>
<path d="M65.0849 121.051L64.5176 122.533H66.4976L66.9917 121.051H65.0849Z" fill="white" stroke="#2E353A" stroke-width="0.5" stroke-miterlimit="10"/>
<path d="M67.4527 119.671H65.6118L65.0847 121.051H66.9916L67.4527 119.671Z" fill="white" stroke="#2E353A" stroke-width="0.5" stroke-miterlimit="10"/>
<path d="M66.9914 121.051L66.4973 122.533H68.4774L68.9019 121.051H66.9914Z" fill="white" stroke="#2E353A" stroke-width="0.5" stroke-miterlimit="10"/>
<path d="M75.0068 118.386L75.1788 117.182H73.4549L73.2244 118.386H75.0068Z" fill="white" stroke="#2E353A" stroke-width="0.5" stroke-miterlimit="10"/>
<path d="M74.8241 119.671L75.0071 118.387H73.2247L72.9795 119.671H74.8241Z" fill="white" stroke="#2E353A" stroke-width="0.5" stroke-miterlimit="10"/>
<path d="M72.9794 119.671L73.2246 118.387H71.4459L71.1384 119.671H72.9794Z" fill="white" stroke="#2E353A" stroke-width="0.5" stroke-miterlimit="10"/>
<path d="M76.6649 119.671L76.7857 118.387H75.007L74.824 119.671H76.6649Z" fill="white" stroke="#2E353A" stroke-width="0.5" stroke-miterlimit="10"/>
<path d="M69.6635 118.387H67.8848L67.4529 119.671H69.2975L69.6635 118.387Z" fill="white" stroke="#2E353A" stroke-width="0.5" stroke-miterlimit="10"/>
<path d="M91.8025 121.051H93.7093L93.2482 119.671H91.4036L91.8025 121.051Z" fill="white" stroke="#2E353A" stroke-width="0.5" stroke-miterlimit="10"/>
<path d="M71.1383 119.671L71.4458 118.387H69.6634L69.2974 119.671H71.1383Z" fill="white" stroke="#2E353A" stroke-width="0.5" stroke-miterlimit="10"/>
<path d="M67.4526 119.671L66.9915 121.051H68.902L69.2972 119.671H67.4526Z" fill="white" stroke="#2E353A" stroke-width="0.5" stroke-miterlimit="10"/>
<path d="M87.7181 119.671L87.4728 118.387H85.6904L85.8771 119.671H87.7181Z" fill="white" stroke="#2E353A" stroke-width="0.5" stroke-miterlimit="10"/>
<path d="M85.877 119.671L85.6904 118.387H83.9116L84.0361 119.671H85.877Z" fill="white" stroke="#2E353A" stroke-width="0.5" stroke-miterlimit="10"/>
<path d="M91.4038 119.671L91.0341 118.387H89.2517L89.5628 119.671H91.4038Z" fill="white" stroke="#2E353A" stroke-width="0.5" stroke-miterlimit="10"/>
<path d="M80.3505 119.671V118.387H78.5681L78.5059 119.671H80.3505Z" fill="white" stroke="#2E353A" stroke-width="0.5" stroke-miterlimit="10"/>
<path d="M84.036 119.671L83.9116 118.387H82.1292L82.1914 119.671H84.036Z" fill="white" stroke="#2E353A" stroke-width="0.5" stroke-miterlimit="10"/>
<path d="M82.1915 119.671L82.1293 118.387H80.3506V119.671H82.1915Z" fill="white" stroke="#2E353A" stroke-width="0.5" stroke-miterlimit="10"/>
<path d="M78.506 119.671L78.5682 118.387H76.7858L76.665 119.671H78.506Z" fill="white" stroke="#2E353A" stroke-width="0.5" stroke-miterlimit="10"/>
<path d="M84.0361 119.671L84.1679 121.051H86.0784L85.8771 119.671H84.0361Z" fill="white" stroke="#2E353A" stroke-width="0.5" stroke-miterlimit="10"/>
<path d="M85.877 119.671L86.0782 121.051H87.9851L87.7179 119.671H85.877Z" fill="white" stroke="#2E353A" stroke-width="0.5" stroke-miterlimit="10"/>
<path d="M69.2976 119.671L68.9023 121.051H70.8092L71.1386 119.671H69.2976Z" fill="white" stroke="#2E353A" stroke-width="0.5" stroke-miterlimit="10"/>
<path d="M87.718 119.671L87.9852 121.051H89.892L89.5626 119.671H87.718Z" fill="white" stroke="#2E353A" stroke-width="0.5" stroke-miterlimit="10"/>
<path d="M80.3506 119.671V121.051H82.2611L82.1915 119.671H80.3506Z" fill="white" stroke="#2E353A" stroke-width="0.5" stroke-miterlimit="10"/>
<path d="M89.5625 119.671L89.8919 121.051H91.8024L91.4035 119.671H89.5625Z" fill="white" stroke="#2E353A" stroke-width="0.5" stroke-miterlimit="10"/>
<path d="M82.1914 119.671L82.2609 121.051H84.1678L84.036 119.671H82.1914Z" fill="white" stroke="#2E353A" stroke-width="0.5" stroke-miterlimit="10"/>
<path d="M72.9796 119.671L72.7161 121.051H74.6266L74.8242 119.671H72.9796Z" fill="white" stroke="#2E353A" stroke-width="0.5" stroke-miterlimit="10"/>
<path d="M71.1385 119.671L70.8091 121.051H72.7159L72.9794 119.671H71.1385Z" fill="white" stroke="#2E353A" stroke-width="0.5" stroke-miterlimit="10"/>
<path d="M78.5058 119.671L78.4436 121.051H80.3504V119.671H78.5058Z" fill="white" stroke="#2E353A" stroke-width="0.5" stroke-miterlimit="10"/>
<path d="M76.665 119.671L76.5332 121.051H78.4437L78.5059 119.671H76.665Z" fill="white" stroke="#2E353A" stroke-width="0.5" stroke-miterlimit="10"/>
<path d="M74.8241 119.671L74.6265 121.051H76.5333L76.6651 119.671H74.8241Z" fill="white" stroke="#2E353A" stroke-width="0.5" stroke-miterlimit="10"/>
<path d="M89.5625 119.671L89.2514 118.387H87.4727L87.7179 119.671H89.5625Z" fill="white" stroke="#2E353A" stroke-width="0.5" stroke-miterlimit="10"/>
<path d="M68.2834 117.182L68.697 115.949H67.0317L66.5632 117.182H68.2834Z" fill="white" stroke="#2E353A" stroke-width="0.5" stroke-miterlimit="10"/>
<path d="M66.5632 117.182H64.9711L64.4587 118.386H66.1021L66.5632 117.182Z" fill="white" stroke="#2E353A" stroke-width="0.5" stroke-miterlimit="10"/>
<path d="M67.0318 115.949H65.4982L64.9712 117.182H66.5633L67.0318 115.949Z" fill="white" stroke="#2E353A" stroke-width="0.5" stroke-miterlimit="10"/>
<path d="M66.1022 118.387H64.4589L63.9099 119.671H65.6118L66.1022 118.387Z" fill="white" stroke="#2E353A" stroke-width="0.5" stroke-miterlimit="10"/>
<path d="M65.6119 119.671H63.9101L63.3208 121.051H65.0849L65.6119 119.671Z" fill="white" stroke="#2E353A" stroke-width="0.5" stroke-miterlimit="10"/>
<path d="M65.0848 121.051H63.3207L62.6912 122.533H64.5175L65.0848 121.051Z" fill="white" stroke="#2E353A" stroke-width="0.5" stroke-miterlimit="10"/>
<path d="M94.5952 118.387L95.0893 119.671H96.718L96.169 118.387H94.5952Z" fill="white" stroke="#2E353A" stroke-width="0.5" stroke-miterlimit="10"/>
<path d="M95.6198 121.051H97.307L96.7178 119.671H95.0891L95.6198 121.051Z" fill="white" stroke="#2E353A" stroke-width="0.5" stroke-miterlimit="10"/>
<path d="M96.1872 122.533H97.9366L97.3071 121.051H95.6199L96.1872 122.533Z" fill="white" stroke="#2E353A" stroke-width="0.5" stroke-miterlimit="10"/>
<path d="M82.0708 117.182L82.0122 115.949H80.3469V117.182H82.0708Z" fill="white" stroke="#2E353A" stroke-width="0.5" stroke-miterlimit="10"/>
<path d="M94.5949 118.386H96.1687L95.6563 117.182H94.1338L94.5949 118.386Z" fill="white" stroke="#2E353A" stroke-width="0.5" stroke-miterlimit="10"/>
<path d="M93.7095 121.051H95.62L95.0893 119.671H93.2483L93.7095 121.051Z" fill="white" stroke="#2E353A" stroke-width="0.5" stroke-miterlimit="10"/>
<path d="M70.0073 117.182L70.3623 115.949H68.697L68.2834 117.182H70.0073Z" fill="white" stroke="#2E353A" stroke-width="0.5" stroke-miterlimit="10"/>
<path d="M92.4102 117.182L92.8128 118.386H94.5952L94.134 117.182H92.4102Z" fill="white" stroke="#2E353A" stroke-width="0.5" stroke-miterlimit="10"/>
<path d="M95.6566 117.182L95.1332 115.949H93.6582L94.134 117.182H95.6566Z" fill="white" stroke="#2E353A" stroke-width="0.5" stroke-miterlimit="10"/>
<path d="M94.134 117.182L93.6582 115.949H91.9966L92.4101 117.182H94.134Z" fill="white" stroke="#2E353A" stroke-width="0.5" stroke-miterlimit="10"/>
<path d="M87.9851 121.051L88.2706 122.533H90.2506L89.892 121.051H87.9851Z" fill="white" stroke="#2E353A" stroke-width="0.5" stroke-miterlimit="10"/>
<path d="M94.207 122.533H96.187L95.6197 121.051H93.7092L94.207 122.533Z" fill="white" stroke="#2E353A" stroke-width="0.5" stroke-miterlimit="10"/>
<path d="M92.4102 117.182L91.9966 115.949H90.3313L90.6863 117.182H92.4102Z" fill="white" stroke="#2E353A" stroke-width="0.5" stroke-miterlimit="10"/>
<path d="M91.8027 121.051L92.2273 122.533H94.2073L93.7096 121.051H91.8027Z" fill="white" stroke="#2E353A" stroke-width="0.5" stroke-miterlimit="10"/>
<path d="M89.8918 121.051L90.2505 122.533H92.2269L91.8023 121.051H89.8918Z" fill="white" stroke="#2E353A" stroke-width="0.5" stroke-miterlimit="10"/>
<path d="M93.248 119.671H95.089L94.5949 118.387H92.8125L93.248 119.671Z" fill="white" stroke="#2E353A" stroke-width="0.5" stroke-miterlimit="10"/>
<path d="M76.903 117.182L77.0202 115.949H75.3549L75.1792 117.182H76.903Z" fill="white" stroke="#2E353A" stroke-width="0.5" stroke-miterlimit="10"/>
<path d="M90.6863 117.182L90.3313 115.949H88.666L88.9625 117.182H90.6863Z" fill="white" stroke="#2E353A" stroke-width="0.5" stroke-miterlimit="10"/>
<path d="M75.1789 117.182L75.3546 115.949H73.6893L73.4551 117.182H75.1789Z" fill="white" stroke="#2E353A" stroke-width="0.5" stroke-miterlimit="10"/>
<path d="M80.3466 117.182V115.949H78.6814L78.6228 117.182H80.3466Z" fill="white" stroke="#2E353A" stroke-width="0.5" stroke-miterlimit="10"/>
<path d="M73.4553 117.182L73.6895 115.949H72.0242L71.7314 117.182H73.4553Z" fill="white" stroke="#2E353A" stroke-width="0.5" stroke-miterlimit="10"/>
<path d="M71.7312 117.182L72.024 115.949H70.3623L70.0073 117.182H71.7312Z" fill="white" stroke="#2E353A" stroke-width="0.5" stroke-miterlimit="10"/>
<path d="M78.6233 117.182L78.6818 115.949H77.0202L76.9031 117.182H78.6233Z" fill="white" stroke="#2E353A" stroke-width="0.5" stroke-miterlimit="10"/>
<path d="M88.9625 117.182L88.666 115.949H87.0044L87.2386 117.182H88.9625Z" fill="white" stroke="#2E353A" stroke-width="0.5" stroke-miterlimit="10"/>
<path d="M87.2384 117.182L87.0041 115.949H85.3389L85.5182 117.182H87.2384Z" fill="white" stroke="#2E353A" stroke-width="0.5" stroke-miterlimit="10"/>
<path d="M83.7944 117.182L83.6736 115.949H82.012L82.0705 117.182H83.7944Z" fill="white" stroke="#2E353A" stroke-width="0.5" stroke-miterlimit="10"/>
<path d="M87.9851 121.051H86.0783H84.1678H82.261H80.3505H78.4436H76.5331H74.6263H72.7158H70.8089H68.9021L68.4775 122.533H70.4576H72.434H74.414H76.394H78.3741H80.3505H82.3305H84.3106H86.2906H88.2706L87.9851 121.051Z" fill="white" stroke="#2E353A" stroke-width="0.5" stroke-miterlimit="10"/>
<path d="M85.5182 117.182L85.3389 115.949H83.6736L83.7944 117.182H85.5182Z" fill="white" stroke="#2E353A" stroke-width="0.5" stroke-miterlimit="10"/>
<path d="M101.147 125.135H58.7312V125.736H101.147V125.135Z" fill="#2E353A" stroke="#2E353A" stroke-width="0.5" stroke-miterlimit="10"/>
<path d="M108.236 92.9131H133.124V115.257H108.236C108.078 115.257 107.928 115.195 107.816 115.084C107.705 114.972 107.643 114.822 107.643 114.664V93.5097C107.642 93.4315 107.657 93.354 107.687 93.2816C107.716 93.2093 107.76 93.1435 107.815 93.088C107.87 93.0326 107.936 92.9886 108.008 92.9586C108.08 92.9285 108.158 92.9131 108.236 92.9131Z" fill="white" stroke="#2E353A" stroke-width="0.5" stroke-linecap="round" stroke-linejoin="round"/>
<path d="M133.98 92.9131H108.312V115.257H133.98V92.9131Z" fill="#2E353A" stroke="#2E353A" stroke-width="0.5" stroke-miterlimit="10"/>
<path d="M132.578 94.6808H110.289V113.489H132.578V94.6808Z" fill="white" stroke="#2E353A" stroke-width="0.5" stroke-linecap="round" stroke-linejoin="round"/>
<path d="M117.902 102.279L121.225 97.21L124.548 102.279H123.158V110.217H119.293V102.279H117.902Z" fill="#F39712"/>
<path d="M108.312 115.257L127.769 120.883H154L133.98 115.257H108.312Z" fill="white" stroke="#2E353A" stroke-width="0.5" stroke-linecap="round" stroke-linejoin="round"/>
<path d="M129.09 117.482L126.656 116.791L125.591 116.78L128.018 117.475L129.09 117.482Z" fill="white" stroke="#2E353A" stroke-width="0.5" stroke-miterlimit="10"/>
<path d="M131.209 117.501L128.768 116.813L127.718 116.802L130.151 117.494L131.209 117.501Z" fill="white" stroke="#2E353A" stroke-width="0.5" stroke-miterlimit="10"/>
<path d="M138.903 118.229L139.92 118.237L137.391 117.545L136.377 117.538L138.903 118.229Z" fill="white" stroke="#2E353A" stroke-width="0.5" stroke-miterlimit="10"/>
<path d="M128.018 117.475L125.591 116.78L124.519 116.769L126.938 117.468L128.018 117.475Z" fill="white" stroke="#2E353A" stroke-width="0.5" stroke-miterlimit="10"/>
<path d="M125.855 117.461L123.435 116.761L122.348 116.75L124.76 117.453L125.855 117.461Z" fill="white" stroke="#2E353A" stroke-width="0.5" stroke-miterlimit="10"/>
<path d="M135.36 117.53L132.9 116.849L131.879 116.842L134.331 117.523L135.36 117.53Z" fill="white" stroke="#2E353A" stroke-width="0.5" stroke-miterlimit="10"/>
<path d="M136.377 117.538L133.914 116.86L132.9 116.849L135.36 117.53L136.377 117.538Z" fill="white" stroke="#2E353A" stroke-width="0.5" stroke-miterlimit="10"/>
<path d="M124.76 117.453L122.348 116.751L121.25 116.74L123.655 117.446L124.76 117.453Z" fill="white" stroke="#2E353A" stroke-width="0.5" stroke-miterlimit="10"/>
<path d="M132.256 117.508L129.811 116.82L128.768 116.813L131.209 117.501L132.256 117.508Z" fill="white" stroke="#2E353A" stroke-width="0.5" stroke-miterlimit="10"/>
<path d="M137.391 117.545L134.924 116.871L133.914 116.86L136.377 117.537L137.391 117.545Z" fill="white" stroke="#2E353A" stroke-width="0.5" stroke-miterlimit="10"/>
<path d="M134.331 117.523L131.879 116.842L130.847 116.831L133.299 117.516L134.331 117.523Z" fill="white" stroke="#2E353A" stroke-width="0.5" stroke-miterlimit="10"/>
<path d="M133.299 117.515L130.847 116.831L129.811 116.82L132.256 117.508L133.299 117.515Z" fill="white" stroke="#2E353A" stroke-width="0.5" stroke-miterlimit="10"/>
<path d="M130.152 117.493L127.718 116.802L126.656 116.791L129.09 117.482L130.152 117.493Z" fill="white" stroke="#2E353A" stroke-width="0.5" stroke-miterlimit="10"/>
<path d="M122.546 117.435L121.426 117.428L123.886 118.156L125.009 118.163L122.546 117.435Z" fill="white" stroke="#2E353A" stroke-width="0.5" stroke-miterlimit="10"/>
<path d="M120.145 116.729L119.033 116.718L121.426 117.428L122.546 117.435L120.145 116.729Z" fill="white" stroke="#2E353A" stroke-width="0.5" stroke-miterlimit="10"/>
<path d="M123.655 117.446L121.251 116.74L120.146 116.729L122.546 117.435L123.655 117.446Z" fill="white" stroke="#2E353A" stroke-width="0.5" stroke-miterlimit="10"/>
<path d="M126.408 118.902L129.003 119.671H130.137L127.539 118.906L126.408 118.902Z" fill="white" stroke="#2E353A" stroke-width="0.5" stroke-miterlimit="10"/>
<path d="M125.01 118.163L123.886 118.156L126.408 118.903L127.539 118.906L125.01 118.163Z" fill="white" stroke="#2E353A" stroke-width="0.5" stroke-miterlimit="10"/>
<path d="M127.538 118.906L130.137 119.671H131.264L128.658 118.91L127.538 118.906Z" fill="white" stroke="#2E353A" stroke-width="0.5" stroke-miterlimit="10"/>
<path d="M126.938 117.468L124.519 116.769L123.436 116.761L125.855 117.461L126.938 117.468Z" fill="white" stroke="#2E353A" stroke-width="0.5" stroke-miterlimit="10"/>
<path d="M129.423 118.185L126.938 117.468L125.855 117.46L128.333 118.178L129.423 118.185Z" fill="white" stroke="#2E353A" stroke-width="0.5" stroke-miterlimit="10"/>
<path d="M128.333 118.178L125.855 117.461L124.761 117.453L127.235 118.174L128.333 118.178Z" fill="white" stroke="#2E353A" stroke-width="0.5" stroke-miterlimit="10"/>
<path d="M130.507 118.189L128.018 117.475L126.938 117.468L129.423 118.185L130.507 118.189Z" fill="white" stroke="#2E353A" stroke-width="0.5" stroke-miterlimit="10"/>
<path d="M123.655 117.446L122.546 117.435L125.01 118.163L126.126 118.167L123.655 117.446Z" fill="white" stroke="#2E353A" stroke-width="0.5" stroke-miterlimit="10"/>
<path d="M141.494 118.943L142.511 118.946L139.92 118.236L138.903 118.229L141.494 118.943Z" fill="white" stroke="#2E353A" stroke-width="0.5" stroke-miterlimit="10"/>
<path d="M127.235 118.174L124.761 117.453L123.655 117.446L126.126 118.167L127.235 118.174Z" fill="white" stroke="#2E353A" stroke-width="0.5" stroke-miterlimit="10"/>
<path d="M125.01 118.163L127.539 118.906L128.659 118.91L126.126 118.167L125.01 118.163Z" fill="white" stroke="#2E353A" stroke-width="0.5" stroke-miterlimit="10"/>
<path d="M136.85 118.222L134.332 117.523L133.3 117.515L135.81 118.214L136.85 118.222Z" fill="white" stroke="#2E353A" stroke-width="0.5" stroke-miterlimit="10"/>
<path d="M135.81 118.214L133.299 117.515L132.256 117.508L134.767 118.211L135.81 118.214Z" fill="white" stroke="#2E353A" stroke-width="0.5" stroke-miterlimit="10"/>
<path d="M138.903 118.229L136.377 117.537L135.36 117.53L137.882 118.226L138.903 118.229Z" fill="white" stroke="#2E353A" stroke-width="0.5" stroke-miterlimit="10"/>
<path d="M132.651 118.2L130.152 117.494L129.09 117.483L131.583 118.193L132.651 118.2Z" fill="white" stroke="#2E353A" stroke-width="0.5" stroke-miterlimit="10"/>
<path d="M134.767 118.211L132.256 117.508L131.209 117.501L133.713 118.204L134.767 118.211Z" fill="white" stroke="#2E353A" stroke-width="0.5" stroke-miterlimit="10"/>
<path d="M133.713 118.204L131.209 117.501L130.152 117.494L132.651 118.2L133.713 118.204Z" fill="white" stroke="#2E353A" stroke-width="0.5" stroke-miterlimit="10"/>
<path d="M131.583 118.193L129.09 117.483L128.018 117.475L130.507 118.189L131.583 118.193Z" fill="white" stroke="#2E353A" stroke-width="0.5" stroke-miterlimit="10"/>
<path d="M134.767 118.211L137.34 118.932L138.39 118.935L135.81 118.214L134.767 118.211Z" fill="white" stroke="#2E353A" stroke-width="0.5" stroke-miterlimit="10"/>
<path d="M135.81 118.214L138.39 118.935L139.43 118.939L136.849 118.222L135.81 118.214Z" fill="white" stroke="#2E353A" stroke-width="0.5" stroke-miterlimit="10"/>
<path d="M126.125 118.167L128.658 118.91L129.774 118.913L127.234 118.174L126.125 118.167Z" fill="white" stroke="#2E353A" stroke-width="0.5" stroke-miterlimit="10"/>
<path d="M136.849 118.222L139.43 118.939H140.465L137.881 118.225L136.849 118.222Z" fill="white" stroke="#2E353A" stroke-width="0.5" stroke-miterlimit="10"/>
<path d="M132.652 118.2L135.217 118.925L136.282 118.928L133.713 118.204L132.652 118.2Z" fill="white" stroke="#2E353A" stroke-width="0.5" stroke-miterlimit="10"/>
<path d="M137.882 118.226L140.466 118.939L141.494 118.943L138.903 118.229L137.882 118.226Z" fill="white" stroke="#2E353A" stroke-width="0.5" stroke-miterlimit="10"/>
<path d="M133.713 118.203L136.282 118.928L137.34 118.932L134.767 118.211L133.713 118.203Z" fill="white" stroke="#2E353A" stroke-width="0.5" stroke-miterlimit="10"/>
<path d="M128.333 118.178L130.876 118.917H131.974L129.423 118.185L128.333 118.178Z" fill="white" stroke="#2E353A" stroke-width="0.5" stroke-miterlimit="10"/>
<path d="M127.235 118.174L129.775 118.914L130.877 118.917L128.333 118.178L127.235 118.174Z" fill="white" stroke="#2E353A" stroke-width="0.5" stroke-miterlimit="10"/>
<path d="M131.583 118.193L134.145 118.924H135.217L132.651 118.2L131.583 118.193Z" fill="white" stroke="#2E353A" stroke-width="0.5" stroke-miterlimit="10"/>
<path d="M130.507 118.189L133.065 118.921L134.145 118.925L131.583 118.193L130.507 118.189Z" fill="white" stroke="#2E353A" stroke-width="0.5" stroke-miterlimit="10"/>
<path d="M129.423 118.185L131.974 118.917L133.065 118.921L130.507 118.189L129.423 118.185Z" fill="white" stroke="#2E353A" stroke-width="0.5" stroke-miterlimit="10"/>
<path d="M137.881 118.226L135.36 117.53L134.331 117.523L136.849 118.222L137.881 118.226Z" fill="white" stroke="#2E353A" stroke-width="0.5" stroke-miterlimit="10"/>
<path d="M120.145 116.728L117.587 115.974L116.482 115.964L119.033 116.717L120.145 116.728Z" fill="white" stroke="#2E353A" stroke-width="0.5" stroke-miterlimit="10"/>
<path d="M119.033 116.718L117.997 116.707L120.387 117.42L121.426 117.428L119.033 116.718Z" fill="white" stroke="#2E353A" stroke-width="0.5" stroke-miterlimit="10"/>
<path d="M116.482 115.964L115.453 115.949L117.997 116.707L119.033 116.718L116.482 115.964Z" fill="white" stroke="#2E353A" stroke-width="0.5" stroke-miterlimit="10"/>
<path d="M121.426 117.428L120.387 117.42L122.839 118.152L123.886 118.156L121.426 117.428Z" fill="white" stroke="#2E353A" stroke-width="0.5" stroke-miterlimit="10"/>
<path d="M123.886 118.156L122.839 118.152L125.357 118.903H126.407L123.886 118.156Z" fill="white" stroke="#2E353A" stroke-width="0.5" stroke-miterlimit="10"/>
<path d="M126.408 118.902H125.357L127.945 119.671H129.003L126.408 118.902Z" fill="white" stroke="#2E353A" stroke-width="0.5" stroke-miterlimit="10"/>
<path d="M138.397 117.552L140.93 118.24L141.816 118.247L139.28 117.559L138.397 117.552Z" fill="white" stroke="#2E353A" stroke-width="0.5" stroke-miterlimit="10"/>
<path d="M143.525 118.946L144.415 118.95L141.816 118.247L140.93 118.24L143.525 118.946Z" fill="white" stroke="#2E353A" stroke-width="0.5" stroke-miterlimit="10"/>
<path d="M146.19 119.671H147.079L144.415 118.95L143.525 118.947L146.19 119.671Z" fill="white" stroke="#2E353A" stroke-width="0.5" stroke-miterlimit="10"/>
<path d="M128.768 116.813L126.162 116.077L125.116 116.066L127.718 116.802L128.768 116.813Z" fill="white" stroke="#2E353A" stroke-width="0.5" stroke-miterlimit="10"/>
<path d="M138.398 117.552L139.28 117.559L136.806 116.89L135.924 116.879L138.398 117.552Z" fill="white" stroke="#2E353A" stroke-width="0.5" stroke-miterlimit="10"/>
<path d="M142.511 118.947H143.525L140.93 118.24L139.92 118.237L142.511 118.947Z" fill="white" stroke="#2E353A" stroke-width="0.5" stroke-miterlimit="10"/>
<path d="M121.251 116.74L118.685 115.989L117.587 115.975L120.145 116.729L121.251 116.74Z" fill="white" stroke="#2E353A" stroke-width="0.5" stroke-miterlimit="10"/>
<path d="M134.924 116.871L137.391 117.545L138.398 117.552L135.923 116.879L134.924 116.871Z" fill="white" stroke="#2E353A" stroke-width="0.5" stroke-miterlimit="10"/>
<path d="M136.805 116.89L134.163 116.172L133.288 116.161L135.923 116.879L136.805 116.89Z" fill="white" stroke="#2E353A" stroke-width="0.5" stroke-miterlimit="10"/>
<path d="M135.923 116.878L133.288 116.161L132.289 116.15L134.924 116.871L135.923 116.878Z" fill="white" stroke="#2E353A" stroke-width="0.5" stroke-miterlimit="10"/>
<path d="M139.43 118.939L142.08 119.671H143.119L140.465 118.939H139.43Z" fill="white" stroke="#2E353A" stroke-width="0.5" stroke-miterlimit="10"/>
<path d="M145.172 119.671H146.189L143.525 118.947H142.511L145.172 119.671Z" fill="white" stroke="#2E353A" stroke-width="0.5" stroke-miterlimit="10"/>
<path d="M134.924 116.871L132.289 116.15L131.286 116.139L133.914 116.86L134.924 116.871Z" fill="white" stroke="#2E353A" stroke-width="0.5" stroke-miterlimit="10"/>
<path d="M141.494 118.943L144.147 119.671H145.172L142.511 118.947L141.494 118.943Z" fill="white" stroke="#2E353A" stroke-width="0.5" stroke-miterlimit="10"/>
<path d="M140.465 118.939L143.119 119.671H144.147L141.494 118.943L140.465 118.939Z" fill="white" stroke="#2E353A" stroke-width="0.5" stroke-miterlimit="10"/>
<path d="M139.92 118.236L140.93 118.24L138.398 117.552L137.391 117.545L139.92 118.236Z" fill="white" stroke="#2E353A" stroke-width="0.5" stroke-miterlimit="10"/>
<path d="M125.591 116.78L123.004 116.04L121.935 116.026L124.519 116.769L125.591 116.78Z" fill="white" stroke="#2E353A" stroke-width="0.5" stroke-miterlimit="10"/>
<path d="M133.914 116.86L131.286 116.139L130.276 116.125L132.9 116.849L133.914 116.86Z" fill="white" stroke="#2E353A" stroke-width="0.5" stroke-miterlimit="10"/>
<path d="M124.519 116.769L121.935 116.026L120.859 116.015L123.436 116.762L124.519 116.769Z" fill="white" stroke="#2E353A" stroke-width="0.5" stroke-miterlimit="10"/>
<path d="M127.718 116.802L125.116 116.066L124.065 116.052L126.656 116.791L127.718 116.802Z" fill="white" stroke="#2E353A" stroke-width="0.5" stroke-miterlimit="10"/>
<path d="M123.436 116.761L120.859 116.015L119.776 116L122.349 116.75L123.436 116.761Z" fill="white" stroke="#2E353A" stroke-width="0.5" stroke-miterlimit="10"/>
<path d="M122.349 116.75L119.776 116L118.685 115.989L121.251 116.739L122.349 116.75Z" fill="white" stroke="#2E353A" stroke-width="0.5" stroke-miterlimit="10"/>
<path d="M126.657 116.791L124.065 116.052L123.004 116.041L125.591 116.78L126.657 116.791Z" fill="white" stroke="#2E353A" stroke-width="0.5" stroke-miterlimit="10"/>
<path d="M132.9 116.849L130.276 116.125L129.259 116.114L131.879 116.842L132.9 116.849Z" fill="white" stroke="#2E353A" stroke-width="0.5" stroke-miterlimit="10"/>
<path d="M131.879 116.842L129.259 116.114L128.234 116.103L130.847 116.831L131.879 116.842Z" fill="white" stroke="#2E353A" stroke-width="0.5" stroke-miterlimit="10"/>
<path d="M129.812 116.82L127.202 116.088L126.163 116.077L128.769 116.813L129.812 116.82Z" fill="white" stroke="#2E353A" stroke-width="0.5" stroke-miterlimit="10"/>
<path d="M139.429 118.939L138.39 118.936L137.34 118.932L136.282 118.928L135.217 118.925H134.144L133.065 118.921L131.974 118.917H130.876L129.774 118.914L128.658 118.91L131.264 119.671H132.38H133.493H134.595H135.685H136.772H137.848H138.917H139.978H141.033H142.079L139.429 118.939Z" fill="white" stroke="#2E353A" stroke-width="0.5" stroke-miterlimit="10"/>
<path d="M130.847 116.831L128.234 116.103L127.202 116.088L129.811 116.82L130.847 116.831Z" fill="white" stroke="#2E353A" stroke-width="0.5" stroke-miterlimit="10"/>
<path d="M108.312 115.257V116.004L127.762 121.842L127.769 120.883L108.312 115.257Z" fill="white" stroke="#2E353A" stroke-width="0.5" stroke-linecap="round" stroke-linejoin="round"/>
<path d="M154 120.883H127.769V121.838H154V120.883Z" fill="#2E353A" stroke="#2E353A" stroke-width="0.5" stroke-linecap="round" stroke-linejoin="round"/>
<path d="M50.6573 115.257L25.7696 115.257L25.7696 92.9134H50.6573C50.8146 92.9134 50.9654 92.9758 51.0766 93.087C51.1878 93.1982 51.2502 93.349 51.2502 93.5063V114.661C51.2507 114.739 51.2357 114.817 51.2062 114.889C51.1766 114.961 51.133 115.027 51.0779 115.083C51.0228 115.138 50.9572 115.182 50.8851 115.212C50.8129 115.242 50.7355 115.257 50.6573 115.257Z" fill="white" stroke="#2E353A" stroke-width="0.5" stroke-linecap="round" stroke-linejoin="round"/>
<path d="M24.913 115.257H50.5803V92.9134H24.913L24.913 115.257Z" fill="#2E353A" stroke="#2E353A" stroke-width="0.5" stroke-miterlimit="10"/>
<path d="M26.3146 113.49H48.6038V94.6811H26.3146L26.3146 113.49Z" fill="white" stroke="#2E353A" stroke-width="0.5" stroke-linecap="round" stroke-linejoin="round"/>
<path d="M39.5967 102.279L36.2734 97.21L32.9502 102.279H34.341V110.217H38.2059V102.279H39.5967Z" fill="#F39712"/>
<path d="M50.5804 115.257L31.124 120.883H4.89307L24.9131 115.257H50.5804Z" fill="white" stroke="#2E353A" stroke-width="0.5" stroke-linecap="round" stroke-linejoin="round"/>
<path d="M29.8027 117.482L32.2366 116.791L33.3017 116.78L30.8751 117.475L29.8027 117.482Z" fill="white" stroke="#2E353A" stroke-width="0.5" stroke-miterlimit="10"/>
<path d="M27.6836 117.501L30.1248 116.813L31.1752 116.802L28.7413 117.494L27.6836 117.501Z" fill="white" stroke="#2E353A" stroke-width="0.5" stroke-miterlimit="10"/>
<path d="M19.9904 118.229L18.9729 118.237L21.5019 117.545L22.5157 117.538L19.9904 118.229Z" fill="white" stroke="#2E353A" stroke-width="0.5" stroke-miterlimit="10"/>
<path d="M30.875 117.475L33.3016 116.78L34.3739 116.769L31.9547 117.468L30.875 117.475Z" fill="white" stroke="#2E353A" stroke-width="0.5" stroke-miterlimit="10"/>
<path d="M33.0383 117.461L35.4576 116.761L36.5446 116.75L34.1327 117.453L33.0383 117.461Z" fill="white" stroke="#2E353A" stroke-width="0.5" stroke-miterlimit="10"/>
<path d="M23.5332 117.53L25.9927 116.849L27.0138 116.842L24.5617 117.523L23.5332 117.53Z" fill="white" stroke="#2E353A" stroke-width="0.5" stroke-miterlimit="10"/>
<path d="M22.5159 117.538L24.979 116.86L25.9928 116.849L23.5333 117.53L22.5159 117.538Z" fill="white" stroke="#2E353A" stroke-width="0.5" stroke-miterlimit="10"/>
<path d="M34.1323 117.453L36.5442 116.751L37.6422 116.74L35.2376 117.446L34.1323 117.453Z" fill="white" stroke="#2E353A" stroke-width="0.5" stroke-miterlimit="10"/>
<path d="M26.637 117.508L29.0818 116.82L30.1249 116.813L27.6837 117.501L26.637 117.508Z" fill="white" stroke="#2E353A" stroke-width="0.5" stroke-miterlimit="10"/>
<path d="M21.502 117.545L23.9688 116.871L24.9789 116.86L22.5158 117.537L21.502 117.545Z" fill="white" stroke="#2E353A" stroke-width="0.5" stroke-miterlimit="10"/>
<path d="M24.5618 117.523L27.0139 116.842L28.0461 116.831L25.5939 117.516L24.5618 117.523Z" fill="white" stroke="#2E353A" stroke-width="0.5" stroke-miterlimit="10"/>
<path d="M25.594 117.515L28.0462 116.831L29.0819 116.82L26.6371 117.508L25.594 117.515Z" fill="white" stroke="#2E353A" stroke-width="0.5" stroke-miterlimit="10"/>
<path d="M28.741 117.493L31.1748 116.802L32.2362 116.791L29.8024 117.482L28.741 117.493Z" fill="white" stroke="#2E353A" stroke-width="0.5" stroke-miterlimit="10"/>
<path d="M36.3467 117.435L37.4667 117.428L35.0072 118.156L33.8835 118.163L36.3467 117.435Z" fill="white" stroke="#2E353A" stroke-width="0.5" stroke-miterlimit="10"/>
<path d="M38.7476 116.729L39.8602 116.718L37.4666 117.428L36.3467 117.435L38.7476 116.729Z" fill="white" stroke="#2E353A" stroke-width="0.5" stroke-miterlimit="10"/>
<path d="M35.2378 117.446L37.6424 116.74L38.7477 116.729L36.3468 117.435L35.2378 117.446Z" fill="white" stroke="#2E353A" stroke-width="0.5" stroke-miterlimit="10"/>
<path d="M32.4854 118.902L29.8904 119.671H28.7559L31.3544 118.906L32.4854 118.902Z" fill="white" stroke="#2E353A" stroke-width="0.5" stroke-miterlimit="10"/>
<path d="M33.8838 118.163L35.0074 118.156L32.4857 118.903L31.3547 118.906L33.8838 118.163Z" fill="white" stroke="#2E353A" stroke-width="0.5" stroke-miterlimit="10"/>
<path d="M31.3545 118.906L28.7559 119.671H27.6287L30.2309 118.91L31.3545 118.906Z" fill="white" stroke="#2E353A" stroke-width="0.5" stroke-miterlimit="10"/>
<path d="M31.9548 117.468L34.3741 116.769L35.4574 116.761L33.0382 117.461L31.9548 117.468Z" fill="white" stroke="#2E353A" stroke-width="0.5" stroke-miterlimit="10"/>
<path d="M29.4697 118.185L31.9548 117.468L33.0382 117.46L30.5604 118.178L29.4697 118.185Z" fill="white" stroke="#2E353A" stroke-width="0.5" stroke-miterlimit="10"/>
<path d="M30.5603 118.178L33.0381 117.461L34.1324 117.453L31.6583 118.174L30.5603 118.178Z" fill="white" stroke="#2E353A" stroke-width="0.5" stroke-miterlimit="10"/>
<path d="M28.3862 118.189L30.875 117.475L31.9547 117.468L29.4696 118.185L28.3862 118.189Z" fill="white" stroke="#2E353A" stroke-width="0.5" stroke-miterlimit="10"/>
<path d="M35.2381 117.446L36.347 117.435L33.8839 118.163L32.7676 118.167L35.2381 117.446Z" fill="white" stroke="#2E353A" stroke-width="0.5" stroke-miterlimit="10"/>
<path d="M17.3993 118.943L16.3818 118.946L18.9731 118.236L19.9906 118.229L17.3993 118.943Z" fill="white" stroke="#2E353A" stroke-width="0.5" stroke-miterlimit="10"/>
<path d="M31.6582 118.174L34.1323 117.453L35.2376 117.446L32.7672 118.167L31.6582 118.174Z" fill="white" stroke="#2E353A" stroke-width="0.5" stroke-miterlimit="10"/>
<path d="M33.8836 118.163L31.3546 118.906L30.231 118.91L32.7673 118.167L33.8836 118.163Z" fill="white" stroke="#2E353A" stroke-width="0.5" stroke-miterlimit="10"/>
<path d="M22.0437 118.222L24.5618 117.523L25.5939 117.515L23.0831 118.214L22.0437 118.222Z" fill="white" stroke="#2E353A" stroke-width="0.5" stroke-miterlimit="10"/>
<path d="M23.083 118.214L25.5937 117.515L26.6368 117.508L24.1261 118.211L23.083 118.214Z" fill="white" stroke="#2E353A" stroke-width="0.5" stroke-miterlimit="10"/>
<path d="M19.9902 118.229L22.5156 117.537L23.5331 117.53L21.0114 118.226L19.9902 118.229Z" fill="white" stroke="#2E353A" stroke-width="0.5" stroke-miterlimit="10"/>
<path d="M26.2419 118.2L28.7417 117.494L29.8031 117.483L27.3107 118.193L26.2419 118.2Z" fill="white" stroke="#2E353A" stroke-width="0.5" stroke-miterlimit="10"/>
<path d="M24.1262 118.211L26.637 117.508L27.6837 117.501L25.1803 118.204L24.1262 118.211Z" fill="white" stroke="#2E353A" stroke-width="0.5" stroke-miterlimit="10"/>
<path d="M25.1802 118.204L27.6836 117.501L28.7413 117.494L26.2416 118.2L25.1802 118.204Z" fill="white" stroke="#2E353A" stroke-width="0.5" stroke-miterlimit="10"/>
<path d="M27.3103 118.193L29.8027 117.483L30.8751 117.475L28.3863 118.189L27.3103 118.193Z" fill="white" stroke="#2E353A" stroke-width="0.5" stroke-miterlimit="10"/>
<path d="M24.1261 118.211L21.5531 118.932L20.5027 118.935L23.083 118.214L24.1261 118.211Z" fill="white" stroke="#2E353A" stroke-width="0.5" stroke-miterlimit="10"/>
<path d="M23.0831 118.214L20.5028 118.935L19.4634 118.939L22.0437 118.222L23.0831 118.214Z" fill="white" stroke="#2E353A" stroke-width="0.5" stroke-miterlimit="10"/>
<path d="M32.7671 118.167L30.2308 118.91L29.1182 118.913L31.6582 118.174L32.7671 118.167Z" fill="white" stroke="#2E353A" stroke-width="0.5" stroke-miterlimit="10"/>
<path d="M22.0438 118.222L19.4635 118.939H18.4277L21.0117 118.225L22.0438 118.222Z" fill="white" stroke="#2E353A" stroke-width="0.5" stroke-miterlimit="10"/>
<path d="M26.2415 118.2L23.6759 118.925L22.6108 118.928L25.1801 118.204L26.2415 118.2Z" fill="white" stroke="#2E353A" stroke-width="0.5" stroke-miterlimit="10"/>
<path d="M21.0116 118.226L18.4276 118.939L17.3992 118.943L19.9904 118.229L21.0116 118.226Z" fill="white" stroke="#2E353A" stroke-width="0.5" stroke-miterlimit="10"/>
<path d="M25.18 118.203L22.6107 118.928L21.553 118.932L24.1259 118.211L25.18 118.203Z" fill="white" stroke="#2E353A" stroke-width="0.5" stroke-miterlimit="10"/>
<path d="M30.5604 118.178L28.0167 118.917H26.9187L29.4697 118.185L30.5604 118.178Z" fill="white" stroke="#2E353A" stroke-width="0.5" stroke-miterlimit="10"/>
<path d="M31.6583 118.174L29.1183 118.914L28.0166 118.917L30.5603 118.178L31.6583 118.174Z" fill="white" stroke="#2E353A" stroke-width="0.5" stroke-miterlimit="10"/>
<path d="M27.3101 118.193L24.7482 118.924H23.6758L26.2414 118.2L27.3101 118.193Z" fill="white" stroke="#2E353A" stroke-width="0.5" stroke-miterlimit="10"/>
<path d="M28.3861 118.189L25.8277 118.921L24.748 118.925L27.31 118.193L28.3861 118.189Z" fill="white" stroke="#2E353A" stroke-width="0.5" stroke-miterlimit="10"/>
<path d="M29.4698 118.185L26.9188 118.917L25.8281 118.921L28.3864 118.189L29.4698 118.185Z" fill="white" stroke="#2E353A" stroke-width="0.5" stroke-miterlimit="10"/>
<path d="M21.0115 118.226L23.5332 117.53L24.5616 117.523L22.0436 118.222L21.0115 118.226Z" fill="white" stroke="#2E353A" stroke-width="0.5" stroke-miterlimit="10"/>
<path d="M38.7476 116.728L41.3059 115.974L42.4112 115.964L39.8602 116.717L38.7476 116.728Z" fill="white" stroke="#2E353A" stroke-width="0.5" stroke-miterlimit="10"/>
<path d="M39.8604 116.718L40.8962 116.707L38.5062 117.42L37.4668 117.428L39.8604 116.718Z" fill="white" stroke="#2E353A" stroke-width="0.5" stroke-miterlimit="10"/>
<path d="M42.4113 115.964L43.4398 115.949L40.8961 116.707L39.8604 116.718L42.4113 115.964Z" fill="white" stroke="#2E353A" stroke-width="0.5" stroke-miterlimit="10"/>
<path d="M37.4666 117.428L38.506 117.42L36.0538 118.152L35.0071 118.156L37.4666 117.428Z" fill="white" stroke="#2E353A" stroke-width="0.5" stroke-miterlimit="10"/>
<path d="M35.0071 118.156L36.0538 118.152L33.5358 118.903H32.4854L35.0071 118.156Z" fill="white" stroke="#2E353A" stroke-width="0.5" stroke-miterlimit="10"/>
<path d="M32.4853 118.902H33.5357L30.9481 119.671H29.8904L32.4853 118.902Z" fill="white" stroke="#2E353A" stroke-width="0.5" stroke-miterlimit="10"/>
<path d="M20.4953 117.552L17.9626 118.24L17.0769 118.247L19.6133 117.559L20.4953 117.552Z" fill="white" stroke="#2E353A" stroke-width="0.5" stroke-miterlimit="10"/>
<path d="M15.3679 118.946L14.4785 118.95L17.0771 118.247L17.9628 118.24L15.3679 118.946Z" fill="white" stroke="#2E353A" stroke-width="0.5" stroke-miterlimit="10"/>
<path d="M12.7031 119.671H11.8137L14.4782 118.95L15.3675 118.947L12.7031 119.671Z" fill="white" stroke="#2E353A" stroke-width="0.5" stroke-miterlimit="10"/>
<path d="M30.125 116.813L32.7309 116.077L33.7776 116.066L31.1754 116.802L30.125 116.813Z" fill="white" stroke="#2E353A" stroke-width="0.5" stroke-miterlimit="10"/>
<path d="M20.4956 117.552L19.6135 117.559L22.0877 116.89L22.9661 116.879L20.4956 117.552Z" fill="white" stroke="#2E353A" stroke-width="0.5" stroke-miterlimit="10"/>
<path d="M16.3817 118.947H15.3679L17.9628 118.24L18.973 118.237L16.3817 118.947Z" fill="white" stroke="#2E353A" stroke-width="0.5" stroke-miterlimit="10"/>
<path d="M37.6426 116.74L40.2082 115.989L41.3062 115.975L38.7479 116.729L37.6426 116.74Z" fill="white" stroke="#2E353A" stroke-width="0.5" stroke-miterlimit="10"/>
<path d="M23.9689 116.871L21.5021 117.545L20.4956 117.552L22.9661 116.879L23.9689 116.871Z" fill="white" stroke="#2E353A" stroke-width="0.5" stroke-miterlimit="10"/>
<path d="M22.0876 116.89L24.7301 116.172L25.6049 116.161L22.966 116.879L22.0876 116.89Z" fill="white" stroke="#2E353A" stroke-width="0.5" stroke-miterlimit="10"/>
<path d="M22.9658 116.878L25.6047 116.161L26.6038 116.15L23.9687 116.871L22.9658 116.878Z" fill="white" stroke="#2E353A" stroke-width="0.5" stroke-miterlimit="10"/>
<path d="M19.4632 118.939L16.8134 119.671H15.7739L18.4274 118.939H19.4632Z" fill="white" stroke="#2E353A" stroke-width="0.5" stroke-miterlimit="10"/>
<path d="M13.7211 119.671H12.7036L15.3681 118.947H16.3819L13.7211 119.671Z" fill="white" stroke="#2E353A" stroke-width="0.5" stroke-miterlimit="10"/>
<path d="M23.9688 116.871L26.6039 116.15L27.6068 116.139L24.9789 116.86L23.9688 116.871Z" fill="white" stroke="#2E353A" stroke-width="0.5" stroke-miterlimit="10"/>
<path d="M17.3992 118.943L14.7457 119.671H13.7209L16.3817 118.947L17.3992 118.943Z" fill="white" stroke="#2E353A" stroke-width="0.5" stroke-miterlimit="10"/>
<path d="M18.4275 118.939L15.7741 119.671H14.7456L17.3991 118.943L18.4275 118.939Z" fill="white" stroke="#2E353A" stroke-width="0.5" stroke-miterlimit="10"/>
<path d="M18.9728 118.236L17.9626 118.24L20.4953 117.552L21.5018 117.545L18.9728 118.236Z" fill="white" stroke="#2E353A" stroke-width="0.5" stroke-miterlimit="10"/>
<path d="M33.3018 116.78L35.8894 116.04L36.9581 116.026L34.3741 116.769L33.3018 116.78Z" fill="white" stroke="#2E353A" stroke-width="0.5" stroke-miterlimit="10"/>
<path d="M24.979 116.86L27.6069 116.139L28.617 116.125L25.9928 116.849L24.979 116.86Z" fill="white" stroke="#2E353A" stroke-width="0.5" stroke-miterlimit="10"/>
<path d="M34.374 116.769L36.958 116.026L38.034 116.015L35.4574 116.762L34.374 116.769Z" fill="white" stroke="#2E353A" stroke-width="0.5" stroke-miterlimit="10"/>
<path d="M31.1755 116.802L33.7778 116.066L34.8282 116.052L32.2369 116.791L31.1755 116.802Z" fill="white" stroke="#2E353A" stroke-width="0.5" stroke-miterlimit="10"/>
<path d="M35.4573 116.761L38.0339 116.015L39.1172 116L36.5443 116.75L35.4573 116.761Z" fill="white" stroke="#2E353A" stroke-width="0.5" stroke-miterlimit="10"/>
<path d="M36.5447 116.75L39.1176 116L40.2083 115.989L37.6427 116.739L36.5447 116.75Z" fill="white" stroke="#2E353A" stroke-width="0.5" stroke-miterlimit="10"/>
<path d="M32.2366 116.791L34.8278 116.052L35.8892 116.041L33.3016 116.78L32.2366 116.791Z" fill="white" stroke="#2E353A" stroke-width="0.5" stroke-miterlimit="10"/>
<path d="M25.9927 116.849L28.6169 116.125L29.6343 116.114L27.0138 116.842L25.9927 116.849Z" fill="white" stroke="#2E353A" stroke-width="0.5" stroke-miterlimit="10"/>
<path d="M27.0137 116.842L29.6342 116.114L30.659 116.103L28.0458 116.831L27.0137 116.842Z" fill="white" stroke="#2E353A" stroke-width="0.5" stroke-miterlimit="10"/>
<path d="M29.0815 116.82L31.6911 116.088L32.7305 116.077L30.1246 116.813L29.0815 116.82Z" fill="white" stroke="#2E353A" stroke-width="0.5" stroke-miterlimit="10"/>
<path d="M19.4633 118.939L20.5027 118.936L21.5531 118.932L22.6109 118.928L23.6759 118.925H24.7483L25.828 118.921L26.9186 118.917H28.0166L29.1183 118.914L30.2309 118.91L27.6287 119.671H26.5124H25.3998H24.3018H23.2074H22.1204H21.0444H19.9757H18.9143H17.8602H16.8135L19.4633 118.939Z" fill="white" stroke="#2E353A" stroke-width="0.5" stroke-miterlimit="10"/>
<path d="M28.0459 116.831L30.6591 116.103L31.6912 116.088L29.0817 116.82L28.0459 116.831Z" fill="white" stroke="#2E353A" stroke-width="0.5" stroke-miterlimit="10"/>
<path d="M50.5804 115.257V116.004L31.1277 121.842L31.124 120.883L50.5804 115.257Z" fill="white" stroke="#2E353A" stroke-width="0.5" stroke-linecap="round" stroke-linejoin="round"/>
<path d="M4.89305 121.841H31.124V120.886H4.89305V121.841Z" fill="#2E353A" stroke="#2E353A" stroke-width="0.5" stroke-linecap="round" stroke-linejoin="round"/>
</g>
<defs>
<filter id="filter0_d_704_2616" x="0" y="0.0145264" width="158.25" height="133.971" filterUnits="userSpaceOnUse" color-interpolation-filters="sRGB">
<feFlood flood-opacity="0" result="BackgroundImageFix"/>
<feColorMatrix in="SourceAlpha" type="matrix" values="0 0 0 0 0 0 0 0 0 0 0 0 0 0 0 0 0 0 127 0" result="hardAlpha"/>
<feOffset dy="4"/>
<feGaussianBlur stdDeviation="2"/>
<feComposite in2="hardAlpha" operator="out"/>
<feColorMatrix type="matrix" values="0 0 0 0 0 0 0 0 0 0 0 0 0 0 0 0 0 0 0.25 0"/>
<feBlend mode="normal" in2="BackgroundImageFix" result="effect1_dropShadow_704_2616"/>
<feBlend mode="normal" in="SourceGraphic" in2="effect1_dropShadow_704_2616" result="shape"/>
</filter>
</defs>
</svg>
