<svg width="150" height="147" viewBox="0 0 150 147" fill="none" xmlns="http://www.w3.org/2000/svg">
<path d="M117.388 96.5026L117.44 93.3647H118.034L118.479 95.5406L118.944 93.3647H119.519L119.577 96.5026H119.151L119.102 94.3235L118.651 96.5026H118.328L117.873 94.3171L117.831 96.5026H117.388Z" fill="#263238"/>
<path d="M119.88 96.5026L120.51 93.3647H121.12L121.766 96.5026H121.233L121.11 95.7794H120.565L120.436 96.5026H119.88ZM120.607 95.4147H121.033L120.82 94.0975L120.607 95.4147Z" fill="#263238"/>
<path d="M122.047 96.5025V93.3646H122.799C122.981 93.3601 123.162 93.3863 123.335 93.4421C123.47 93.487 123.584 93.5786 123.658 93.7004C123.743 93.8505 123.783 94.0219 123.774 94.1943C123.774 94.3093 123.763 94.4241 123.738 94.5365C123.719 94.6307 123.678 94.7191 123.619 94.7947C123.559 94.8692 123.479 94.9261 123.39 94.9594L123.829 96.5025H123.254L122.876 95.0659H122.612V96.5025H122.047ZM122.621 94.7076H122.799C122.89 94.7114 122.98 94.6949 123.064 94.6591C123.129 94.6278 123.18 94.5723 123.206 94.5042C123.237 94.4162 123.251 94.3231 123.248 94.2298C123.256 94.1052 123.226 93.9811 123.16 93.8747C123.119 93.832 123.068 93.7994 123.012 93.7792C122.956 93.7591 122.897 93.752 122.838 93.7585H122.628L122.621 94.7076Z" fill="#263238"/>
<path d="M124.213 96.5026V93.3647H124.784V94.7464L125.404 93.3647H125.95L125.349 94.769L126.011 96.5026H125.443L124.913 95.0757L124.784 95.3146V96.5026H124.213Z" fill="#263238"/>
<path d="M126.24 96.5026V93.3647H127.557V93.7683H126.811V94.6819H127.396V95.0822H126.811V96.1184H127.564V96.5123L126.24 96.5026Z" fill="#263238"/>
<path d="M128.209 96.5026V93.7876H127.712V93.3647H129.274V93.7876H128.784V96.5026H128.209Z" fill="#263238"/>
<path d="M130.353 96.5476C130.188 96.5529 130.025 96.5139 129.881 96.4346C129.753 96.3616 129.652 96.2481 129.594 96.1118C129.525 95.946 129.488 95.7685 129.484 95.5888L129.978 95.492C129.981 95.6008 129.995 95.709 130.02 95.8148C130.039 95.8944 130.078 95.9678 130.133 96.0279C130.159 96.0539 130.191 96.0742 130.225 96.0875C130.26 96.1009 130.296 96.1069 130.333 96.1054C130.371 96.109 130.408 96.1033 130.442 96.0886C130.477 96.0739 130.507 96.0508 130.53 96.0214C130.571 95.9592 130.591 95.8859 130.588 95.8116C130.595 95.6914 130.562 95.5725 130.495 95.4726C130.424 95.3753 130.342 95.2874 130.249 95.2112L129.852 94.8625C129.746 94.7708 129.657 94.6616 129.588 94.5397C129.518 94.405 129.484 94.2552 129.487 94.1039C129.481 93.998 129.497 93.892 129.535 93.7929C129.573 93.6938 129.632 93.6039 129.707 93.5292C129.87 93.3876 130.082 93.3157 130.298 93.3291C130.424 93.3248 130.549 93.3479 130.666 93.3969C130.76 93.4371 130.841 93.5018 130.901 93.5841C130.96 93.6672 131.004 93.7601 131.031 93.8585C131.06 93.964 131.078 94.0722 131.085 94.1813L130.598 94.2653C130.594 94.1762 130.582 94.0876 130.562 94.0006C130.55 93.9336 130.52 93.8712 130.475 93.8198C130.45 93.7972 130.42 93.7799 130.388 93.7688C130.356 93.7578 130.322 93.7531 130.288 93.7552C130.251 93.7525 130.214 93.7584 130.18 93.7724C130.146 93.7864 130.116 93.8082 130.091 93.8359C130.045 93.8957 130.021 93.97 130.023 94.0458C130.02 94.1372 130.043 94.2277 130.088 94.3072C130.142 94.3851 130.206 94.4556 130.278 94.5171L130.669 94.8625C130.796 94.9714 130.905 95.1 130.992 95.2434C131.087 95.4033 131.135 95.5868 131.131 95.7729C131.132 95.9116 131.098 96.0484 131.031 96.1699C130.967 96.2854 130.872 96.3805 130.756 96.4443C130.632 96.5117 130.494 96.5472 130.353 96.5476Z" fill="#263238"/>
<path d="M134.03 74.5572H121.362V89.9041H134.03V74.5572Z" fill="#263238" stroke="#263238" stroke-width="0.5" stroke-linecap="round" stroke-linejoin="round"/>
<path d="M128.965 74.5572H116.297V89.9041H128.965V74.5572Z" fill="white" stroke="#263238" stroke-width="0.5" stroke-linecap="round" stroke-linejoin="round"/>
<path d="M134.03 86.2432H121.362V89.904H134.03V86.2432Z" fill="white" stroke="#263238" stroke-width="0.5" stroke-linecap="round" stroke-linejoin="round"/>
<path d="M128.965 86.2432H116.297V89.904H128.965V86.2432Z" fill="white" stroke="#263238" stroke-width="0.5" stroke-linecap="round" stroke-linejoin="round"/>
<path d="M124.452 83.4443H120.813V89.9072H124.452V83.4443Z" fill="white" stroke="#263238" stroke-width="0.5" stroke-linecap="round" stroke-linejoin="round"/>
<path d="M116.51 81.0362H113.766L115.752 74.5572H118.496L116.51 81.0362Z" fill="white" stroke="#263238" stroke-width="0.5" stroke-linecap="round" stroke-linejoin="round"/>
<path d="M113.766 80.7552H116.51V82.0077C116.51 82.3605 116.37 82.6988 116.121 82.9482C115.871 83.1976 115.533 83.3378 115.18 83.3378H115.099C114.747 83.3378 114.408 83.1976 114.159 82.9482C113.91 82.6988 113.769 82.3605 113.769 82.0077V80.7552H113.766Z" fill="white" stroke="#263238" stroke-width="0.5" stroke-linecap="round" stroke-linejoin="round"/>
<path d="M119.167 81.0362H116.423L118.408 74.5572H121.152L119.167 81.0362Z" fill="#263238" stroke="#263238" stroke-width="0.5" stroke-linecap="round" stroke-linejoin="round"/>
<path d="M116.423 80.7552H119.167V82.0077C119.167 82.3605 119.027 82.6988 118.777 82.9482C118.528 83.1976 118.19 83.3378 117.837 83.3378H117.75C117.397 83.3378 117.059 83.1976 116.809 82.9482C116.56 82.6988 116.42 82.3605 116.42 82.0077V80.7552H116.423Z" fill="#263238" stroke="#263238" stroke-width="0.5" stroke-linecap="round" stroke-linejoin="round"/>
<path d="M121.824 81.0362H119.076L121.062 74.5572H123.809L121.824 81.0362Z" fill="white" stroke="#263238" stroke-width="0.5" stroke-linecap="round" stroke-linejoin="round"/>
<path d="M119.076 80.7552H121.82V82.0077C121.82 82.1824 121.786 82.3554 121.719 82.5167C121.652 82.6781 121.554 82.8247 121.431 82.9482C121.307 83.0717 121.161 83.1697 120.999 83.2365C120.838 83.3034 120.665 83.3378 120.49 83.3378H120.403C120.051 83.3378 119.712 83.1976 119.463 82.9482C119.213 82.6988 119.073 82.3605 119.073 82.0077V80.7552H119.076Z" fill="white" stroke="#263238" stroke-width="0.5" stroke-linecap="round" stroke-linejoin="round"/>
<path d="M124.477 81.0362H121.733L123.719 74.5572H126.463L124.477 81.0362Z" fill="#263238" stroke="#263238" stroke-width="0.5" stroke-linecap="round" stroke-linejoin="round"/>
<path d="M121.733 80.7552H124.477V82.0077C124.477 82.3605 124.337 82.6988 124.088 82.9482C123.838 83.1976 123.5 83.3378 123.147 83.3378H123.06C122.707 83.3378 122.369 83.1976 122.12 82.9482C121.87 82.6988 121.73 82.3605 121.73 82.0077V80.7552H121.733Z" fill="#263238" stroke="#263238" stroke-width="0.5" stroke-linecap="round" stroke-linejoin="round"/>
<path d="M127.134 81.0362H124.39L126.375 74.5572H129.119L127.134 81.0362Z" fill="white" stroke="#263238" stroke-width="0.5" stroke-linecap="round" stroke-linejoin="round"/>
<path d="M124.39 80.7552H127.134V82.0077C127.134 82.3605 126.994 82.6988 126.745 82.9482C126.495 83.1976 126.157 83.3378 125.804 83.3378H125.717C125.364 83.3378 125.026 83.1976 124.777 82.9482C124.527 82.6988 124.387 82.3605 124.387 82.0077V80.7552H124.39Z" fill="white" stroke="#263238" stroke-width="0.5" stroke-linecap="round" stroke-linejoin="round"/>
<path d="M112.762 75.6288L120.084 69.1595L126.311 71.6L133.755 66.4736" stroke="black" stroke-width="0.5" stroke-linecap="round" stroke-linejoin="round"/>
<path d="M133.755 67.0837C134.092 67.0837 134.365 66.8106 134.365 66.4736C134.365 66.1366 134.092 65.8635 133.755 65.8635C133.418 65.8635 133.145 66.1366 133.145 66.4736C133.145 66.8106 133.418 67.0837 133.755 67.0837Z" fill="#263238" stroke="#263238" stroke-width="0.5" stroke-linecap="round" stroke-linejoin="round"/>
<path d="M126.43 72.2102C126.767 72.2102 127.041 71.937 127.041 71.6001C127.041 71.2631 126.767 70.9899 126.43 70.9899C126.093 70.9899 125.82 71.2631 125.82 71.6001C125.82 71.937 126.093 72.2102 126.43 72.2102Z" fill="#263238" stroke="#263238" stroke-width="0.5" stroke-linecap="round" stroke-linejoin="round"/>
<path d="M120.084 69.7696C120.421 69.7696 120.694 69.4965 120.694 69.1595C120.694 68.8225 120.421 68.5494 120.084 68.5494C119.747 68.5494 119.474 68.8225 119.474 69.1595C119.474 69.4965 119.747 69.7696 120.084 69.7696Z" fill="#263238" stroke="#263238" stroke-width="0.5" stroke-linecap="round" stroke-linejoin="round"/>
<path d="M112.762 76.239C113.099 76.239 113.372 75.9658 113.372 75.6289C113.372 75.2919 113.099 75.0187 112.762 75.0187C112.425 75.0187 112.152 75.2919 112.152 75.6289C112.152 75.9658 112.425 76.239 112.762 76.239Z" fill="#263238" stroke="#263238" stroke-width="0.5" stroke-linecap="round" stroke-linejoin="round"/>
<path d="M119.851 59.4456C119.661 59.4559 119.472 59.4087 119.309 59.3101C119.18 59.2206 119.085 59.0912 119.038 58.942C118.983 58.7665 118.957 58.5835 118.96 58.3997V57.2827C118.957 57.0937 118.983 56.9052 119.038 56.7243C119.083 56.5746 119.179 56.4454 119.309 56.3595C119.474 56.2661 119.662 56.2213 119.851 56.2303C120.028 56.2215 120.205 56.2606 120.361 56.3433C120.484 56.4162 120.577 56.5307 120.623 56.6662C120.677 56.8195 120.703 56.9813 120.7 57.1439V57.4086H120.148V57.1375C120.154 57.0569 120.154 56.976 120.148 56.8954C120.143 56.8317 120.117 56.7714 120.074 56.7243C120.046 56.7002 120.013 56.6821 119.977 56.671C119.942 56.6599 119.904 56.6561 119.867 56.6597C119.789 56.6532 119.712 56.6775 119.651 56.7275C119.604 56.777 119.573 56.8403 119.564 56.9083C119.551 56.9937 119.544 57.0801 119.545 57.1665V58.5256C119.543 58.6201 119.552 58.7144 119.574 58.8065C119.586 58.8707 119.621 58.9287 119.671 58.9711C119.727 59.0128 119.797 59.0333 119.867 59.0292C119.904 59.0331 119.941 59.0291 119.977 59.0174C120.012 59.0057 120.044 58.9866 120.071 58.9614C120.113 58.9097 120.138 58.8468 120.145 58.7806C120.158 58.6973 120.163 58.6131 120.161 58.5288V58.2448H120.713V58.4966C120.716 58.6642 120.691 58.831 120.639 58.9905C120.591 59.1235 120.5 59.2369 120.381 59.3133C120.221 59.4092 120.037 59.4553 119.851 59.4456Z" fill="#263238"/>
<path d="M121.96 59.4457C121.77 59.4564 121.582 59.4128 121.417 59.3198C121.287 59.2345 121.192 59.105 121.149 58.955C121.097 58.7714 121.072 58.581 121.075 58.3901V56.2659H121.633V58.4547C121.633 58.5476 121.64 58.6404 121.653 58.7323C121.661 58.8097 121.693 58.8827 121.743 58.9421C121.772 58.9696 121.806 58.9906 121.843 59.004C121.88 59.0173 121.92 59.0227 121.96 59.0196C121.999 59.0233 122.039 59.0183 122.076 59.0049C122.114 58.9915 122.148 58.9701 122.176 58.9421C122.225 58.882 122.256 58.8093 122.266 58.7323C122.281 58.6404 122.288 58.5476 122.289 58.4547V56.2659H122.847V58.3901C122.852 58.5811 122.827 58.7718 122.773 58.955C122.731 59.1045 122.638 59.234 122.508 59.3198C122.342 59.4152 122.151 59.459 121.96 59.4457Z" fill="#263238"/>
<path d="M124.08 59.4457C123.916 59.452 123.753 59.4141 123.609 59.3359C123.482 59.2613 123.381 59.1483 123.322 59.0131C123.252 58.8472 123.215 58.6698 123.212 58.4901L123.706 58.3933C123.708 58.5023 123.723 58.6107 123.751 58.7161C123.768 58.7956 123.806 58.8691 123.861 58.9292C123.887 58.955 123.918 58.9752 123.953 58.9885C123.987 59.0019 124.024 59.008 124.061 59.0066C124.098 59.0103 124.136 59.0046 124.17 58.9899C124.205 58.9752 124.235 58.9521 124.258 58.9227C124.299 58.8595 124.319 58.785 124.316 58.7096C124.319 58.5954 124.287 58.483 124.226 58.3868C124.152 58.2899 124.069 58.2012 123.977 58.1221L123.58 57.7735C123.473 57.6824 123.384 57.5731 123.315 57.4506C123.246 57.316 123.213 57.166 123.218 57.0148C123.211 56.9097 123.227 56.8042 123.264 56.7056C123.302 56.6071 123.36 56.5176 123.435 56.4434C123.598 56.3016 123.81 56.2286 124.025 56.2401C124.152 56.2357 124.277 56.2589 124.393 56.3079C124.488 56.3492 124.569 56.415 124.629 56.4983C124.688 56.5802 124.732 56.6721 124.758 56.7695C124.788 56.8748 124.807 56.983 124.813 57.0923L124.326 57.1795C124.321 57.0906 124.31 57.0021 124.293 56.9148C124.28 56.8475 124.249 56.785 124.203 56.734C124.178 56.7102 124.149 56.6919 124.117 56.6802C124.084 56.6686 124.05 56.6638 124.016 56.6662C123.979 56.6639 123.942 56.6703 123.907 56.6849C123.873 56.6994 123.843 56.7218 123.819 56.7501C123.773 56.8091 123.749 56.8821 123.751 56.9567C123.747 57.0487 123.771 57.1398 123.819 57.2182C123.871 57.2978 123.934 57.3696 124.006 57.4313L124.4 57.7767C124.527 57.8855 124.636 58.0141 124.723 58.1576C124.819 58.3171 124.867 58.5009 124.862 58.687C124.865 58.826 124.83 58.9632 124.761 59.0841C124.697 59.1989 124.602 59.2938 124.487 59.3585C124.361 59.4212 124.221 59.4512 124.08 59.4457Z" fill="#263238"/>
<path d="M125.517 59.4038V56.6888H125.02V56.2659H126.582V56.6888H126.092V59.4038H125.517Z" fill="#263238"/>
<path d="M127.705 59.4458C127.521 59.4562 127.337 59.4137 127.176 59.3231C127.044 59.24 126.944 59.1149 126.892 58.968C126.833 58.7901 126.805 58.6034 126.808 58.416V57.2344C126.804 57.0491 126.833 56.8646 126.892 56.6889C126.942 56.5436 127.043 56.4211 127.176 56.3434C127.338 56.255 127.521 56.2125 127.705 56.2208C127.893 56.2116 128.079 56.254 128.245 56.3434C128.375 56.4231 128.474 56.545 128.525 56.6889C128.588 56.8639 128.617 57.0488 128.613 57.2344V58.4095C128.617 58.5951 128.587 58.7799 128.525 58.9551C128.474 59.1011 128.375 59.226 128.245 59.3102C128.081 59.4057 127.894 59.4527 127.705 59.4458ZM127.705 59.0261C127.777 59.0353 127.848 59.016 127.905 58.9724C127.962 58.9289 127.999 58.8646 128.009 58.7937C128.025 58.7151 128.033 58.635 128.032 58.5548V57.1118C128.033 57.0326 128.025 56.9535 128.009 56.8761C127.998 56.8128 127.966 56.755 127.919 56.7115C127.857 56.6665 127.782 56.6448 127.705 56.6501C127.632 56.6442 127.56 56.6661 127.502 56.7115C127.453 56.7538 127.42 56.812 127.408 56.8761C127.392 56.9535 127.384 57.0326 127.386 57.1118V58.5548C127.385 58.6348 127.392 58.7147 127.405 58.7937C127.416 58.8587 127.449 58.918 127.499 58.9615C127.557 59.008 127.631 59.031 127.705 59.0261Z" fill="#263238"/>
<path d="M129.029 59.4038L129.081 56.2659H129.675L130.12 58.4385L130.595 56.2659H131.169L131.227 59.4038H130.801L130.753 57.2247L130.307 59.4038H129.949L129.497 57.215L129.455 59.4038H129.029Z" fill="#263238"/>
<path d="M131.657 59.4038V56.2659H132.974V56.6695H132.231V57.5734H132.816V57.9704H132.231V59.0099H132.984V59.4038H131.657Z" fill="#263238"/>
<path d="M133.316 59.4037V56.2659H134.068C134.25 56.2613 134.431 56.2875 134.604 56.3434C134.738 56.3882 134.853 56.4784 134.927 56.5984C135.012 56.7498 135.052 56.9222 135.043 57.0955C135.044 57.2105 135.032 57.3253 135.008 57.4377C134.987 57.5305 134.947 57.6176 134.888 57.6928C134.828 57.7672 134.749 57.8241 134.659 57.8574L135.095 59.4037H134.533L134.146 57.9672H133.884V59.4037H133.316ZM133.891 57.6056H134.068C134.159 57.6095 134.25 57.5929 134.333 57.5572C134.398 57.5251 134.449 57.4698 134.475 57.4022C134.506 57.3153 134.521 57.2233 134.517 57.131C134.526 57.0065 134.496 56.8822 134.43 56.7759C134.389 56.7329 134.338 56.6998 134.282 56.6791C134.226 56.6584 134.167 56.6507 134.107 56.6565H133.901L133.891 57.6056Z" fill="#263238"/>
<path d="M136.273 59.4457C136.108 59.4522 135.944 59.4143 135.799 59.3359C135.671 59.2613 135.571 59.1483 135.511 59.0131C135.442 58.8475 135.406 58.6698 135.405 58.4901L135.896 58.3933C135.899 58.5022 135.914 58.6104 135.941 58.7161C135.959 58.7959 135.998 58.8694 136.054 58.9292C136.08 58.9555 136.111 58.976 136.145 58.9894C136.18 59.0028 136.217 59.0086 136.254 59.0067C136.291 59.0098 136.328 59.0037 136.363 58.9891C136.397 58.9745 136.427 58.9517 136.451 58.9227C136.492 58.8595 136.512 58.785 136.509 58.7097C136.511 58.5951 136.478 58.4826 136.415 58.3868C136.343 58.2891 136.26 58.2003 136.167 58.1221L135.76 57.7606C135.652 57.6712 135.562 57.5616 135.495 57.4377C135.424 57.304 135.389 57.1535 135.395 57.0019C135.388 56.8968 135.404 56.7913 135.441 56.6927C135.479 56.5942 135.537 56.5047 135.611 56.4305C135.775 56.2879 135.989 56.2149 136.205 56.2272C136.332 56.2235 136.457 56.2466 136.573 56.295C136.666 56.3372 136.746 56.4029 136.806 56.4854C136.866 56.5672 136.911 56.659 136.938 56.7566C136.966 56.8623 136.983 56.9704 136.99 57.0794L136.502 57.1666C136.498 57.0777 136.487 56.9892 136.47 56.9019C136.46 56.8335 136.428 56.7701 136.38 56.7211C136.355 56.6972 136.326 56.6787 136.293 56.667C136.261 56.6554 136.227 56.6507 136.193 56.6533C136.156 56.651 136.119 56.6574 136.086 56.672C136.052 56.6866 136.022 56.7089 135.999 56.7372C135.953 56.7962 135.929 56.8692 135.931 56.9438C135.926 57.0355 135.949 57.1265 135.996 57.2053C136.049 57.2849 136.113 57.3567 136.186 57.4184L136.577 57.7638C136.703 57.8735 136.812 58.002 136.9 58.1447C136.994 58.3049 137.041 58.4884 137.035 58.6742C137.038 58.8126 137.004 58.9494 136.938 59.0712C136.872 59.1862 136.776 59.2811 136.661 59.3456C136.542 59.4098 136.409 59.4442 136.273 59.4457Z" fill="#263238"/>
<path d="M131.085 37.0193H123.457V44.4539H131.085V37.0193Z" fill="#263238" stroke="#263238" stroke-width="0.5" stroke-linecap="round" stroke-linejoin="round"/>
<path d="M135.437 52.8893C135.395 50.7559 134.517 48.7243 132.994 47.2306C131.47 45.7369 129.421 44.9002 127.287 44.9002C125.154 44.9002 123.105 45.7369 121.581 47.2306C120.058 48.7243 119.18 50.7559 119.138 52.8893H135.437Z" fill="white" stroke="#263238" stroke-width="0.5" stroke-linecap="round" stroke-linejoin="round"/>
<path d="M129.917 45.206L127.473 45.9937L124.781 45.206V41.9229H129.917V45.206Z" fill="white" stroke="#263238" stroke-width="0.5" stroke-linecap="round" stroke-linejoin="round"/>
<path d="M131.241 37.8005C131.241 37.9296 131.241 38.049 131.241 38.1717C131.144 42.2425 129.42 43.8953 127.289 43.8953C125.159 43.8953 123.415 42.546 123.344 38.1588C123.344 38.0458 123.344 37.9231 123.344 37.8005C123.344 35.2921 125.117 33.2616 127.292 33.2616C129.468 33.2616 131.241 35.2825 131.241 37.8005Z" fill="white" stroke="#263238" stroke-width="0.5" stroke-linecap="round" stroke-linejoin="round"/>
<path d="M131.241 37.8005C131.241 37.9296 131.241 38.049 131.241 38.1717C130.276 37.8966 129.414 37.3427 128.762 36.5794C128.111 35.8161 127.7 34.8776 127.58 33.8814C127.58 33.8814 126.134 37.497 123.344 38.1588C123.344 38.0458 123.344 37.9231 123.344 37.8005C123.344 35.2921 125.117 33.2616 127.292 33.2616C129.468 33.2616 131.241 35.2825 131.241 37.8005Z" fill="#263238" stroke="#263238" stroke-width="0.5" stroke-linecap="round" stroke-linejoin="round"/>
<path d="M89.3029 30.1464V27.0086H90.0421C90.2475 26.998 90.4526 27.0333 90.6426 27.1119C90.7811 27.1781 90.8903 27.293 90.9493 27.4347C91.0158 27.6098 91.0465 27.7964 91.0396 27.9835V29.1295C91.0459 29.323 91.0153 29.5158 90.9493 29.6977C90.8913 29.839 90.7833 29.954 90.6458 30.0205C90.465 30.1041 90.2668 30.1428 90.0679 30.1335L89.3029 30.1464ZM89.8775 29.7461H90.0518C90.1518 29.7554 90.252 29.7304 90.3359 29.6751C90.3939 29.6221 90.4306 29.5498 90.4392 29.4717C90.4532 29.3647 90.4597 29.2568 90.4586 29.1489V27.948C90.4622 27.8396 90.4525 27.7312 90.4295 27.6252C90.4168 27.556 90.3774 27.4945 90.3197 27.4541C90.2333 27.413 90.1376 27.3952 90.0421 27.4024H89.8775V29.7461Z" fill="#263238"/>
<path d="M91.4786 30.1464V27.0085H92.0436V30.1464H91.4786Z" fill="#263238"/>
<path d="M93.3187 30.1884C93.1538 30.1928 92.9904 30.155 92.8442 30.0786C92.7172 30.0034 92.6168 29.8906 92.5569 29.7558C92.4873 29.5902 92.4511 29.4124 92.4503 29.2328L92.941 29.136C92.9445 29.2449 92.9596 29.3531 92.9862 29.4588C93.0044 29.5395 93.0433 29.6141 93.0992 29.6751C93.1254 29.6999 93.1563 29.7193 93.1902 29.7321C93.224 29.7448 93.26 29.7507 93.2961 29.7493C93.3338 29.753 93.3718 29.7472 93.4068 29.7325C93.4417 29.7179 93.4724 29.6948 93.4963 29.6654C93.5369 29.6032 93.5572 29.5298 93.5544 29.4556C93.5555 29.3411 93.5229 29.2288 93.4608 29.1327C93.3893 29.0354 93.3058 28.9475 93.2122 28.8712L92.8248 28.5032C92.7178 28.4124 92.6282 28.3031 92.5601 28.1804C92.4894 28.0463 92.4549 27.8961 92.46 27.7446C92.4532 27.639 92.469 27.5331 92.5063 27.434C92.5436 27.3349 92.6015 27.2449 92.6763 27.17C92.8415 27.0299 93.054 26.9583 93.2703 26.9698C93.3964 26.9661 93.5218 26.9892 93.6383 27.0376C93.7308 27.0787 93.8109 27.1433 93.8707 27.2249C93.9309 27.3072 93.9748 27.4004 93.9999 27.4993C94.0302 27.6045 94.0486 27.7128 94.0547 27.8221L93.5673 27.906C93.5625 27.8182 93.5517 27.7308 93.535 27.6445C93.5236 27.5756 93.4922 27.5116 93.4446 27.4605C93.4194 27.4377 93.3898 27.4201 93.3576 27.409C93.3254 27.398 93.2913 27.3935 93.2574 27.3959C93.2203 27.3934 93.1831 27.3997 93.1488 27.4143C93.1146 27.4289 93.0843 27.4513 93.0605 27.4799C93.0146 27.5388 92.9907 27.6119 92.9927 27.6865C92.9887 27.7785 93.0123 27.8695 93.0605 27.948C93.1128 28.0273 93.177 28.098 93.2509 28.1578L93.6415 28.5032C93.7672 28.6137 93.876 28.7421 93.9644 28.8842C94.0586 29.0443 94.1056 29.2279 94.0999 29.4136C94.1024 29.5531 94.069 29.6909 94.0031 29.8139C93.9379 29.9286 93.8417 30.0226 93.7255 30.0851C93.6014 30.1549 93.461 30.1906 93.3187 30.1884Z" fill="#263238"/>
<path d="M94.7618 30.1464V27.4282H94.2615V27.0085H95.8272V27.4282H95.3332V30.1464H94.7618Z" fill="#263238"/>
<path d="M96.1078 30.1465V27.0086H96.8567C97.0393 27.0033 97.2215 27.0284 97.3958 27.0829C97.5297 27.1297 97.6436 27.2208 97.7187 27.3411C97.8009 27.4923 97.8399 27.6632 97.8317 27.8351C97.8326 27.9501 97.8206 28.0649 97.7961 28.1772C97.777 28.2709 97.7373 28.3591 97.6799 28.4355C97.6185 28.5101 97.5383 28.567 97.4475 28.6001L97.8865 30.1465H97.3119L96.9342 28.7067H96.6695V30.1465H96.1078ZM96.6792 28.3483H96.8567C96.9475 28.3526 97.038 28.336 97.1214 28.2999C97.1543 28.285 97.1839 28.2636 97.2083 28.237C97.2327 28.2103 97.2515 28.179 97.2635 28.145C97.2948 28.057 97.3091 27.9639 97.3055 27.8706C97.3133 27.7465 97.2841 27.6229 97.2215 27.5155C97.1796 27.4736 97.1289 27.4414 97.0731 27.4213C97.0173 27.4013 96.9577 27.3937 96.8987 27.3992H96.6889L96.6792 28.3483Z" fill="#263238"/>
<path d="M98.287 30.1464V27.0085H98.8519V30.1464H98.287Z" fill="#263238"/>
<path d="M99.3362 30.1465V27.0086H100.108C100.235 27.0074 100.361 27.0204 100.485 27.0474C100.59 27.069 100.69 27.1131 100.776 27.1765C100.86 27.2397 100.924 27.3245 100.963 27.4218C101.012 27.546 101.036 27.679 101.031 27.8125C101.033 27.9225 101.014 28.032 100.976 28.1353C100.947 28.2201 100.894 28.295 100.824 28.3516C100.75 28.4062 100.664 28.4426 100.573 28.4581C100.69 28.4708 100.802 28.5155 100.895 28.5872C100.977 28.6558 101.04 28.7449 101.076 28.8455C101.119 28.9678 101.14 29.0968 101.138 29.2264C101.14 29.3611 101.12 29.4952 101.079 29.6235C101.048 29.7316 100.99 29.8303 100.912 29.9108C100.836 29.9906 100.742 30.0505 100.637 30.0851C100.513 30.126 100.383 30.1456 100.253 30.1432L99.3362 30.1465ZM99.9108 28.2902H100.104C100.195 28.2956 100.285 28.2778 100.366 28.2386C100.397 28.2228 100.425 28.2009 100.448 28.1743C100.47 28.1478 100.488 28.1169 100.498 28.0836C100.524 27.9988 100.536 27.9106 100.534 27.8221C100.538 27.7327 100.519 27.6437 100.479 27.5639C100.44 27.5016 100.379 27.4565 100.308 27.438C100.215 27.4152 100.119 27.4044 100.024 27.4057H99.9269L99.9108 28.2902ZM99.9108 29.7429H100.127C100.192 29.7513 100.257 29.7443 100.318 29.7224C100.379 29.7005 100.434 29.6644 100.479 29.617C100.55 29.4997 100.583 29.3632 100.573 29.2264C100.576 29.1223 100.56 29.0185 100.527 28.9197C100.502 28.8448 100.451 28.7816 100.382 28.7422C100.297 28.7002 100.203 28.6802 100.108 28.6841H99.9269L99.9108 29.7429Z" fill="#263238"/>
<path d="M102.355 30.1883C102.165 30.1994 101.977 30.1545 101.812 30.0592C101.682 29.9739 101.587 29.8444 101.544 29.6944C101.492 29.5109 101.467 29.3204 101.47 29.1295V27.0085H102.029V29.1973C102.028 29.2891 102.035 29.3808 102.048 29.4717C102.057 29.5489 102.089 29.6217 102.138 29.6815C102.198 29.736 102.276 29.7661 102.356 29.7661C102.437 29.7661 102.515 29.736 102.574 29.6815C102.623 29.6214 102.653 29.5485 102.661 29.4717C102.677 29.3811 102.685 29.2892 102.684 29.1973V27.0085H103.239V29.1295C103.243 29.3204 103.218 29.5109 103.165 29.6944C103.123 29.8439 103.029 29.9734 102.9 30.0592C102.735 30.1551 102.545 30.2 102.355 30.1883Z" fill="#263238"/>
<path d="M104.001 30.1464V27.4282H103.501V27.0085H105.066V27.4282H104.576V30.1464H104.001Z" fill="#263238"/>
<path d="M105.37 30.1464V27.0085H105.935V30.1464H105.37Z" fill="#263238"/>
<path d="M107.271 30.1884C107.085 30.1976 106.901 30.1539 106.738 30.0625C106.607 29.98 106.508 29.8545 106.458 29.7074C106.399 29.5272 106.374 29.338 106.383 29.1489V27.9738C106.379 27.7882 106.408 27.6033 106.47 27.4282C106.523 27.2848 106.622 27.1631 106.751 27.0828C106.918 27.0042 107.101 26.9635 107.286 26.9635C107.47 26.9635 107.653 27.0042 107.82 27.0828C107.95 27.1638 108.05 27.2852 108.104 27.4282C108.166 27.6033 108.196 27.7882 108.191 27.9738V29.1489C108.195 29.3335 108.166 29.5173 108.104 29.6912C108.051 29.8385 107.951 29.9643 107.82 30.0496C107.655 30.1495 107.464 30.1978 107.271 30.1884ZM107.271 29.7655C107.306 29.7704 107.342 29.7683 107.376 29.7593C107.41 29.7502 107.442 29.7344 107.47 29.7127C107.498 29.691 107.522 29.664 107.539 29.6331C107.556 29.6022 107.567 29.5682 107.571 29.533C107.589 29.4557 107.597 29.3766 107.597 29.2974V27.8576C107.597 27.7783 107.589 27.6993 107.571 27.6219C107.561 27.5581 107.529 27.4998 107.481 27.4573C107.419 27.4173 107.347 27.396 107.273 27.396C107.199 27.396 107.127 27.4173 107.064 27.4573C107.016 27.5005 106.983 27.5583 106.971 27.6219C106.956 27.6996 106.949 27.7785 106.948 27.8576V29.3038C106.947 29.383 106.955 29.462 106.971 29.5395C106.975 29.5747 106.986 29.6087 107.003 29.6396C107.021 29.6704 107.044 29.6975 107.072 29.7192C107.1 29.7408 107.132 29.7567 107.166 29.7657C107.2 29.7748 107.236 29.7769 107.271 29.7719V29.7655Z" fill="#263238"/>
<path d="M108.598 30.1464V27.0085H108.998L109.76 28.797V27.0085H110.235V30.1464H109.854L109.089 28.2708V30.1464H108.598Z" fill="#263238"/>
<path d="M95.4977 25.4396C96.892 25.4396 98.0222 24.3094 98.0222 22.9152C98.0222 21.5209 96.892 20.3907 95.4977 20.3907C94.1035 20.3907 92.9733 21.5209 92.9733 22.9152C92.9733 24.3094 94.1035 25.4396 95.4977 25.4396Z" fill="#263238" stroke="#263238" stroke-width="0.5" stroke-linecap="round" stroke-linejoin="round"/>
<path d="M109.828 25.4396C111.222 25.4396 112.352 24.3094 112.352 22.9152C112.352 21.5209 111.222 20.3907 109.828 20.3907C108.434 20.3907 107.303 21.5209 107.303 22.9152C107.303 24.3094 108.434 25.4396 109.828 25.4396Z" fill="#263238" stroke="#263238" stroke-width="0.5" stroke-linecap="round" stroke-linejoin="round"/>
<path d="M93.9484 22.8506H85.9133V17.9695L88.7477 14.8543H93.9484V22.8506Z" fill="white" stroke="#263238" stroke-width="0.5" stroke-linecap="round" stroke-linejoin="round"/>
<path d="M92.1147 16.0003H89.8V18.1826H92.1147V16.0003Z" fill="#263238"/>
<path d="M89.2738 16.0003H89.0866L87.1012 18.1794H89.2738V16.0003Z" fill="#263238"/>
<path d="M86.9593 21.653H85.1709V22.8087H86.9593V21.653Z" fill="white" stroke="#263238" stroke-width="0.5" stroke-linecap="round" stroke-linejoin="round"/>
<path d="M113.05 8.56897H95.911V22.8506H113.05V8.56897Z" fill="#263238" stroke="#263238" stroke-width="0.5" stroke-linecap="round" stroke-linejoin="round"/>
<path d="M110.009 8.56897H92.87V22.8506H110.009V8.56897Z" fill="white" stroke="#263238" stroke-width="0.5" stroke-linecap="round" stroke-linejoin="round"/>
<path d="M90.9556 25.4396C92.3498 25.4396 93.4801 24.3094 93.4801 22.9152C93.4801 21.5209 92.3498 20.3907 90.9556 20.3907C89.5614 20.3907 88.4312 21.5209 88.4312 22.9152C88.4312 24.3094 89.5614 25.4396 90.9556 25.4396Z" fill="#263238" stroke="#263238" stroke-width="0.5" stroke-linecap="round" stroke-linejoin="round"/>
<path d="M91.9855 22.9152C91.9861 22.7114 91.9263 22.5119 91.8135 22.3422C91.7008 22.1724 91.5402 22.0399 91.352 21.9615C91.1639 21.883 90.9568 21.8622 90.7568 21.9015C90.5568 21.9409 90.373 22.0387 90.2287 22.1826C90.0843 22.3265 89.9859 22.51 89.9459 22.7099C89.9059 22.9097 89.9261 23.1169 90.004 23.3053C90.0818 23.4936 90.2138 23.6547 90.3832 23.768C90.5527 23.8813 90.7519 23.9417 90.9557 23.9417C91.2283 23.9417 91.4897 23.8337 91.6827 23.6413C91.8758 23.4488 91.9847 23.1877 91.9855 22.9152Z" fill="white" stroke="#263238" stroke-width="0.5" stroke-linecap="round" stroke-linejoin="round"/>
<path d="M105.286 25.4396C106.68 25.4396 107.81 24.3094 107.81 22.9152C107.81 21.5209 106.68 20.3907 105.286 20.3907C103.892 20.3907 102.761 21.5209 102.761 22.9152C102.761 24.3094 103.892 25.4396 105.286 25.4396Z" fill="#263238" stroke="#263238" stroke-width="0.5" stroke-linecap="round" stroke-linejoin="round"/>
<path d="M106.316 22.9152C106.316 22.7114 106.256 22.5119 106.144 22.3422C106.031 22.1724 105.87 22.0399 105.682 21.9615C105.494 21.883 105.287 21.8622 105.087 21.9015C104.887 21.9409 104.703 22.0387 104.559 22.1826C104.414 22.3265 104.316 22.51 104.276 22.7099C104.236 22.9097 104.256 23.1169 104.334 23.3053C104.412 23.4936 104.544 23.6547 104.713 23.768C104.883 23.8813 105.082 23.9417 105.286 23.9417C105.558 23.9417 105.82 23.8337 106.013 23.6413C106.206 23.4488 106.315 23.1877 106.316 22.9152Z" fill="white" stroke="#263238" stroke-width="0.5" stroke-linecap="round" stroke-linejoin="round"/>
<path d="M100.85 19.7193C103.482 19.7193 105.615 17.586 105.615 14.9544C105.615 12.3229 103.482 10.1896 100.85 10.1896C98.2187 10.1896 96.0854 12.3229 96.0854 14.9544C96.0854 17.586 98.2187 19.7193 100.85 19.7193Z" fill="white" stroke="#263238" stroke-width="0.5" stroke-linecap="round" stroke-linejoin="round"/>
<path d="M100.85 17.6564C102.342 17.6564 103.552 16.4467 103.552 14.9544C103.552 13.4621 102.342 12.2524 100.85 12.2524C99.3579 12.2524 98.1482 13.4621 98.1482 14.9544C98.1482 16.4467 99.3579 17.6564 100.85 17.6564Z" fill="white" stroke="#263238" stroke-width="0.5" stroke-linecap="round" stroke-linejoin="round"/>
<path d="M45.6928 30.1884C45.5035 30.1993 45.3154 30.152 45.1537 30.0528C45.0235 29.9631 44.9269 29.8324 44.8793 29.6816C44.8249 29.5072 44.7987 29.3252 44.8018 29.1425V28.0223C44.7983 27.8332 44.8244 27.6448 44.8793 27.4638C44.9263 27.3144 45.0232 27.1856 45.1537 27.099C45.3165 27.0189 45.4951 26.9759 45.6765 26.9731C45.8579 26.9703 46.0377 27.0078 46.2029 27.0829C46.3255 27.1562 46.4181 27.2705 46.4644 27.4057C46.5188 27.5579 46.5451 27.7187 46.5418 27.8802V28.145H45.993V27.8576C45.993 27.7705 45.993 27.6898 45.993 27.6188C45.9863 27.5545 45.9604 27.4938 45.9188 27.4444C45.8611 27.3965 45.7869 27.3733 45.7122 27.3799C45.6734 27.3763 45.6344 27.3804 45.5972 27.3921C45.5601 27.4037 45.5257 27.4226 45.4959 27.4477C45.4478 27.498 45.4172 27.5625 45.4087 27.6317C45.395 27.7171 45.3885 27.8035 45.3894 27.8899V29.2522C45.3881 29.3465 45.3967 29.4406 45.4152 29.5331C45.4291 29.5986 45.4643 29.6576 45.5153 29.701C45.5732 29.7401 45.6423 29.7594 45.7122 29.7558C45.7489 29.7591 45.786 29.7548 45.8209 29.7432C45.8559 29.7315 45.8882 29.7127 45.9156 29.688C45.9574 29.6363 45.9832 29.5735 45.9898 29.5073C46.0007 29.4238 46.0061 29.3397 46.006 29.2555V28.9746H46.5548V29.2264C46.5583 29.3941 46.5332 29.5611 46.4805 29.7203C46.433 29.8529 46.3434 29.9662 46.2255 30.0432C46.0664 30.1437 45.8809 30.1942 45.6928 30.1884Z" fill="#263238"/>
<path d="M47.7977 30.1884C47.6118 30.1977 47.4271 30.154 47.2651 30.0625C47.1333 29.9801 47.0341 29.8546 46.9842 29.7074C46.9227 29.5312 46.8931 29.3453 46.897 29.1586V27.9836C46.8926 27.7979 46.9221 27.613 46.9842 27.438C47.0363 27.2945 47.1352 27.1728 47.2651 27.0926C47.4322 27.014 47.6146 26.9733 47.7993 26.9733C47.984 26.9733 48.1664 27.014 48.3336 27.0926C48.4635 27.1736 48.5633 27.2949 48.6177 27.438C48.6797 27.613 48.7093 27.7979 48.7048 27.9836V29.149C48.709 29.3335 48.6795 29.5173 48.6177 29.6913C48.5647 29.8386 48.4649 29.9644 48.3336 30.0496C48.1723 30.1471 47.986 30.1953 47.7977 30.1884ZM47.7977 29.7656C47.8328 29.7705 47.8685 29.7684 47.9027 29.7593C47.9369 29.7503 47.969 29.7344 47.9969 29.7128C48.0249 29.6911 48.0483 29.664 48.0656 29.6332C48.083 29.6023 48.094 29.5683 48.0979 29.5331C48.1152 29.4558 48.1239 29.3767 48.1238 29.2975V27.8577C48.1241 27.7784 48.1154 27.6993 48.0979 27.622C48.0881 27.5582 48.0561 27.4999 48.0075 27.4574C47.9455 27.4173 47.8732 27.3961 47.7993 27.3961C47.7255 27.3961 47.6532 27.4173 47.5911 27.4574C47.5428 27.5006 47.5099 27.5584 47.4975 27.622C47.4828 27.6997 47.4752 27.7786 47.4749 27.8577V29.3039C47.4738 29.3831 47.4814 29.4621 47.4975 29.5396C47.5015 29.5748 47.5124 29.6088 47.5298 29.6396C47.5471 29.6705 47.5705 29.6976 47.5985 29.7192C47.6265 29.7409 47.6585 29.7567 47.6928 29.7658C47.727 29.7749 47.7627 29.777 47.7977 29.772V29.7656Z" fill="#263238"/>
<path d="M49.1182 30.1464L49.173 27.0086H49.7638L50.2125 29.1812L50.6774 27.0086H51.252L51.3101 30.1464H50.884L50.8388 27.9642L50.3933 30.1464H50.0479L49.5927 27.9577L49.5507 30.1464H49.1182Z" fill="#263238"/>
<path d="M51.7491 30.1465V27.0087H52.6692C52.8296 27.0007 52.9891 27.0364 53.1308 27.112C53.2467 27.1834 53.3371 27.2896 53.3891 27.4154C53.4485 27.5698 53.477 27.7343 53.473 27.8996C53.4803 28.0707 53.4437 28.2407 53.3665 28.3936C53.3028 28.514 53.2005 28.6095 53.0759 28.6647C52.9355 28.7257 52.7835 28.7555 52.6305 28.7519H52.3076V30.1465H51.7491ZM52.3205 28.3484H52.5401C52.6232 28.3518 52.7059 28.3364 52.7822 28.3032C52.8106 28.2887 52.8357 28.2686 52.8563 28.2442C52.8768 28.2198 52.8922 28.1916 52.9016 28.1611C52.9263 28.0741 52.9372 27.9836 52.9339 27.8932C52.9354 27.8011 52.9267 27.709 52.9081 27.6188C52.9023 27.5865 52.8899 27.5557 52.8715 27.5284C52.8532 27.5012 52.8293 27.4781 52.8015 27.4606C52.72 27.4222 52.6301 27.4044 52.5401 27.409H52.3205V28.3484Z" fill="#263238"/>
<path d="M53.7635 30.1464V27.0086H55.0807V27.4089H54.3382V28.3128H54.9225V28.7131H54.3382V29.7494H55.0903V30.1464H53.7635Z" fill="#263238"/>
<path d="M55.7455 30.1464V27.4283H55.2451V27.0086H56.8108V27.4283H56.3201V30.1464H55.7455Z" fill="#263238"/>
<path d="M57.1145 30.1464V27.0086H57.6794V30.1464H57.1145Z" fill="#263238"/>
<path d="M58.4768 30.1464V27.4283H57.9764V27.0086H59.5421V27.4283H59.0514V30.1464H58.4768Z" fill="#263238"/>
<path d="M60.6654 30.1884C60.4806 30.1979 60.2968 30.1542 60.136 30.0625C60.0034 29.9802 59.9031 29.8548 59.8519 29.7074C59.7931 29.5305 59.7648 29.345 59.768 29.1586V27.9835C59.7644 27.7982 59.7928 27.6137 59.8519 27.438C59.9053 27.2943 60.0053 27.1726 60.136 27.0925C60.3025 27.0138 60.4845 26.973 60.6687 26.973C60.8529 26.973 61.0348 27.0138 61.2013 27.0925C61.332 27.1726 61.4321 27.2943 61.4854 27.438C61.5475 27.613 61.577 27.7979 61.5726 27.9835V29.1489C61.5768 29.3335 61.5472 29.5173 61.4854 29.6913C61.4335 29.8391 61.3334 29.9653 61.2013 30.0496C61.04 30.147 60.8538 30.1953 60.6654 30.1884ZM60.6654 29.7655C60.7415 29.7709 60.8169 29.7491 60.8785 29.7042C60.9254 29.6577 60.957 29.598 60.9689 29.5331C60.985 29.4556 60.9926 29.3766 60.9915 29.2974V27.8576C60.9928 27.7785 60.9852 27.6994 60.9689 27.622C60.9576 27.5587 60.9258 27.5008 60.8785 27.4573C60.8169 27.4124 60.7415 27.3906 60.6654 27.396C60.5927 27.3929 60.521 27.4145 60.4621 27.4573C60.4127 27.4997 60.3796 27.5579 60.3684 27.622C60.3522 27.6994 60.3446 27.7785 60.3458 27.8576V29.3039C60.3453 29.3828 60.3518 29.4617 60.3652 29.5395C60.3771 29.6045 60.4087 29.6642 60.4556 29.7106C60.5171 29.7526 60.5913 29.772 60.6654 29.7655Z" fill="#263238"/>
<path d="M61.9954 30.1465V27.0086H62.7475C62.9291 27.0031 63.1102 27.0282 63.2834 27.0829C63.4173 27.1297 63.5312 27.2208 63.6062 27.3411C63.6884 27.4923 63.7275 27.6632 63.7192 27.8351C63.7211 27.95 63.7103 28.0647 63.687 28.1772C63.665 28.2705 63.6244 28.3584 63.5675 28.4355C63.5073 28.51 63.4281 28.5669 63.3383 28.6001L63.7741 30.1465H63.2027L62.8218 28.7067H62.5571V30.1465H61.9954ZM62.5668 28.3483H62.7475C62.8383 28.3519 62.9287 28.3354 63.0122 28.2999C63.0773 28.2678 63.1279 28.2125 63.1543 28.145C63.1841 28.0566 63.1983 27.9638 63.1963 27.8706C63.2048 27.746 63.1744 27.6219 63.1091 27.5155C63.0675 27.473 63.0169 27.4405 62.961 27.4204C62.9051 27.4002 62.8454 27.393 62.7863 27.3992H62.5764L62.5668 28.3483Z" fill="#263238"/>
<path d="M64.9493 30.1884C64.7854 30.1923 64.6232 30.1545 64.4779 30.0787C64.351 30.0035 64.2505 29.8907 64.1906 29.7558C64.1211 29.5902 64.0849 29.4125 64.0841 29.2329L64.5748 29.136C64.5767 29.2451 64.5919 29.3535 64.62 29.4588C64.6368 29.54 64.6759 29.615 64.733 29.6751C64.7592 29.7 64.7901 29.7194 64.8239 29.7321C64.8578 29.7449 64.8938 29.7508 64.9299 29.7494C64.9676 29.753 65.0056 29.7473 65.0405 29.7326C65.0755 29.718 65.1062 29.6949 65.1301 29.6654C65.1707 29.6032 65.191 29.5299 65.1882 29.4556C65.1892 29.3412 65.1567 29.2289 65.0945 29.1328C65.0231 29.0355 64.9396 28.9476 64.846 28.8713L64.4489 28.5033C64.3437 28.4108 64.2543 28.3017 64.1842 28.1805C64.1161 28.0455 64.0828 27.8957 64.0873 27.7447C64.0805 27.639 64.0963 27.5331 64.1336 27.4341C64.1709 27.335 64.2288 27.245 64.3036 27.17C64.4688 27.03 64.6813 26.9584 64.8976 26.9699C65.0227 26.9658 65.1471 26.989 65.2624 27.0377C65.3563 27.0779 65.4377 27.1426 65.4981 27.2249C65.557 27.308 65.6008 27.4009 65.6272 27.4993C65.6575 27.6045 65.6759 27.7128 65.6821 27.8221L65.1946 27.9061C65.1898 27.8183 65.179 27.7309 65.1623 27.6446C65.1483 27.5766 65.1172 27.5133 65.0719 27.4606C65.0467 27.4377 65.0171 27.4202 64.9849 27.4091C64.9528 27.398 64.9187 27.3936 64.8847 27.396C64.8476 27.3935 64.8104 27.3997 64.7762 27.4143C64.7419 27.4289 64.7116 27.4514 64.6878 27.4799C64.642 27.5389 64.618 27.6119 64.62 27.6866C64.616 27.7785 64.6396 27.8696 64.6878 27.948C64.7401 28.0273 64.8044 28.0981 64.8782 28.1579L65.2689 28.5033C65.3956 28.6128 65.5045 28.7413 65.5917 28.8842C65.6879 29.0437 65.7361 29.2275 65.7305 29.4136C65.7335 29.5536 65.6989 29.6918 65.6304 29.8139C65.5664 29.9285 65.4713 30.0225 65.356 30.0851C65.2319 30.1548 65.0916 30.1905 64.9493 30.1884Z" fill="#263238"/>
<path d="M61.834 21.3399C61.828 19.6925 61.1699 18.1146 60.0035 16.9512C58.8371 15.7878 57.2574 15.1337 55.61 15.132C54.5868 15.1291 53.5792 15.3821 52.6788 15.8681C51.6858 16.4006 50.8554 17.1919 50.2757 18.1581C49.696 19.1242 49.3885 20.2293 49.386 21.3561L61.834 21.3399Z" fill="white" stroke="#263238" stroke-width="0.5" stroke-linecap="round" stroke-linejoin="round"/>
<path d="M55.594 15.132C54.9417 15.1375 54.2945 15.2465 53.6764 15.4548L53.7151 15.5259L55.7392 20.6426L57.6019 15.4774C56.9563 15.252 56.2778 15.1353 55.594 15.132Z" fill="white" stroke="#263238" stroke-width="0.5" stroke-linecap="round" stroke-linejoin="round"/>
<path d="M55.6875 15.8745L54.8837 16.5395L55.4034 17.1045L54.9773 17.8147L55.7391 20.6265L56.3977 17.9567L56.0652 17.1529L56.5397 16.5395L55.6875 15.8745Z" fill="#263238"/>
<path d="M57.6018 15.471L55.7359 16.0715L53.6796 15.471V12.9659H57.6018V15.471Z" fill="white" stroke="#263238" stroke-width="0.5" stroke-linecap="round" stroke-linejoin="round"/>
<path d="M58.6059 9.81836C58.6059 9.91521 58.6059 10.0056 58.6059 10.0992C58.5317 13.208 57.2178 14.4702 55.594 14.4702C53.9702 14.4702 52.6434 13.4372 52.5789 10.0895C52.5789 10.0024 52.5789 9.90875 52.5789 9.81836C52.5789 7.9008 53.9315 6.34802 55.5972 6.34802C57.263 6.34802 58.6059 7.9008 58.6059 9.81836Z" fill="white" stroke="#263238" stroke-width="0.5" stroke-linecap="round" stroke-linejoin="round"/>
<path d="M58.6059 9.81836C58.6059 9.9152 58.6059 10.0056 58.6059 10.0992L58.5833 10.1961H57.8828V8.99839L56.8014 7.80395H54.5416L53.8766 7.13571L54.08 8.03315L53.1825 9.03067V10.125H52.6015L52.5789 10.0895C52.5789 10.0024 52.5789 9.90875 52.5789 9.81836C52.5789 7.9008 53.9315 6.34802 55.5972 6.34802C57.263 6.34802 58.6059 7.9008 58.6059 9.81836Z" fill="#263238"/>
<path d="M54.0444 24.9813C54.0074 23.3556 53.3355 21.8089 52.1726 20.6722C51.0097 19.5355 49.4482 18.899 47.822 18.899C46.1958 18.899 44.6343 19.5355 43.4714 20.6722C42.3085 21.8089 41.6366 23.3556 41.5996 24.9813H54.0444Z" fill="white" stroke="#263238" stroke-width="0.5" stroke-linecap="round" stroke-linejoin="round"/>
<path d="M47.8235 18.7766C47.1713 18.7761 46.523 18.8785 45.9027 19.0801L45.9415 19.1511L47.9688 24.2678L49.8282 19.1027C49.1827 18.8833 48.5052 18.7731 47.8235 18.7766Z" fill="white" stroke="#263238" stroke-width="0.5" stroke-linecap="round" stroke-linejoin="round"/>
<path d="M47.9172 19.5192L47.1134 20.181L47.6331 20.7491L47.207 21.4593L47.9689 24.2679L48.6274 21.6014L48.2949 20.7975L48.7695 20.181L47.9172 19.5192Z" fill="#263238"/>
<path d="M49.8284 19.1125L47.9624 19.7161L45.9093 19.1125V16.6074H49.8284V19.1125Z" fill="white" stroke="#263238" stroke-width="0.5" stroke-linecap="round" stroke-linejoin="round"/>
<path d="M50.8386 13.4598C50.8386 13.5566 50.8386 13.6502 50.8386 13.7406C50.7644 16.8526 49.4472 18.1116 47.8235 18.1116C46.1997 18.1116 44.8761 17.0818 44.8115 13.731C44.8115 13.6438 44.8115 13.5534 44.8115 13.4598C44.8115 11.5422 46.1641 9.99268 47.8299 9.99268C49.4957 9.99268 50.8386 11.5422 50.8386 13.4598Z" fill="white" stroke="#263238" stroke-width="0.5" stroke-linecap="round" stroke-linejoin="round"/>
<path d="M50.8387 13.4598C50.8387 13.5567 50.8387 13.6503 50.8387 13.7407L50.8161 13.8375H50.1155V12.6431L49.0341 11.4454H46.7743L46.1061 10.7772L46.3095 11.6746L45.3959 12.685V13.7794H44.8309L44.8083 13.7407C44.8083 13.6535 44.8083 13.5631 44.8083 13.4695C44.8083 11.5519 46.161 10.0024 47.8267 10.0024C49.4925 10.0024 50.8387 11.5422 50.8387 13.4598Z" fill="#263238"/>
<path d="M69.6591 24.9813C69.6221 23.3556 68.9503 21.8089 67.7874 20.6722C66.6245 19.5355 65.0629 18.899 63.4367 18.899C61.8106 18.899 60.249 19.5355 59.0861 20.6722C57.9232 21.8089 57.2514 23.3556 57.2144 24.9813H69.6591Z" fill="white" stroke="#263238" stroke-width="0.5" stroke-linecap="round" stroke-linejoin="round"/>
<path d="M63.4481 18.7767C62.7959 18.7759 62.1476 18.8783 61.5273 19.0802L61.5661 19.1512L63.5934 24.2679L65.4529 19.1028C64.8073 18.8839 64.1298 18.7737 63.4481 18.7767Z" fill="white" stroke="#263238" stroke-width="0.5" stroke-linecap="round" stroke-linejoin="round"/>
<path d="M63.5288 19.5192L62.725 20.181L63.248 20.7491L62.8218 21.4593L63.5837 24.2679L64.239 21.6014L63.9097 20.7975L64.3811 20.181L63.5288 19.5192Z" fill="#263238"/>
<path d="M65.443 19.1125L63.5771 19.7161L61.5208 19.1125V16.6074H65.443V19.1125Z" fill="white" stroke="#263238" stroke-width="0.5" stroke-linecap="round" stroke-linejoin="round"/>
<path d="M66.4537 13.4598C66.4537 13.5566 66.4537 13.6502 66.4537 13.7406C66.3795 16.8526 65.0624 18.1116 63.4386 18.1116C61.8148 18.1116 60.4912 17.0818 60.4266 13.731C60.4266 13.6438 60.4266 13.5534 60.4266 13.4598C60.4266 11.5422 61.7793 9.99268 63.445 9.99268C65.1108 9.99268 66.4537 11.5422 66.4537 13.4598Z" fill="white" stroke="#263238" stroke-width="0.5" stroke-linecap="round" stroke-linejoin="round"/>
<path d="M66.4538 13.4598C66.4538 13.5567 66.4538 13.6503 66.4538 13.7407L66.4279 13.8375H65.7307V12.6431L64.6492 11.4454H62.3894L61.7212 10.7772L61.9246 11.6746L61.011 12.685V13.7794H60.4461L60.4235 13.7407C60.4235 13.6535 60.4235 13.5631 60.4235 13.4695C60.4235 11.5519 61.7761 10.0024 63.4418 10.0024C65.1076 10.0024 66.4538 11.5422 66.4538 13.4598Z" fill="#263238"/>
<path d="M10.741 59.4039V56.266H11.661C11.8217 56.2591 11.9813 56.2959 12.1226 56.3726C12.2401 56.4422 12.331 56.5489 12.3809 56.676C12.44 56.8293 12.4685 56.9927 12.4648 57.157C12.4722 57.3281 12.4355 57.4981 12.3583 57.6509C12.2948 57.7723 12.1925 57.8689 12.0678 57.9253C11.9266 57.9837 11.775 58.0123 11.6223 58.0093H11.2994V59.4039H10.741ZM11.3124 57.6057H11.5319C11.6147 57.6101 11.6975 57.5958 11.774 57.5638C11.8025 57.5486 11.8277 57.528 11.8482 57.503C11.8687 57.4781 11.8841 57.4494 11.8934 57.4185C11.9182 57.3325 11.9291 57.2432 11.9257 57.1538C11.9272 57.0606 11.9185 56.9675 11.8999 56.8762C11.8941 56.8443 11.8816 56.814 11.8633 56.7873C11.8449 56.7605 11.8211 56.738 11.7934 56.7212C11.7123 56.6813 11.6221 56.6634 11.5319 56.6696H11.3124V57.6057Z" fill="#263238"/>
<path d="M12.7651 59.4038V56.266H13.5173C13.699 56.2615 13.8802 56.2877 14.0532 56.3435C14.187 56.3888 14.301 56.4789 14.376 56.5985C14.4574 56.7512 14.4964 56.9228 14.489 57.0957C14.4896 57.2107 14.4777 57.3254 14.4535 57.4379C14.4339 57.5303 14.3942 57.6174 14.3373 57.6929C14.2759 57.7675 14.1956 57.8243 14.1048 57.8575L14.5439 59.4038H13.9822L13.6045 57.9673H13.3398V59.4038H12.7651ZM13.3398 57.6057H13.5173C13.6081 57.6099 13.6986 57.5934 13.782 57.5573C13.8476 57.526 13.8986 57.4704 13.9241 57.4023C13.9552 57.3154 13.9694 57.2234 13.966 57.1312C13.975 57.0066 13.9445 56.8823 13.8789 56.7761C13.8378 56.7328 13.7873 56.6996 13.7313 56.6789C13.6754 56.6582 13.6154 56.6506 13.5561 56.6566H13.3462L13.3398 57.6057Z" fill="#263238"/>
<path d="M15.7771 59.4458C15.5915 59.4559 15.4069 59.4133 15.2444 59.3232C15.1134 59.2399 15.0144 59.1147 14.9636 58.9681C14.9018 58.7907 14.8723 58.6038 14.8764 58.416V57.2345C14.872 57.0489 14.9015 56.864 14.9636 56.6889C15.0133 56.5441 15.1128 56.4217 15.2444 56.3435C15.4109 56.2627 15.5936 56.2207 15.7787 56.2207C15.9638 56.2207 16.1465 56.2627 16.313 56.3435C16.4444 56.4228 16.5446 56.5447 16.5971 56.6889C16.6591 56.864 16.6886 57.0489 16.6842 57.2345V58.4096C16.6881 58.5952 16.6586 58.78 16.5971 58.9551C16.5438 59.1015 16.444 59.2262 16.313 59.3102C16.1513 59.4065 15.9651 59.4537 15.7771 59.4458ZM15.7771 59.0262C15.8526 59.0316 15.9275 59.0086 15.9869 58.9616C16.0355 58.9177 16.0674 58.8584 16.0773 58.7937C16.0946 58.7153 16.1032 58.6352 16.1031 58.5548V57.1118C16.1036 57.0325 16.0949 56.9535 16.0773 56.8762C16.0675 56.8124 16.0355 56.7541 15.9869 56.7115C15.9249 56.6715 15.8526 56.6502 15.7787 56.6502C15.7048 56.6502 15.6325 56.6715 15.5705 56.7115C15.5221 56.7547 15.4893 56.8125 15.4769 56.8762C15.462 56.9539 15.4544 57.0327 15.4543 57.1118V58.5548C15.4532 58.6351 15.4607 58.7152 15.4769 58.7937C15.4868 58.8584 15.5187 58.9177 15.5672 58.9616C15.6267 59.0086 15.7015 59.0316 15.7771 59.0262Z" fill="#263238"/>
<path d="M17.1039 59.404V56.2662H17.8464C18.0509 56.2563 18.2551 56.2927 18.4436 56.3727C18.5891 56.4342 18.7049 56.55 18.7664 56.6955C18.8326 56.8718 18.8633 57.0594 18.8568 57.2475V58.3936C18.8629 58.587 18.8322 58.7798 18.7664 58.9617C18.7065 59.1018 18.599 59.2161 18.463 59.2845C18.2819 59.3668 18.0837 59.4045 17.8851 59.3943L17.1039 59.404ZM17.6785 59.0069H17.8528C17.9527 59.0147 18.0524 58.9898 18.1369 58.9359C18.1949 58.8829 18.2317 58.8106 18.2402 58.7325C18.2541 58.6255 18.2606 58.5176 18.2596 58.4097V57.2088C18.2613 57.106 18.2527 57.0032 18.2338 56.9021C18.2196 56.8326 18.1791 56.7713 18.1208 56.731C18.0357 56.6889 17.9411 56.67 17.8464 56.6761H17.6785V59.0069Z" fill="#263238"/>
<path d="M20.1223 59.4459C19.9332 59.4566 19.745 59.4129 19.5799 59.3199C19.4511 59.233 19.3564 59.1041 19.312 58.9552C19.2606 58.7714 19.2367 58.581 19.241 58.3902V56.2661H19.7962V58.4548C19.7958 58.5477 19.8023 58.6405 19.8156 58.7324C19.8252 58.8101 19.8578 58.8832 19.9092 58.9422C19.9372 58.9696 19.9706 58.9907 20.0074 59.004C20.0441 59.0174 20.0833 59.0227 20.1223 59.0197C20.1623 59.0235 20.2026 59.0185 20.2405 59.0051C20.2784 58.9917 20.313 58.9703 20.3418 58.9422C20.3896 58.8813 20.4208 58.809 20.4322 58.7324C20.4455 58.6405 20.452 58.5477 20.4515 58.4548V56.2661H21.0068V58.3902C21.01 58.5812 20.985 58.7715 20.9326 58.9552C20.8892 59.1037 20.7957 59.2327 20.6678 59.3199C20.5018 59.4133 20.3124 59.457 20.1223 59.4459Z" fill="#263238"/>
<path d="M22.3011 59.4459C22.1108 59.4566 21.9217 59.4093 21.7588 59.3103C21.6303 59.2208 21.535 59.0915 21.4876 58.9423C21.4332 58.7667 21.407 58.5837 21.4101 58.3999V57.283C21.4064 57.0939 21.4325 56.9054 21.4876 56.7245C21.5324 56.5748 21.6284 56.4457 21.7588 56.3597C21.9236 56.266 22.1118 56.2212 22.3011 56.2306C22.4772 56.2214 22.6525 56.2605 22.808 56.3436C22.931 56.4164 23.0237 56.5309 23.0694 56.6664C23.1237 56.8197 23.1499 56.9815 23.1469 57.1441V57.4089H22.5981V57.1377C22.6034 57.0571 22.6034 56.9762 22.5981 56.8956C22.5908 56.8325 22.5649 56.773 22.5239 56.7245C22.4955 56.7004 22.4626 56.6823 22.4271 56.6712C22.3916 56.6601 22.3543 56.6563 22.3173 56.6599C22.2785 56.6563 22.2395 56.6605 22.2023 56.6721C22.1652 56.6837 22.1307 56.7026 22.101 56.7277C22.0535 56.7772 22.0229 56.8405 22.0138 56.9085C22.0003 56.9939 21.9939 57.0803 21.9945 57.1667V58.5258C21.9924 58.6203 22.0022 58.7146 22.0235 58.8067C22.035 58.8714 22.0694 58.9298 22.1204 58.9713C22.1772 59.013 22.2469 59.0335 22.3173 59.0294C22.354 59.0327 22.391 59.0284 22.426 59.0168C22.461 59.0051 22.4932 58.9863 22.5207 58.9616C22.5624 58.9099 22.5883 58.847 22.5949 58.7809C22.6004 58.697 22.6004 58.6129 22.5949 58.5291V58.245H23.1437V58.4968C23.1472 58.6642 23.1232 58.831 23.0727 58.9907C23.0231 59.123 22.9326 59.2361 22.8144 59.3135C22.6595 59.4058 22.4814 59.4518 22.3011 59.4459Z" fill="#263238"/>
<path d="M23.8605 59.4039V56.6889H23.3601V56.2661H24.9258V56.6889H24.4351V59.4039H23.8605Z" fill="#263238"/>
<path d="M26.0008 59.4458C25.8357 59.4521 25.6719 59.4142 25.5263 59.3361C25.3998 59.2613 25.3003 59.1482 25.2422 59.0133C25.1715 58.8479 25.1341 58.6702 25.1324 58.4903L25.6231 58.3934C25.6282 58.5022 25.6433 58.6103 25.6683 58.7163C25.6865 58.796 25.7254 58.8696 25.7813 58.9293C25.8075 58.9553 25.8389 58.9757 25.8733 58.989C25.9077 59.0023 25.9446 59.0084 25.9815 59.0068C26.0187 59.0105 26.0563 59.0047 26.0907 58.99C26.1251 58.9754 26.1553 58.9523 26.1784 58.9229C26.2195 58.8597 26.2398 58.7852 26.2365 58.7098C26.2384 58.5953 26.2057 58.4828 26.1429 58.387C26.0707 58.2893 25.9873 58.2004 25.8943 58.1223L25.5005 57.7736C25.3929 57.6834 25.3032 57.5739 25.2357 57.4508C25.1642 57.317 25.1297 57.1666 25.1357 57.015C25.1295 56.9099 25.1456 56.8047 25.1829 56.7062C25.2202 56.6078 25.2778 56.5183 25.352 56.4436C25.5159 56.3009 25.729 56.2279 25.946 56.2402C26.0721 56.2359 26.1977 56.259 26.314 56.308C26.4076 56.3502 26.4888 56.4158 26.5496 56.4985C26.6086 56.5804 26.6523 56.6723 26.6788 56.7697C26.7072 56.8753 26.7256 56.9834 26.7336 57.0925L26.243 57.1796C26.24 57.0906 26.2292 57.002 26.2107 56.9149C26.1998 56.8475 26.1695 56.7847 26.1235 56.7341C26.0981 56.7105 26.068 56.6922 26.0353 56.6806C26.0025 56.6689 25.9677 56.6641 25.933 56.6664C25.8965 56.6646 25.86 56.6712 25.8264 56.6858C25.7928 56.7003 25.7631 56.7224 25.7394 56.7503C25.6935 56.8092 25.6696 56.8823 25.6716 56.9569C25.6683 57.0484 25.6906 57.1389 25.7361 57.2184C25.7893 57.298 25.8534 57.3697 25.9266 57.4314L26.3237 57.7672C26.4501 57.8769 26.5589 58.0054 26.6465 58.1481C26.7407 58.3083 26.7877 58.4918 26.7821 58.6775C26.7845 58.816 26.7512 58.9528 26.6852 59.0746C26.6196 59.1887 26.5249 59.2834 26.4108 59.349C26.2845 59.4152 26.1435 59.4485 26.0008 59.4458Z" fill="#263238"/>
<path d="M28.6995 59.4458C28.5678 59.4497 28.4374 59.4185 28.3218 59.3554C28.2167 59.2954 28.1305 59.207 28.0732 59.1004C28.0131 58.9814 27.9832 58.8495 27.9861 58.7162C27.9824 58.5346 28.0269 58.3553 28.1152 58.1965C28.2033 58.0465 28.3119 57.9096 28.438 57.7897L28.2863 57.5089C28.2353 57.4157 28.1922 57.3186 28.1571 57.2183C28.1252 57.1226 28.1088 57.0223 28.1087 56.9213C28.1056 56.7981 28.1333 56.676 28.1894 56.5662C28.2433 56.4641 28.3235 56.3782 28.4219 56.3177C28.5333 56.2558 28.6592 56.2246 28.7866 56.2273C28.9063 56.225 29.0248 56.2516 29.1321 56.3047C29.2296 56.3557 29.312 56.4314 29.371 56.5243C29.4292 56.6218 29.4594 56.7335 29.4581 56.8471C29.4597 56.9816 29.4287 57.1145 29.3677 57.2345C29.3082 57.3507 29.2344 57.4592 29.1482 57.5573C29.0643 57.6541 28.9803 57.7445 28.9029 57.8252L29.3193 58.5419C29.349 58.4857 29.3718 58.4261 29.3871 58.3644C29.4199 58.2121 29.4425 58.0579 29.4549 57.9027H29.8746C29.8751 58.0243 29.8622 58.1456 29.8358 58.2643C29.8152 58.375 29.7827 58.4833 29.739 58.5871C29.699 58.679 29.6537 58.7684 29.6034 58.855C29.6373 58.8944 29.6791 58.9263 29.7261 58.9487C29.7744 58.9762 29.8286 58.9917 29.8842 58.9939V59.4394H29.8423H29.8003C29.7331 59.437 29.6671 59.4205 29.6066 59.3909C29.5484 59.36 29.4942 59.3221 29.4452 59.2779C29.398 59.2382 29.3538 59.195 29.3129 59.1488C29.2397 59.2414 29.1457 59.3154 29.0386 59.3647C28.9314 59.4141 28.8141 59.4374 28.6963 59.4329L28.6995 59.4458ZM28.6995 59.0584C28.7706 59.0599 28.8404 59.0396 28.8996 59.0003C28.9557 58.9629 29.0058 58.9172 29.0481 58.8647L28.6156 58.1416C28.5583 58.2243 28.5127 58.3145 28.48 58.4095C28.4506 58.5047 28.4353 58.6037 28.4348 58.7033C28.4351 58.7634 28.4438 58.8232 28.4606 58.8809C28.4772 58.9311 28.5074 58.9758 28.5478 59.01C28.5941 59.0472 28.6533 59.0646 28.7124 59.0584H28.6995ZM28.7285 57.5573C28.7778 57.4925 28.821 57.4233 28.8577 57.3507C28.899 57.2702 28.9325 57.1858 28.9577 57.0989C28.9827 57.0173 28.9958 56.9325 28.9965 56.8471C28.9988 56.8178 28.9949 56.7883 28.9849 56.7607C28.975 56.733 28.9592 56.7078 28.9388 56.6868C28.9183 56.6657 28.8936 56.6492 28.8662 56.6384C28.8389 56.6277 28.8095 56.6229 28.7802 56.6243C28.7475 56.6229 28.715 56.6302 28.686 56.6455C28.6571 56.6609 28.6328 56.6836 28.6156 56.7115C28.5789 56.7752 28.561 56.8479 28.5639 56.9213C28.5647 57.0309 28.5821 57.1398 28.6156 57.2442C28.6672 57.3636 28.7027 57.4637 28.7415 57.5573H28.7285Z" fill="#263238"/>
<path d="M32.0442 59.4458C31.879 59.4524 31.7151 59.4145 31.5696 59.3361C31.4422 59.2614 31.3417 59.1485 31.2823 59.0133C31.2128 58.8476 31.1765 58.6699 31.1758 58.4903L31.6665 58.3934C31.67 58.5024 31.6851 58.6106 31.7117 58.7163C31.7298 58.796 31.7688 58.8696 31.8247 58.9293C31.8506 58.9557 31.8819 58.9762 31.9164 58.9896C31.9509 59.0029 31.9879 59.0088 32.0248 59.0068C32.062 59.0099 32.0993 59.0039 32.1337 58.9892C32.168 58.9746 32.1982 58.9518 32.2217 58.9229C32.2628 58.8597 32.2832 58.7852 32.2798 58.7098C32.2817 58.5953 32.2491 58.4828 32.1862 58.387C32.114 58.2893 32.0306 58.2004 31.9376 58.1223L31.5438 57.7736C31.4354 57.6843 31.3454 57.5746 31.2791 57.4508C31.2075 57.317 31.173 57.1666 31.179 57.015C31.172 56.9098 31.1878 56.8044 31.2251 56.7058C31.2624 56.6072 31.3204 56.5178 31.3953 56.4436C31.5592 56.3009 31.7723 56.2279 31.9893 56.2402C32.1154 56.2365 32.2408 56.2596 32.3573 56.308C32.45 56.3503 32.5301 56.4159 32.5897 56.4985C32.6497 56.5802 32.6945 56.6721 32.7221 56.7697C32.7495 56.8754 32.7668 56.9835 32.7738 57.0925L32.2863 57.1796C32.2833 57.0906 32.2725 57.002 32.254 56.9149C32.244 56.8465 32.2123 56.7832 32.1636 56.7341C32.139 56.7102 32.1096 56.6918 32.0773 56.6801C32.045 56.6684 32.0106 56.6637 31.9764 56.6664C31.9398 56.6646 31.9033 56.6712 31.8698 56.6858C31.8362 56.7003 31.8064 56.7224 31.7827 56.7503C31.7369 56.8092 31.7129 56.8823 31.7149 56.9569C31.7099 57.0485 31.7324 57.1396 31.7795 57.2184C31.8326 57.298 31.8967 57.3697 31.9699 57.4314L32.3605 57.7769C32.487 57.8866 32.5958 58.0151 32.6834 58.1578C32.7776 58.3179 32.8246 58.5015 32.8189 58.6872C32.8214 58.8257 32.7881 58.9625 32.7221 59.0843C32.6562 59.1993 32.5602 59.2941 32.4445 59.3587C32.3203 59.4205 32.1828 59.4504 32.0442 59.4458Z" fill="#263238"/>
<path d="M33.1351 59.4039V56.2661H34.4522V56.6696H33.7098V57.5735H34.2941V57.9706H33.7098V59.01H34.4587V59.4039H33.1351Z" fill="#263238"/>
<path d="M34.7944 59.4038V56.266H35.5434C35.7261 56.2616 35.9084 56.2878 36.0825 56.3435C36.2161 56.389 36.3301 56.479 36.4053 56.5985C36.4867 56.7511 36.5257 56.9228 36.5183 57.0956C36.5205 57.2107 36.5085 57.3256 36.4828 57.4378C36.4632 57.5303 36.4235 57.6174 36.3666 57.6929C36.3058 57.7682 36.2254 57.8252 36.1341 57.8575L36.5732 59.4038H36.0082L35.6305 57.9673H35.3626V59.4038H34.7944ZM35.3658 57.6057H35.5434C35.6352 57.6096 35.7267 57.5931 35.8113 57.5573C35.8761 57.5258 35.926 57.4702 35.9501 57.4023C35.9825 57.3157 35.9978 57.2236 35.9953 57.1311C36.0043 57.0066 35.9738 56.8823 35.9082 56.776C35.8668 56.7332 35.8163 56.7002 35.7604 56.6795C35.7045 56.6588 35.6447 56.651 35.5853 56.6566H35.3626L35.3658 57.6057Z" fill="#263238"/>
<path d="M37.4319 59.4039L36.7863 56.2661H37.2995L37.716 58.4871L38.1034 56.2661H38.6231L37.9775 59.4039H37.4319Z" fill="#263238"/>
<path d="M38.9652 59.4039V56.2661H39.5301V59.4039H38.9652Z" fill="#263238"/>
<path d="M40.8506 59.4459C40.6602 59.4566 40.4711 59.4093 40.3082 59.3103C40.1798 59.2208 40.0844 59.0915 40.0371 58.9423C39.9826 58.7667 39.9564 58.5837 39.9596 58.3999V57.283C39.9558 57.0939 39.982 56.9054 40.0371 56.7245C40.0818 56.5748 40.1778 56.4457 40.3082 56.3597C40.4731 56.266 40.6612 56.2212 40.8506 56.2306C41.0266 56.2214 41.2019 56.2605 41.3574 56.3436C41.4804 56.4164 41.5732 56.5309 41.6189 56.6664C41.6757 56.8191 41.7031 56.9812 41.6996 57.1441V57.4089H41.1734V57.1377C41.1787 57.0571 41.1787 56.9762 41.1734 56.8956C41.1684 56.8319 41.1422 56.7717 41.0991 56.7245C41.0708 56.7004 41.0379 56.6823 41.0024 56.6712C40.9669 56.6601 40.9295 56.6563 40.8925 56.6599C40.8538 56.6563 40.8147 56.6605 40.7776 56.6721C40.7405 56.6837 40.706 56.7026 40.6762 56.7277C40.6287 56.7772 40.5982 56.8405 40.5891 56.9085C40.5756 56.9939 40.5691 57.0803 40.5697 57.1667V58.5258C40.5677 58.6203 40.5774 58.7146 40.5988 58.8067C40.6116 58.8709 40.6457 58.9289 40.6956 58.9713C40.7525 59.013 40.8221 59.0335 40.8925 59.0294C40.9293 59.0327 40.9663 59.0284 41.0013 59.0168C41.0363 59.0051 41.0685 58.9863 41.0959 58.9616C41.1377 58.9099 41.1635 58.847 41.1702 58.7809C41.1772 58.6971 41.1772 58.6128 41.1702 58.5291V58.245H41.7222V58.4968C41.7247 58.6644 41.6996 58.8312 41.6479 58.9907C41.5983 59.123 41.5079 59.2361 41.3897 59.3135C41.2276 59.4113 41.0395 59.4575 40.8506 59.4459Z" fill="#263238"/>
<path d="M42.1063 59.4039V56.2661H43.4331V56.6696H42.6906V57.5735H43.2749V57.9706H42.6906V59.01H43.4331V59.4039H42.1063Z" fill="#263238"/>
<path d="M44.5566 59.4458C44.3915 59.4524 44.2276 59.4145 44.0821 59.3361C43.9547 59.2614 43.8541 59.1485 43.7948 59.0133C43.7252 58.8476 43.689 58.6699 43.6882 58.4903L44.1789 58.3934C44.1824 58.5024 44.1976 58.6106 44.2241 58.7163C44.2408 58.7966 44.28 58.8705 44.3371 58.9293C44.3627 58.9553 44.3935 58.9755 44.4274 58.9889C44.4613 59.0022 44.4976 59.0083 44.534 59.0068C44.5717 59.0104 44.6097 59.0047 44.6447 58.99C44.6796 58.9754 44.7103 58.9523 44.7342 58.9229C44.7753 58.8597 44.7956 58.7852 44.7923 58.7098C44.7942 58.5953 44.7615 58.4828 44.6987 58.387C44.6265 58.2893 44.5431 58.2004 44.4501 58.1223L44.0562 57.7736C43.9477 57.6835 43.8569 57.5741 43.7883 57.4508C43.7194 57.3162 43.6861 57.1661 43.6915 57.015C43.6845 56.9098 43.7002 56.8044 43.7375 56.7058C43.7748 56.6072 43.8329 56.5178 43.9078 56.4436C44.0716 56.3009 44.2848 56.2279 44.5017 56.2402C44.6278 56.2365 44.7533 56.2596 44.8698 56.308C44.9624 56.3503 45.0425 56.4159 45.1022 56.4985C45.1624 56.5797 45.2062 56.6718 45.2313 56.7697C45.2613 56.8749 45.2797 56.9832 45.2862 57.0925L44.7987 57.1796C44.7958 57.0906 44.785 57.002 44.7665 56.9149C44.7545 56.8472 44.7231 56.7844 44.6761 56.7341C44.6515 56.7102 44.622 56.6918 44.5897 56.6801C44.5575 56.6684 44.5231 56.6637 44.4888 56.6664C44.4518 56.6646 44.4148 56.6712 44.3807 56.6857C44.3466 56.7002 44.3163 56.7223 44.2919 56.7503C44.2461 56.8092 44.2221 56.8823 44.2241 56.9569C44.2201 57.0489 44.2437 57.1399 44.2919 57.2184C44.3441 57.2988 44.4083 57.3706 44.4824 57.4314L44.873 57.7769C45.0004 57.8856 45.1094 58.0143 45.1958 58.1578C45.292 58.3172 45.3402 58.5011 45.3346 58.6872C45.3376 58.8262 45.3031 58.9634 45.2346 59.0843C45.1708 59.1998 45.0756 59.2949 44.9602 59.3587C44.835 59.421 44.6963 59.451 44.5566 59.4458Z" fill="#263238"/>
<path d="M16.2645 43.7858H21.7428L24.5062 39.2404H19.0279L16.2645 43.7858Z" fill="white" stroke="#263238" stroke-width="0.5" stroke-linecap="round" stroke-linejoin="round"/>
<path d="M36.5991 39.2404H19.0376V53.3284H36.5991V39.2404Z" fill="white" stroke="#263238" stroke-width="0.5" stroke-linecap="round" stroke-linejoin="round"/>
<path d="M36.5991 39.2404H31.179V53.3284H36.5991V39.2404Z" fill="#263238" stroke="#263238" stroke-width="0.5" stroke-linecap="round" stroke-linejoin="round"/>
<path d="M39.4238 43.7858H33.9423L31.179 39.2404H36.6605L39.4238 43.7858Z" fill="white" stroke="#263238" stroke-width="0.5" stroke-linecap="round" stroke-linejoin="round"/>
<path d="M29.7003 43.7858H17.8721L19.102 39.2404H30.927L29.7003 43.7858Z" fill="white" stroke="#263238" stroke-width="0.5" stroke-linecap="round" stroke-linejoin="round"/>
<path d="M29.9458 50.0518H27.1953V51.4754H29.9458V50.0518Z" fill="white" stroke="#263238" stroke-width="0.5" stroke-linecap="round" stroke-linejoin="round"/>
<path d="M16.9615 96.5026V93.7876H16.4644V93.3647H18.03V93.7876H17.5361V96.5026H16.9615Z" fill="#263238"/>
<path d="M18.3174 96.5026V93.3647H19.6345V93.7683H18.8985V94.6819H19.4828V95.0822H18.8985V96.1184H19.641V96.5123L18.3174 96.5026Z" fill="#263238"/>
<path d="M20.8355 96.5477C20.6452 96.558 20.4562 96.5108 20.2932 96.4122C20.164 96.3221 20.0685 96.1914 20.022 96.0409C19.9676 95.8665 19.9414 95.6845 19.9445 95.5018V94.3816C19.941 94.1925 19.9671 94.0041 20.022 93.8231C20.0677 93.6739 20.1635 93.5451 20.2932 93.4583C20.4585 93.3662 20.6465 93.3226 20.8355 93.3324C21.0123 93.3227 21.1885 93.3606 21.3456 93.4422C21.4682 93.5155 21.5608 93.6299 21.6071 93.765C21.6615 93.9172 21.6878 94.078 21.6845 94.2396V94.5043H21.1164V94.2331C21.1215 94.1525 21.1215 94.0716 21.1164 93.991C21.1113 93.9273 21.0852 93.8671 21.0421 93.8199C21.0138 93.7958 20.9809 93.7777 20.9454 93.7667C20.9099 93.7556 20.8725 93.7517 20.8355 93.7553C20.7573 93.7488 20.6797 93.7731 20.6192 93.8231C20.5711 93.8735 20.5405 93.938 20.5321 94.0071C20.5184 94.0915 20.512 94.1768 20.5127 94.2622V95.6277C20.5107 95.7222 20.5204 95.8165 20.5418 95.9086C20.5535 95.9732 20.5879 96.0315 20.6386 96.0732C20.6955 96.1149 20.7651 96.1354 20.8355 96.1313C20.8723 96.1352 20.9095 96.1312 20.9446 96.1195C20.9797 96.1078 21.0118 96.0887 21.0389 96.0635C21.0807 96.0118 21.1065 95.9489 21.1131 95.8827C21.1256 95.7994 21.131 95.7152 21.1293 95.6309V95.3275H21.6813V95.5825C21.6836 95.749 21.6585 95.9148 21.6071 96.0732C21.5587 96.2062 21.4679 96.3196 21.3488 96.396C21.1962 96.4956 21.0178 96.5484 20.8355 96.5477Z" fill="#263238"/>
<path d="M22.0751 96.5026V93.3647H22.6432V94.6819H23.2889V93.368H23.8635V96.5058H23.2824V95.0886H22.6368V96.5058L22.0751 96.5026Z" fill="#263238"/>
<path d="M24.3347 96.5026V93.3647H24.735L25.4969 95.1564V93.3647H25.9714V96.5026H25.5905L24.8254 94.6302V96.5026H24.3347Z" fill="#263238"/>
<path d="M27.2918 96.5478C27.1069 96.5573 26.9232 96.5136 26.7624 96.4219C26.6298 96.3396 26.5295 96.2142 26.4783 96.0668C26.4193 95.8889 26.3909 95.7022 26.3943 95.5148V94.3591C26.3908 94.1737 26.4192 93.9892 26.4783 93.8135C26.5305 93.6691 26.6308 93.5472 26.7624 93.4681C26.9247 93.3809 27.1077 93.3396 27.2918 93.3486C27.479 93.3384 27.6655 93.3798 27.8309 93.4681C27.9606 93.5485 28.0595 93.6701 28.1118 93.8135C28.1738 93.9885 28.2033 94.1734 28.1989 94.3591V95.5374C28.2031 95.7219 28.1736 95.9057 28.1118 96.0797C28.06 96.2267 27.9613 96.3526 27.8309 96.438C27.6651 96.5246 27.4782 96.5626 27.2918 96.5478ZM27.2918 96.1249C27.3678 96.1302 27.4433 96.1085 27.5048 96.0636C27.5518 96.0171 27.5833 95.9574 27.5952 95.8925C27.6106 95.8127 27.6171 95.7315 27.6146 95.6503V94.2041C27.616 94.1249 27.6085 94.0459 27.592 93.9684C27.5807 93.9051 27.549 93.8473 27.5016 93.8038C27.4401 93.7588 27.3646 93.7371 27.2886 93.7425C27.2155 93.7365 27.1428 93.7584 27.0852 93.8038C27.0359 93.8462 27.0028 93.9044 26.9916 93.9684C26.9751 94.0459 26.9675 94.1249 26.969 94.2041V95.6503C26.9686 95.7293 26.9751 95.8082 26.9883 95.886C27.0012 95.9513 27.0339 96.0111 27.0819 96.0571C27.1406 96.1058 27.2157 96.1301 27.2918 96.1249Z" fill="#263238"/>
<path d="M28.6283 96.5026V93.3647H29.2029V96.1087H29.9615V96.5026H28.6283Z" fill="#263238"/>
<path d="M31.0721 96.5477C30.8872 96.5572 30.7034 96.5135 30.5426 96.4218C30.4101 96.3395 30.3098 96.2141 30.2585 96.0667C30.1995 95.8888 30.1711 95.7021 30.1746 95.5147V94.359C30.1711 94.1736 30.1995 93.9891 30.2585 93.8134C30.3108 93.669 30.4111 93.5471 30.5426 93.468C30.7092 93.3892 30.8911 93.3484 31.0753 93.3484C31.2595 93.3484 31.4414 93.3892 31.6079 93.468C31.7395 93.5471 31.8398 93.669 31.892 93.8134C31.9541 93.9884 31.9836 94.1733 31.9792 94.359V95.5373C31.9834 95.7218 31.9538 95.9056 31.892 96.0796C31.8401 96.2275 31.7401 96.3536 31.6079 96.4379C31.4436 96.5253 31.2575 96.5634 31.0721 96.5477ZM31.0721 96.1248C31.1481 96.1301 31.2236 96.1084 31.2851 96.0635C31.332 96.017 31.3636 95.9573 31.3755 95.8924C31.3915 95.8149 31.3991 95.7358 31.3981 95.6567V94.2105C31.3995 94.1313 31.392 94.0522 31.3755 93.9748C31.3642 93.9115 31.3325 93.8537 31.2851 93.8102C31.2236 93.7652 31.1481 93.7435 31.0721 93.7488C30.999 93.7429 30.9263 93.7648 30.8687 93.8102C30.8194 93.8525 30.7863 93.9107 30.7751 93.9748C30.7586 94.0522 30.751 94.1313 30.7525 94.2105V95.6502C30.7521 95.7292 30.7586 95.8081 30.7718 95.8859C30.7838 95.9508 30.8153 96.0106 30.8622 96.057C30.922 96.1035 30.9963 96.1275 31.0721 96.1248Z" fill="#263238"/>
<path d="M33.1866 96.5477C33.0132 96.5562 32.8415 96.5099 32.6959 96.4154C32.5697 96.3229 32.4777 96.1912 32.4344 96.0409C32.3782 95.8557 32.351 95.663 32.3537 95.4695V94.4171C32.3496 94.2206 32.3757 94.0246 32.4312 93.836C32.4762 93.683 32.5733 93.5506 32.7056 93.4615C32.8688 93.3669 33.0562 93.322 33.2447 93.3324C33.422 93.3238 33.5987 93.3604 33.758 93.4389C33.8829 93.512 33.9788 93.626 34.0291 93.7618C34.09 93.9191 34.1186 94.0871 34.1131 94.2557V94.4171H33.5675V94.2395C33.5693 94.1529 33.5617 94.0663 33.5449 93.9813C33.5373 93.9182 33.5076 93.8598 33.461 93.8166C33.4015 93.7727 33.328 93.7521 33.2544 93.7585C33.2146 93.7552 33.1746 93.76 33.1369 93.7728C33.0991 93.7856 33.0644 93.806 33.0348 93.8328C32.986 93.8861 32.9564 93.9543 32.9509 94.0265C32.9374 94.1141 32.931 94.2026 32.9315 94.2912V95.6051C32.9302 95.6995 32.94 95.7938 32.9606 95.8859C32.9726 95.9567 33.0078 96.0214 33.0607 96.0699C33.1209 96.1153 33.1952 96.1382 33.2705 96.1345C33.3481 96.1396 33.4246 96.1141 33.4836 96.0635C33.5356 96.0104 33.5704 95.9429 33.5836 95.8698C33.6045 95.7733 33.6143 95.6747 33.6127 95.576V95.2822H33.2899V94.9207H34.1421V96.5122H33.7483L33.7063 96.1894C33.668 96.2897 33.6033 96.3778 33.5191 96.4444C33.422 96.5132 33.3056 96.5494 33.1866 96.5477Z" fill="#263238"/>
<path d="M34.5812 96.5026V93.3647H35.1493V96.5026H34.5812Z" fill="#263238"/>
<path d="M35.6335 96.5026V93.3647H36.9507V93.7683H36.2049V94.6819H36.7892V95.0822H36.2049V96.1184H36.9571V96.5123L35.6335 96.5026Z" fill="#263238"/>
<path d="M38.0805 96.5478C37.9151 96.553 37.7513 96.514 37.606 96.4348C37.4789 96.3607 37.3793 96.2474 37.3219 96.112C37.2512 95.9466 37.2139 95.7689 37.2122 95.589L37.7028 95.4921C37.7079 95.6009 37.7231 95.709 37.748 95.815C37.7667 95.8945 37.8057 95.9679 37.861 96.028C37.8873 96.054 37.9186 96.0744 37.953 96.0877C37.9875 96.101 38.0243 96.1071 38.0612 96.1055C38.0984 96.1092 38.136 96.1034 38.1704 96.0887C38.2048 96.0741 38.235 96.051 38.2581 96.0216C38.2988 95.9593 38.3191 95.886 38.3162 95.8117C38.321 95.6918 38.2883 95.5733 38.2226 95.4728C38.1511 95.3755 38.0676 95.2876 37.974 95.2113L37.5802 94.8626C37.4741 94.7709 37.3846 94.6618 37.3155 94.5398C37.2448 94.4057 37.2103 94.2555 37.2154 94.104C37.2092 93.9984 37.2253 93.8927 37.2625 93.7937C37.2998 93.6948 37.3574 93.6047 37.4317 93.5294C37.5961 93.3879 37.8092 93.3161 38.0257 93.3292C38.1518 93.3249 38.2774 93.3481 38.3937 93.397C38.4871 93.438 38.5683 93.5026 38.6293 93.5843C38.6883 93.6674 38.7321 93.7603 38.7585 93.8587C38.7875 93.9642 38.8059 94.0723 38.8134 94.1815L38.3227 94.2654C38.3195 94.1764 38.3087 94.0879 38.2904 94.0007C38.278 93.9337 38.2479 93.8713 38.2032 93.8199C38.1505 93.7745 38.0822 93.7513 38.0128 93.7554C37.9764 93.7529 37.94 93.759 37.9064 93.773C37.8728 93.787 37.8429 93.8086 37.8191 93.8361C37.7725 93.8959 37.7485 93.9702 37.7513 94.0459C37.7483 94.1373 37.7707 94.2278 37.8158 94.3074C37.8692 94.3859 37.9333 94.4566 38.0063 94.5172L38.3969 94.8626C38.5233 94.9724 38.6322 95.1009 38.7197 95.2436C38.814 95.4037 38.861 95.5873 38.8553 95.773C38.8578 95.9115 38.8244 96.0483 38.7585 96.1701C38.6937 96.2848 38.5988 96.3797 38.4841 96.4445C38.3602 96.5119 38.2216 96.5474 38.0805 96.5478Z" fill="#263238"/>
<path d="M31.4336 70.9318H25.2451V88.3254H31.4336V70.9318Z" fill="white" stroke="#263238" stroke-width="0.5" stroke-linecap="round" stroke-linejoin="round"/>
<path d="M30.7783 70.9318H24.5898V88.3254H30.7783V70.9318Z" fill="white" stroke="#263238" stroke-width="0.5" stroke-linecap="round" stroke-linejoin="round"/>
<path d="M30.7783 81.3816H24.5898V85.3814H30.7783V81.3816Z" fill="#263238" stroke="#263238" stroke-width="0.5" stroke-linecap="round" stroke-linejoin="round"/>
<path d="M32.5701 88.2157H23.657V89.139H32.5701V88.2157Z" fill="white" stroke="#263238" stroke-width="0.5" stroke-linecap="round" stroke-linejoin="round"/>
<path d="M31.2691 88.2157H22.356V89.139H31.2691V88.2157Z" fill="white" stroke="#263238" stroke-width="0.5" stroke-linecap="round" stroke-linejoin="round"/>
<path d="M36.1372 70.9318H19.2278C18.5539 70.9318 18.0076 71.4781 18.0076 72.152V83.157C18.0076 83.831 18.5539 84.3773 19.2278 84.3773H36.1372C36.8112 84.3773 37.3575 83.831 37.3575 83.157V72.152C37.3575 71.4781 36.8112 70.9318 36.1372 70.9318Z" fill="#263238" stroke="#263238" stroke-width="0.5" stroke-linecap="round" stroke-linejoin="round"/>
<path d="M36.9604 70.9318H20.051C19.377 70.9318 18.8307 71.4781 18.8307 72.152V83.157C18.8307 83.831 19.377 84.3773 20.051 84.3773H36.9604C37.6343 84.3773 38.1806 83.831 38.1806 83.157V72.152C38.1806 71.4781 37.6343 70.9318 36.9604 70.9318Z" fill="#263238" stroke="#263238" stroke-width="0.5" stroke-linecap="round" stroke-linejoin="round"/>
<path d="M18.0076 81.643V83.157C18.0076 83.4796 18.1352 83.789 18.3627 84.0176C18.5901 84.2463 18.8989 84.3756 19.2214 84.3773H36.1372C36.4609 84.3773 36.7713 84.2488 37.0001 84.0199C37.229 83.7911 37.3575 83.4807 37.3575 83.157V81.643H18.0076Z" fill="white" stroke="#263238" stroke-width="0.5" stroke-linecap="round" stroke-linejoin="round"/>
<path d="M35.6144 107.133C35.6144 107.133 34.1746 105.496 33.3256 104.909C32.7476 104.473 32.2077 103.989 31.7115 103.463C31.5022 103.24 31.224 103.094 30.9217 103.049C30.6195 103.004 30.3109 103.062 30.0457 103.214C29.9001 103.302 29.7684 103.41 29.6551 103.537C29.0094 104.257 27.6956 106.478 27.6956 107.065C27.6956 107.653 28.8706 108.767 28.8706 108.767C28.8706 108.767 31.1594 110.794 32.3345 111.317C33.2718 111.7 34.2325 112.024 35.2109 112.285C35.5677 112.156 35.8866 111.94 36.1386 111.657C36.3906 111.373 36.5677 111.031 36.6539 110.662C36.9767 109.354 35.6144 107.133 35.6144 107.133Z" fill="#263238" stroke="#263238" stroke-width="0.5" stroke-linecap="round" stroke-linejoin="round"/>
<path d="M33.3255 108.563C32.9445 109.816 33.6031 111.378 33.8355 111.869C34.5942 112.121 35.2204 112.289 35.2204 112.289C35.5758 112.158 35.893 111.941 36.1433 111.657C36.3936 111.373 36.569 111.031 36.6538 110.661C36.9766 109.354 35.6078 107.133 35.6078 107.133C35.3625 107.395 33.7839 107.065 33.3255 108.563Z" fill="white" stroke="#263238" stroke-width="0.5" stroke-linecap="round" stroke-linejoin="round"/>
<path d="M75.4893 110.532C75.4893 110.532 75.0309 112.427 74.8436 113.144C74.6641 114.074 74.5337 115.012 74.453 115.956C74.453 115.956 75.8896 116.873 77.0001 117.066C78.1106 117.26 77.5876 117.066 77.5876 117.066L78.1106 116.479C78.5927 116.584 79.0417 116.805 79.418 117.124C80.0088 117.647 81.1838 117.909 82.2298 118.093C83.2757 118.277 87.3949 118.684 88.1148 118.29C88.8347 117.896 89.2253 117.644 89.0833 117.441C88.9413 117.237 87.9728 116.795 86.4039 115.937C84.835 115.078 81.6971 112.537 81.3711 111.821L81.0483 111.101C81.0483 111.101 77.5134 111.12 75.4893 110.532Z" fill="#263238" stroke="#263238" stroke-width="0.5" stroke-linecap="round" stroke-linejoin="round"/>
<path d="M110.393 81.698H85.048V102.853H110.393V81.698Z" fill="#263238" stroke="#263238" stroke-width="0.5" stroke-linecap="round" stroke-linejoin="round"/>
<path d="M95.6559 73.0204L98.7324 75.1317C98.9132 75.2511 100.121 79.1121 100.121 79.1121C100.121 79.1121 100.54 80.3776 99.6363 80.6197C98.7324 80.8618 95.5946 81.4041 95.5946 81.4041C95.5946 81.4041 93.7255 78.5698 93.7255 77.8531C93.749 77.2827 93.8291 76.7161 93.9643 76.1615L95.6559 73.0204Z" fill="white" stroke="#263238" stroke-width="0.5" stroke-linecap="round" stroke-linejoin="round"/>
<path d="M101.489 81.7432H100.521V79.4834C100.521 79.4526 100.509 79.423 100.487 79.4012C100.465 79.3794 100.436 79.3672 100.405 79.3672H94.0032C93.9729 79.368 93.9442 79.3807 93.9231 79.4024C93.902 79.4241 93.8902 79.4531 93.8902 79.4834V81.6689H92.9218V79.5092C92.9218 79.2221 93.0356 78.9467 93.2383 78.7434C93.441 78.5401 93.7161 78.4254 94.0032 78.4246H100.405C100.692 78.4254 100.968 78.54 101.171 78.7432C101.374 78.9464 101.489 79.2218 101.489 79.5092V81.7432Z" fill="#263238"/>
<path d="M87.4499 65.418L94.2679 71.3289L91.795 75.7935L83.1079 70.1829L87.4499 65.418Z" fill="#F39712" stroke="#263238" stroke-width="0.5" stroke-linecap="round" stroke-linejoin="round"/>
<path d="M87.4239 66.351L86.5749 72.3168L83.8535 70.9028L87.4239 66.351Z" fill="#263238" stroke="#263238" stroke-width="0.5" stroke-linecap="round" stroke-linejoin="round"/>
<path d="M94.2678 71.3289L96.0756 73.0786L93.9644 76.1551L92.276 74.8896L94.2678 71.3289Z" fill="white" stroke="#263238" stroke-width="0.5" stroke-linecap="round" stroke-linejoin="round"/>
<path d="M50.1898 88.8938C50.1898 88.8938 51.6942 103.666 52.0848 105.17C52.4754 106.675 52.6078 107.524 52.6078 107.524C52.6078 107.524 51.5618 107.327 51.5618 107.656V107.979L35.6144 107.13C35.6144 107.13 34.5685 108.098 34.6459 109.416C34.7321 110.394 34.9292 111.358 35.2335 112.292C35.2335 112.292 40.6601 113.664 47.5879 114.778C54.5156 115.891 55.0418 116.214 55.6939 116.214C56.346 116.214 59.0287 116.347 60.0746 115.039C61.1206 113.732 62.0342 113.012 62.2956 110.842C62.5571 108.673 65.8919 87.0472 65.8919 87.0472L80.2058 87.7671L75.1084 110.972C75.1084 110.972 76.9388 112.214 78.2463 112.279C79.5537 112.344 81.9071 112.15 81.9071 112.15C82.0147 111.721 82.0807 111.284 82.104 110.842V109.535C82.104 109.535 89.6193 89.859 90.4683 87.4411C91.3173 85.0231 92.954 81.1008 92.628 79.2704C92.3019 77.44 79.8798 75.6742 78.8338 75.6742C77.7879 75.6742 57.0659 91.1696 56.4138 91.3633C55.7617 91.557 50.1898 88.8938 50.1898 88.8938Z" fill="#F39712" stroke="#263238" stroke-width="0.5" stroke-linecap="round" stroke-linejoin="round"/>
<path d="M53.4631 108.479C53.4631 108.479 54.664 110.113 56.078 110.658" stroke="#263238" stroke-width="0.5" stroke-linecap="round" stroke-linejoin="round"/>
<path d="M51.5616 107.982C51.5616 107.982 52.1589 110.549 54.1184 111.533" stroke="#263238" stroke-width="0.5" stroke-linecap="round" stroke-linejoin="round"/>
<path d="M78.8208 75.6902L74.3755 87.5669H68.823L78.8208 75.6902Z" fill="#263238" stroke="#263238" stroke-width="0.5" stroke-linecap="round" stroke-linejoin="round"/>
<path d="M81.5937 49.1639C81.5937 49.1639 69.7493 51.6981 66.2209 54.0482C62.6924 56.3984 52.0716 69.1014 49.3115 72.901C46.5513 76.7007 45.0179 79.2283 45.0179 79.2283C45.0179 79.2283 45.5603 86.2368 48.5884 89.9008C51.6164 93.5649 54.1958 96.9061 54.6477 96.7253C55.0997 96.5445 64.4583 89.8105 65.543 88.4514C66.6276 87.0923 69.0682 88.7742 73.139 83.7963C77.2097 78.8184 82.5428 72.5395 82.5428 72.5395C82.5428 72.5395 85.616 68.3783 87.4238 66.3445C89.274 64.2469 90.4692 61.6534 90.8619 58.8841C91.1847 56.2628 89.2801 52.4664 86.9267 50.5682C84.5733 48.67 81.5937 49.1639 81.5937 49.1639Z" fill="#F39712" stroke="#263238" stroke-width="0.5" stroke-linecap="round" stroke-linejoin="round"/>
<path d="M57.9051 85.0972L52.8723 79.4156L54.1119 78.3696L60.3876 85.3006" stroke="#263238" stroke-width="0.5" stroke-linecap="round" stroke-linejoin="round"/>
<path d="M59.9972 87.4572L58.9706 86.3015" stroke="#263238" stroke-width="0.5" stroke-linecap="round" stroke-linejoin="round"/>
<path d="M80.1282 49.6741C79.08 51.3888 78.1627 53.1801 77.3842 55.0329C76.2737 57.7801 75.4214 60.5209 75.4214 60.5209C75.4214 60.5209 77.3842 61.3053 77.5779 61.3053C77.7716 61.3053 75.1599 63.8556 75.1599 63.8556C75.0307 65.7279 75.2307 67.6082 75.7507 69.4114C76.1918 70.7414 76.5625 72.0938 76.8612 73.4628L78.2978 72.3523" stroke="#263238" stroke-width="0.5" stroke-linecap="round" stroke-linejoin="round"/>
<path d="M76.0122 74.0568L73.4619 76.8653" stroke="#263238" stroke-width="0.5" stroke-linecap="round" stroke-linejoin="round"/>
<path d="M80.0573 54.7327C80.0573 54.7327 79.1986 60.2046 78.8822 63.549C78.5658 66.8934 78.7886 71.8681 78.7886 71.8681C78.7886 71.8681 84.2152 66.8482 85.0287 65.3116C85.5967 64.1532 86.0508 62.9423 86.3846 61.696C86.3846 61.696 84.5316 58.3031 83.8988 57.0377C83.2661 55.7722 81.7747 52.473 80.0573 54.7327Z" fill="white" stroke="#263238" stroke-width="0.5" stroke-linecap="round" stroke-linejoin="round"/>
<path d="M81.5034 62.9163L82.4977 66.7579L79.6504 88.8679L82.1361 92.4835L84.5315 88.9131L83.3112 66.7579L85.6161 62.9163L83.9891 60.2014L81.5034 62.9163Z" fill="#263238" stroke="#263238" stroke-width="0.5" stroke-linecap="round" stroke-linejoin="round"/>
<path d="M83.5825 61.4699L79.8313 64.7692C79.8313 64.7692 79.3342 63.8653 79.6053 59.7493C79.8765 55.6333 80.5093 51.9757 81.0064 50.4391C81.5036 48.9025 81.8199 48.6733 81.8199 48.6733C81.8199 48.6733 82.5882 55.1846 83.221 56.5405C83.8537 57.8963 88.0116 60.3401 88.0116 60.3401C88.0116 60.3401 87.2885 63.4585 86.927 64.1365C86.7027 64.56 86.5064 64.9979 86.3394 65.4471L83.5825 61.4699Z" fill="white" stroke="#263238" stroke-width="0.5" stroke-linecap="round" stroke-linejoin="round"/>
<path d="M81.5939 49.164C81.5939 49.164 81.0967 53.3251 81.5939 55.5397C82.091 57.7543 83.5825 61.4635 83.5825 61.4635L90.1842 59.2037L90.8621 58.8809C90.8621 58.8809 90.365 58.6097 87.9567 56.6211C85.5485 54.6326 85.3741 54.3614 85.1998 52.5988C85.0255 50.8362 84.793 49.6127 83.7988 48.754C82.8045 47.8953 81.7747 48.8992 81.5939 49.164Z" fill="white" stroke="#263238" stroke-width="0.5" stroke-linecap="round" stroke-linejoin="round"/>
<path d="M85.5226 56.0692L86.9591 60.2885L90.8621 58.8907L85.5226 56.0692Z" fill="#263238" stroke="#263238" stroke-width="0.5" stroke-linecap="round" stroke-linejoin="round"/>
<path d="M71.6769 115.575L73.6364 117.273C73.6364 117.273 75.9252 118.241 75.4022 118.516C74.8793 118.79 73.6364 118.254 73.1134 117.928C72.8034 117.731 72.4798 117.556 72.145 117.405L71.6769 115.575Z" fill="white" stroke="#263238" stroke-width="0.5" stroke-linecap="round" stroke-linejoin="round"/>
<path d="M69.6656 107.792C69.6656 107.792 69.3234 109.235 71.1538 114.2C71.8349 116.046 73.8978 119.823 74.4885 120.475C75.0793 121.127 75.9897 121.589 75.4021 121.718C74.8146 121.847 74.4337 121.328 73.7041 120.869C72.9745 120.411 71.7413 118.451 71.7413 118.451C71.7413 118.451 72.7873 120.543 73.2457 121.328C73.7041 122.112 74.3562 123.155 74.3562 123.155C74.3562 123.155 74.1593 123.678 73.3102 123.026C72.4612 122.373 72.0028 121.392 71.6122 120.869C71.3253 120.471 71.0633 120.056 70.8277 119.626C70.8277 119.626 71.6768 122.177 71.9382 122.7C72.1997 123.223 71.6154 123.549 71.2926 123.022C70.9698 122.496 70.6211 122.312 70.4888 121.922C70.3564 121.531 70.2466 122.377 69.1361 120.081C68.5292 118.822 66.9151 117.008 66.1952 115.239C65.4753 113.47 65.4753 114.271 65.4108 112.821C65.3462 111.372 65.4753 108.705 65.4753 108.705L69.6656 107.792Z" fill="white" stroke="#263238" stroke-width="0.5" stroke-linecap="round" stroke-linejoin="round"/>
<path d="M70.4145 121.799C70.3334 121.133 70.2093 120.473 70.0433 119.823C69.7459 119.179 69.3904 118.563 68.9812 117.983" stroke="#263238" stroke-width="0.5" stroke-linecap="round" stroke-linejoin="round"/>
<path d="M70.8277 119.626L69.9109 117.731" stroke="#263238" stroke-width="0.5" stroke-linecap="round" stroke-linejoin="round"/>
<path d="M71.7413 118.451L71.0892 116.947" stroke="#263238" stroke-width="0.5" stroke-linecap="round" stroke-linejoin="round"/>
<path d="M64.3552 105.981L64.4876 109.38C64.4876 109.38 66.2502 109.967 67.4285 109.967C68.6068 109.967 70.1725 109.903 70.1725 109.903L70.1079 106.242L64.3552 105.981Z" fill="white" stroke="#263238" stroke-width="0.5" stroke-linecap="round" stroke-linejoin="round"/>
<path d="M66.0081 59.2844C66.0081 59.2844 63.135 65.418 62.8057 67.0612C62.4764 68.7044 61.8372 80.6585 61.6952 82.9473C61.5531 85.2361 63.0478 106.684 63.0478 106.684C64.3326 107.009 65.6465 107.206 66.9701 107.272C68.181 107.306 69.3909 107.174 70.5663 106.881C70.5663 106.881 72.1546 80.9845 72.2837 80.1355C72.4129 79.2865 72.2192 78.5666 72.2192 77.1946C72.2192 75.8226 73.3975 66.6706 73.3975 66.6706C73.3975 66.6706 72.7518 61.57 71.3702 59.6105" fill="#F39712"/>
<path d="M66.0081 59.2844C66.0081 59.2844 63.135 65.418 62.8057 67.0612C62.4764 68.7044 61.8372 80.6585 61.6952 82.9473C61.5531 85.2361 63.0478 106.684 63.0478 106.684C64.3326 107.009 65.6465 107.206 66.9701 107.272C68.181 107.306 69.3909 107.174 70.5663 106.881C70.5663 106.881 72.1546 80.9845 72.2837 80.1355C72.4129 79.2865 72.2192 78.5666 72.2192 77.1946C72.2192 75.8226 73.3975 66.6706 73.3975 66.6706C73.3975 66.6706 72.7518 61.57 71.3702 59.6105" stroke="#263238" stroke-width="0.5" stroke-linecap="round" stroke-linejoin="round"/>
<path d="M64.507 64.7079C64.507 64.7079 66.0081 70.1959 69.8012 73.7275" stroke="#263238" stroke-width="0.5" stroke-linecap="round" stroke-linejoin="round"/>
<path d="M69.2588 77.3206C69.6589 77.6702 70.1095 77.9575 70.5953 78.1728" stroke="#263238" stroke-width="0.5" stroke-linecap="round" stroke-linejoin="round"/>
<path d="M64.2454 69.6115C64.2454 69.6115 65.8885 73.5918 68.1354 76.2035" stroke="#263238" stroke-width="0.5" stroke-linecap="round" stroke-linejoin="round"/>
<path d="M95.233 79.8708C95.233 79.8708 94.4324 78.728 94.087 78.9927C93.7416 79.2574 94.3162 80.7101 94.6616 81.0168C95.007 81.3235 95.5397 80.9781 95.5397 80.9781L95.233 79.8708Z" fill="white" stroke="#263238" stroke-width="0.5" stroke-linecap="round" stroke-linejoin="round"/>
<path d="M96.1887 78.6892C96.1887 78.6892 95.5753 77.8499 95.0039 78.2695C94.4325 78.6892 95.2719 80.7101 95.5398 80.978C95.8101 81.2607 96.1789 81.4283 96.5696 81.4461C96.8797 81.4628 97.1903 81.4234 97.4864 81.3299L96.1887 78.6892Z" fill="white" stroke="#263238" stroke-width="0.5" stroke-linecap="round" stroke-linejoin="round"/>
<path d="M97.2185 78.4213C97.2185 78.4213 96.66 77.3141 96.137 77.5433C95.6141 77.7725 96.0337 78.8023 96.2629 79.2994C96.6112 80.0073 97.0206 80.6835 97.4864 81.3203C97.6381 81.4365 98.555 81.4752 98.668 81.0943C98.7378 80.8072 98.7639 80.5111 98.7454 80.2162L97.2185 78.4213Z" fill="white" stroke="#263238" stroke-width="0.5" stroke-linecap="round" stroke-linejoin="round"/>
<path d="M99.6235 79.8321C99.6235 79.8321 98.2482 77.85 97.8673 77.7725C97.4864 77.695 97.141 78.2309 97.2217 78.4181C97.3024 78.6054 98.5129 80.6327 98.7841 80.7069C99.0553 80.7812 99.3103 80.9071 99.6396 80.6166" fill="white"/>
<path d="M99.6235 79.8321C99.6235 79.8321 98.2482 77.85 97.8673 77.7725C97.4864 77.695 97.141 78.2309 97.2217 78.4181C97.3024 78.6054 98.5129 80.6327 98.7841 80.7069C99.0553 80.7812 99.3103 80.9071 99.6396 80.6166" stroke="#263238" stroke-width="0.5" stroke-linecap="round" stroke-linejoin="round"/>
<path d="M95.9563 75.7936C95.9563 75.7936 95.8949 77.1818 96.137 77.5433C96.3791 77.9049 97.0442 78.8701 97.0442 78.8701C97.0442 78.8701 94.8716 79.6546 95.1718 80.1388C95.472 80.6231 97.5252 80.0162 98.0772 79.8354C98.6292 79.6546 98.9843 79.7159 99.1038 78.8669C99.2232 78.0179 98.8003 76.2843 98.8003 76.2843" fill="white"/>
<path d="M95.9563 75.7936C95.9563 75.7936 95.8949 77.1818 96.137 77.5433C96.3791 77.9049 97.0442 78.8701 97.0442 78.8701C97.0442 78.8701 94.8716 79.6546 95.1718 80.1388C95.472 80.6231 97.5252 80.0162 98.0772 79.8354C98.6292 79.6546 98.9843 79.7159 99.1038 78.8669C99.2232 78.0179 98.8003 76.2843 98.8003 76.2843" stroke="#263238" stroke-width="0.5" stroke-linecap="round" stroke-linejoin="round"/>
<path d="M96.449 49.4284L94.0015 49.3117C93.567 49.291 93.1979 49.6264 93.1772 50.061L93.1206 51.2476C93.0999 51.6821 93.4354 52.0512 93.8699 52.0719L96.3173 52.1886C96.7519 52.2093 97.1209 51.8739 97.1416 51.4393L97.1982 50.2527C97.2189 49.8182 96.8835 49.4491 96.449 49.4284Z" stroke="#263238" stroke-width="0.5" stroke-linecap="round" stroke-linejoin="round"/>
<path d="M95.6204 44.2797C95.6204 44.2797 96.0174 44.0021 95.9787 43.634C95.94 43.266 95.6978 41.8392 94.1031 40.4801C92.5084 39.121 89.4351 37.8491 86.7621 38.2881C84.0892 38.7271 82.0941 41.3194 81.6164 42.6753C81.1386 44.0311 81.4582 48.1019 81.4582 48.5797C81.4582 49.0575 82.0554 50.5327 82.6526 50.6942C83.2498 50.8556 82.9335 48.6604 83.492 49.0575C84.0504 49.4545 85.5677 51.0525 86.1262 50.4133C86.6847 49.7741 86.8428 48.2213 87.3206 48.1535C87.7984 48.0858 89.6353 47.2755 89.5158 46.4781C89.3964 45.6807 88.4796 43.7244 89.3964 43.4081C90.3132 43.0917 91.6561 44.1635 93.5059 44.3249C95.3557 44.4863 95.6204 44.2797 95.6204 44.2797Z" fill="#263238" stroke="#263238" stroke-width="0.5" stroke-linecap="round" stroke-linejoin="round"/>
<path d="M85.9262 49.5868C85.9262 49.5868 85.3677 49.5481 85.2806 49.4254C85.1934 49.3027 84.4444 47.5918 83.6051 47.4723C82.7658 47.3529 82.3687 49.8644 82.8077 51.2235C82.9003 51.5908 83.1103 51.9179 83.4057 52.155C83.7011 52.3922 84.0658 52.5264 84.4445 52.5374C84.4445 52.5374 84.4832 56.0884 85.5614 56.8083C86.6396 57.5282 91.4239 60.3174 92.3407 60.2367C93.2575 60.156 93.6578 59.3199 93.7772 58.642C93.8967 57.964 93.8579 57.7639 93.8967 57.525C93.9354 57.2861 94.694 54.4937 94.694 54.4937C94.694 54.4937 96.25 54.1709 96.292 53.974C96.334 53.777 95.4527 50.3454 95.4527 50.3454C95.4527 50.3454 96.1306 49.5061 96.1726 49.1478C96.2145 48.7894 96.2113 46.0745 96.0499 45.4386C95.8885 44.8026 95.0556 43.1627 94.736 43.2821C94.5449 43.3423 94.3435 43.3627 94.1442 43.3422C93.9449 43.3217 93.7519 43.2606 93.5771 43.1627C93.2543 42.9657 90.1487 41.8068 89.4288 41.8488C88.7089 41.8907 87.3563 42.7656 87.2369 43.5242C87.1174 44.2828 88.3538 45.4773 88.4313 46.0358C88.5088 46.5943 86.517 47.0042 86.4782 47.2722C86.4395 47.5401 86.2845 49.3479 85.9262 49.5868Z" fill="white" stroke="#263238" stroke-width="0.5" stroke-linecap="round" stroke-linejoin="round"/>
<path d="M93.4834 56.1338L92.5343 55.8626" stroke="#263238" stroke-width="0.5" stroke-linecap="round" stroke-linejoin="round"/>
<path d="M93.3796 49.2178L90.9322 49.1011C90.4976 49.0804 90.1286 49.4159 90.1079 49.8504L90.0513 51.037C90.0306 51.4716 90.366 51.8406 90.8006 51.8613L93.248 51.978C93.6825 51.9988 94.0516 51.6633 94.0723 51.2288L94.1289 50.0421C94.1496 49.6076 93.8141 49.2385 93.3796 49.2178Z" stroke="#263238" stroke-width="0.5" stroke-linecap="round" stroke-linejoin="round"/>
<path d="M92.502 50.6296C92.4601 50.9524 92.3148 51.1752 92.1792 51.1558C92.0436 51.1364 91.9661 50.8717 92.0113 50.5618C92.0565 50.2519 92.1986 50.0162 92.3342 50.0356C92.4697 50.055 92.5278 50.3197 92.502 50.6296Z" fill="#263238"/>
<path d="M90.8621 48.5829C90.8621 48.5829 92.6311 48.3827 93.3833 49.2092" stroke="#263238" stroke-width="0.5" stroke-linecap="round" stroke-linejoin="round"/>
<path d="M90.113 49.8451L85.0737 48.7636" stroke="#263238" stroke-width="0.5" stroke-linecap="round" stroke-linejoin="round"/>
<path d="M94.1322 50.0357C94.1322 50.0357 94.9005 49.4998 95.5462 50.0712" stroke="#263238" stroke-width="0.5" stroke-linecap="round" stroke-linejoin="round"/>
<path d="M93.7643 49.306L96.0079 49.4578" stroke="#263238" stroke-width="0.5" stroke-linecap="round" stroke-linejoin="round"/>
<path d="M134.843 100.357L23.8766 143.941" stroke="#263238" stroke-width="0.5" stroke-linecap="round" stroke-linejoin="round"/>
<path d="M138.007 103.462L29.3873 146.446" stroke="#263238" stroke-width="0.5" stroke-linecap="round" stroke-linejoin="round"/>
</svg>
