<svg width="150" height="112" viewBox="0 0 150 112" fill="none" xmlns="http://www.w3.org/2000/svg">
<path d="M75.0001 111.768C107.125 111.768 133.167 110.248 133.167 108.372C133.167 106.496 107.125 104.976 75.0001 104.976C42.8754 104.976 16.8331 106.496 16.8331 108.372C16.8331 110.248 42.8754 111.768 75.0001 111.768Z" fill="#F5F5F5"/>
<path d="M96.33 104.307L94.056 103.683L94.902 98.2471L97.176 98.8741L96.33 104.307Z" fill="#FFC3BD"/>
<path d="M113.115 105.819H110.754L110.166 100.356H112.527L113.115 105.819Z" fill="#FFC3BD"/>
<path d="M110.562 105.546H113.436C113.483 105.546 113.528 105.562 113.565 105.592C113.601 105.621 113.627 105.662 113.637 105.708L114.105 107.808C114.116 107.859 114.115 107.912 114.102 107.963C114.09 108.014 114.066 108.062 114.033 108.102C113.999 108.143 113.957 108.175 113.909 108.197C113.861 108.218 113.809 108.229 113.757 108.228C112.833 108.213 112.158 108.156 110.991 108.156C110.274 108.156 108.114 108.231 107.124 108.231C106.134 108.231 106.002 107.253 106.407 107.163C108.225 106.767 109.596 106.218 110.178 105.696C110.283 105.6 110.42 105.546 110.562 105.546Z" fill="#263238"/>
<path d="M94.1431 103.422L96.6271 104.106C96.6722 104.119 96.7116 104.147 96.7388 104.185C96.7661 104.223 96.7796 104.269 96.7771 104.316L96.6691 106.461C96.6671 106.513 96.6533 106.564 96.6287 106.61C96.604 106.656 96.5693 106.695 96.527 106.726C96.4848 106.756 96.4362 106.776 96.3849 106.785C96.3336 106.794 96.281 106.791 96.2311 106.776C95.3311 106.512 94.0591 106.104 92.9311 105.795C91.6141 105.432 90.4561 105.195 88.9141 104.763C87.9811 104.505 87.9811 103.491 88.3951 103.512C90.2821 103.614 91.7461 103.974 93.5431 103.449C93.7367 103.384 93.9445 103.375 94.1431 103.422Z" fill="#263238"/>
<path opacity="0.2" d="M94.9021 98.25L94.4641 101.049L96.7411 101.676L97.1761 98.877L94.9021 98.25Z" fill="#130C01"/>
<path opacity="0.2" d="M112.527 100.359H110.166L110.472 103.176H112.83L112.527 100.359Z" fill="#130C01"/>
<path d="M84.9181 31.068L84.7141 28.806L82.5001 29.883C82.5001 29.883 83.0821 31.89 84.1801 31.683L84.9181 31.068Z" fill="#FFC3BD"/>
<path d="M84.216 27.7411L81.72 28.2571L82.506 29.8831L84.714 28.8061L84.216 27.7411Z" fill="#FFC3BD"/>
<path d="M99.4471 31.41C98.2683 31.8771 97.132 32.4452 96.0511 33.108C95.8201 33.222 95.5891 33.336 95.3551 33.444C94.7851 33.702 94.2061 33.939 93.6241 34.143C92.536 34.5563 91.3881 34.7904 90.2251 34.836C90.0991 34.836 89.9701 34.836 89.8501 34.821H89.7631H89.7241C89.6927 34.8171 89.6617 34.811 89.6311 34.803C89.4324 34.7648 89.2397 34.7002 89.0581 34.611C88.5523 34.3485 88.0833 34.0207 87.6631 33.636C86.7113 32.7748 85.8453 31.8233 85.0771 30.795L83.5381 31.674C84.1395 32.9903 84.8787 34.2393 85.7431 35.4C86.2187 36.04 86.7731 36.6175 87.3931 37.119C87.7665 37.4214 88.1845 37.6643 88.6321 37.839C88.7618 37.8861 88.894 37.9262 89.0281 37.959L89.2411 38.007L89.4061 38.034C89.6191 38.073 89.8321 38.097 90.0421 38.118C91.5995 38.2102 93.1612 38.0399 94.6621 37.614C95.2861 37.452 95.8921 37.263 96.4891 37.056C97.1311 36.921 102.411 35.751 103.314 33.858C104.481 31.407 102.255 30.408 99.4471 31.41Z" fill="#263238"/>
<path opacity="0.2" d="M98.4481 36.549C99.19 36.3368 99.9192 36.0823 100.632 35.787L100.812 33.855C100.812 33.855 99.4021 34.431 98.4481 36.549Z" fill="#130C01"/>
<path d="M113.4 31.7522C113.469 31.77 113.534 31.8012 113.59 31.844C113.647 31.8869 113.695 31.9405 113.731 32.0018C113.767 32.0631 113.79 32.1309 113.8 32.2014C113.81 32.2718 113.805 32.3434 113.787 32.4122C113.17 34.7915 112.716 37.2101 112.428 39.6512C112.206 41.4782 112.071 43.2212 111.99 44.8052C111.792 48.5132 111.873 51.3392 111.765 52.3052C109.92 52.1792 102.969 51.7052 99.1652 51.4292C97.4522 38.0102 100.725 31.0982 100.725 31.0982C101.717 30.9118 102.718 30.7866 103.725 30.7232C103.938 30.7232 104.154 30.7022 104.376 30.6992C106.166 30.7201 107.953 30.8443 109.728 31.0712C110.064 31.1102 110.403 31.1612 110.736 31.2152C111.822 31.3802 112.8 31.6082 113.4 31.7522Z" fill="#263238"/>
<path opacity="0.2" d="M111.699 34.2C111.45 35.7883 111.742 37.4141 112.527 38.817C112.677 37.704 112.863 36.567 113.091 35.418L111.699 34.2Z" fill="#130C01"/>
<path d="M109.632 24.999C109.173 26.7 108.732 29.733 109.608 31.092C108.663 31.938 107.538 31.725 106.575 31.575C105.402 31.392 105.246 31.125 105.618 30.576C105.849 30.324 105.891 30.066 106.11 29.478C106.287 28.8581 106.301 28.2031 106.152 27.576L109.632 24.999Z" fill="#FFC3BD"/>
<path d="M105.54 29.8501C105.693 30.6211 104.739 31.0321 105.018 31.3681C105.297 31.7041 107.784 32.5501 108.879 32.1511C109.974 31.7521 109.857 31.6531 109.779 30.6871C109.701 29.7211 110.319 29.0911 109.521 29.3491C109.113 29.4811 106.995 29.1331 106.386 29.1331C105.777 29.1331 105.417 29.2321 105.54 29.8501Z" fill="#263238"/>
<path opacity="0.2" d="M108.213 26.052L106.152 27.573C106.214 27.8903 106.248 28.2127 106.251 28.536C106.992 28.482 108.051 27.747 108.189 26.985C108.253 26.6779 108.261 26.3619 108.213 26.052Z" fill="#130C01"/>
<path d="M105.075 19.3321C104.55 19.5751 103.701 20.7091 104.4 21.4591C105.099 22.2091 105.816 18.9931 105.075 19.3321Z" fill="#263238"/>
<path d="M110.322 22.524C109.935 24.834 109.824 26.205 108.522 27.276C106.569 28.884 103.812 27.516 103.5 25.137C103.221 22.998 103.902 19.581 106.275 18.897C106.797 18.7425 107.351 18.7242 107.882 18.8439C108.413 18.9636 108.905 19.2173 109.311 19.5808C109.717 19.9444 110.023 20.4057 110.199 20.9209C110.376 21.436 110.419 21.9879 110.322 22.524Z" fill="#FFC3BD"/>
<path d="M109.632 24.18C108.768 23.631 108.732 22.995 108.993 22.425C109.824 20.499 109.593 19.524 108.117 19.701C106.641 19.878 104.538 20.049 104.799 19.374C105.06 18.699 106.914 18.414 108.489 18.6C110.064 18.786 111.753 20.01 111.417 21.936C111.093 23.778 110.7 24.3 109.632 24.18Z" fill="#263238"/>
<path d="M111.15 24.7051C110.855 25.2151 110.371 25.5881 109.803 25.7431C109.047 25.9411 108.684 25.2631 108.903 24.5431C109.101 23.9101 109.734 23.0431 110.487 23.1541C111.24 23.2651 111.504 24.0751 111.15 24.7051Z" fill="#FFC3BD"/>
<path d="M93.759 100.29L97.608 101.349C97.608 101.349 100.641 86.148 100.83 78.801C100.887 76.566 101.853 73.923 102.591 70.605C103.527 66.426 104.691 61.905 105.657 58.365C106.671 54.636 107.442 51.999 107.442 51.999L99.168 51.42C99.168 51.42 94.896 71.043 94.383 78.225C93.846 85.692 93.759 100.29 93.759 100.29Z" fill="#F39712"/>
<path opacity="0.4" d="M93.759 100.29L97.608 101.349C97.608 101.349 100.641 86.148 100.83 78.801C100.887 76.566 101.853 73.923 102.591 70.605C103.527 66.426 104.691 61.905 105.657 58.365C106.671 54.636 107.442 51.999 107.442 51.999L99.168 51.42C99.168 51.42 94.896 71.043 94.383 78.225C93.846 85.692 93.759 100.29 93.759 100.29Z" fill="#130C01"/>
<path opacity="0.2" d="M102.6 70.6049C103.536 66.4259 104.7 61.9049 105.666 58.3649L104.808 56.5139C102.747 58.9529 102.195 66.5039 102.6 70.6049Z" fill="#130C01"/>
<path d="M103.632 51.7321C103.632 51.7321 104.232 70.5001 105.216 77.3401C106.308 84.8401 109.38 102.63 109.38 102.63H113.7C113.7 102.63 113.469 85.6801 112.116 78.4231C110.574 70.1611 111.753 52.2991 111.753 52.2991L103.632 51.7321Z" fill="#F39712"/>
<path opacity="0.4" d="M103.632 51.7321C103.632 51.7321 104.232 70.5001 105.216 77.3401C106.308 84.8401 109.38 102.63 109.38 102.63H113.7C113.7 102.63 113.469 85.6801 112.116 78.4231C110.574 70.1611 111.753 52.2991 111.753 52.2991L103.632 51.7321Z" fill="#130C01"/>
<path d="M108.864 102.723H113.952V101.202L108.264 101.103L108.864 102.723Z" fill="#263238"/>
<path d="M93.2491 100.245L97.8391 101.511L98.2471 100.029L93.1381 98.5381L93.2491 100.245Z" fill="#263238"/>
<path d="M107.031 22.653C107.013 22.842 106.896 22.986 106.773 22.974C106.65 22.962 106.563 22.797 106.584 22.608C106.605 22.419 106.719 22.275 106.845 22.287C106.971 22.299 107.052 22.464 107.031 22.653Z" fill="#263238"/>
<path d="M104.658 22.578C104.64 22.767 104.523 22.911 104.397 22.896C104.271 22.881 104.19 22.719 104.211 22.53C104.232 22.341 104.346 22.2 104.472 22.212C104.598 22.224 104.679 22.389 104.658 22.578Z" fill="#263238"/>
<path d="M106.863 23.9999C106.563 24.0222 106.263 23.9535 106.002 23.8028C105.741 23.6521 105.531 23.4264 105.401 23.155C105.27 22.8837 105.224 22.5792 105.269 22.2813C105.313 21.9834 105.447 21.7059 105.651 21.4849C105.856 21.2639 106.123 21.1096 106.416 21.0421C106.71 20.9747 107.017 20.9972 107.297 21.1067C107.578 21.2162 107.819 21.4077 107.989 21.6562C108.16 21.9047 108.251 22.1987 108.252 22.4999C108.265 22.8826 108.126 23.2549 107.866 23.5358C107.606 23.8167 107.246 23.9835 106.863 23.9999ZM106.863 21.1349C106.589 21.1095 106.315 21.1674 106.075 21.3011C105.834 21.4347 105.64 21.6379 105.518 21.8838C105.395 22.1297 105.35 22.407 105.388 22.6791C105.426 22.9512 105.545 23.2055 105.73 23.4086C105.916 23.6116 106.158 23.754 106.425 23.8169C106.693 23.8798 106.973 23.8604 107.229 23.7611C107.485 23.6618 107.706 23.4874 107.861 23.2607C108.016 23.034 108.099 22.7657 108.099 22.4909C108.112 22.1488 107.99 21.8154 107.758 21.5632C107.527 21.3109 107.205 21.1603 106.863 21.1439V21.1349Z" fill="white"/>
<path d="M103.8 23.9999C103.5 24.0222 103.199 23.9535 102.939 23.8028C102.678 23.6521 102.468 23.4264 102.338 23.155C102.207 22.8837 102.161 22.5792 102.206 22.2813C102.25 21.9834 102.384 21.7059 102.588 21.4849C102.793 21.2639 103.059 21.1096 103.353 21.0421C103.647 20.9747 103.954 20.9972 104.234 21.1067C104.515 21.2162 104.756 21.4077 104.926 21.6562C105.097 21.9047 105.188 22.1987 105.189 22.4999C105.202 22.8826 105.063 23.2549 104.803 23.5358C104.543 23.8167 104.182 23.9835 103.8 23.9999ZM103.8 21.1349C103.527 21.1083 103.252 21.1649 103.011 21.2974C102.771 21.4298 102.576 21.6319 102.452 21.8771C102.328 22.1222 102.282 22.3991 102.318 22.6713C102.354 22.9434 102.472 23.1982 102.656 23.4023C102.84 23.6063 103.081 23.7499 103.348 23.8144C103.615 23.8789 103.895 23.8612 104.152 23.7636C104.409 23.6661 104.63 23.4932 104.787 23.2677C104.943 23.0421 105.028 22.7745 105.03 22.4999C105.045 22.1573 104.925 21.8224 104.694 21.5684C104.464 21.3144 104.142 21.1618 103.8 21.1439V21.1349Z" fill="white"/>
<path d="M105.216 22.701C104.98 23.278 104.666 23.82 104.283 24.312C104.411 24.4065 104.557 24.4722 104.713 24.5043C104.868 24.5364 105.029 24.5343 105.183 24.498L105.216 22.701Z" fill="#ED847E"/>
<path d="M107.595 22.0741C107.575 22.0784 107.554 22.077 107.535 22.0701C107.516 22.0632 107.5 22.0511 107.487 22.0351C107.403 21.9225 107.293 21.8313 107.167 21.7688C107.041 21.7062 106.902 21.6742 106.761 21.6751C106.746 21.6763 106.732 21.6746 106.718 21.6701C106.704 21.6656 106.691 21.6584 106.68 21.6489C106.669 21.6395 106.66 21.6279 106.653 21.6149C106.646 21.6019 106.642 21.5877 106.641 21.5731C106.64 21.5585 106.642 21.5439 106.646 21.5299C106.65 21.516 106.658 21.5031 106.667 21.492C106.677 21.4808 106.688 21.4717 106.701 21.465C106.714 21.4583 106.728 21.4543 106.743 21.4531C106.92 21.448 107.096 21.4854 107.256 21.5621C107.415 21.6388 107.554 21.7527 107.661 21.8941C107.679 21.9177 107.688 21.9475 107.685 21.9773C107.681 22.007 107.666 22.0343 107.643 22.0531C107.628 22.0631 107.612 22.0702 107.595 22.0741Z" fill="#263238"/>
<path d="M105.87 25.5001C106.145 25.504 106.417 25.4421 106.664 25.3195C106.91 25.1968 107.123 25.017 107.286 24.7951C107.295 24.7816 107.298 24.7651 107.295 24.7494C107.291 24.7336 107.282 24.7199 107.268 24.7111C107.261 24.7068 107.254 24.7038 107.246 24.7024C107.238 24.7009 107.23 24.701 107.222 24.7027C107.207 24.7061 107.193 24.7156 107.184 24.7291C107.031 24.9328 106.833 25.0978 106.605 25.2108C106.376 25.3239 106.125 25.3819 105.87 25.3801C105.862 25.3801 105.854 25.3816 105.847 25.3847C105.84 25.3877 105.833 25.3921 105.828 25.3977C105.822 25.4032 105.818 25.4099 105.815 25.4171C105.812 25.4244 105.81 25.4322 105.81 25.4401C105.81 25.448 105.812 25.4558 105.815 25.4631C105.818 25.4703 105.822 25.477 105.828 25.4825C105.833 25.4881 105.84 25.4925 105.847 25.4955C105.854 25.4985 105.862 25.5001 105.87 25.5001Z" fill="#263238"/>
<path d="M103.35 22.083C103.326 22.0832 103.302 22.077 103.281 22.065C103.257 22.049 103.239 22.0242 103.233 21.9957C103.226 21.9672 103.23 21.9373 103.245 21.912C103.335 21.7586 103.461 21.6292 103.612 21.5347C103.763 21.4402 103.935 21.3834 104.112 21.369C104.142 21.369 104.17 21.3806 104.192 21.4013C104.213 21.4221 104.225 21.4503 104.226 21.48C104.225 21.5095 104.214 21.5377 104.193 21.5588C104.172 21.5799 104.145 21.5925 104.115 21.594C103.975 21.6067 103.841 21.6529 103.723 21.7286C103.605 21.8044 103.507 21.9074 103.437 22.029C103.428 22.044 103.415 22.0567 103.4 22.066C103.385 22.0754 103.368 22.0812 103.35 22.083Z" fill="#263238"/>
<path d="M109.782 105.96C109.621 105.972 109.46 105.93 109.326 105.84C109.284 105.803 109.251 105.757 109.231 105.704C109.211 105.652 109.205 105.596 109.212 105.54C109.211 105.508 109.22 105.476 109.236 105.449C109.253 105.421 109.277 105.399 109.305 105.384C109.569 105.249 110.328 105.717 110.415 105.771C110.424 105.777 110.431 105.785 110.435 105.794C110.439 105.804 110.441 105.815 110.439 105.825C110.438 105.836 110.434 105.847 110.426 105.856C110.418 105.864 110.408 105.87 110.397 105.873C110.196 105.925 109.99 105.954 109.782 105.96ZM109.431 105.471C109.406 105.469 109.381 105.474 109.359 105.486C109.341 105.486 109.326 105.507 109.323 105.552C109.318 105.589 109.322 105.627 109.335 105.662C109.348 105.697 109.37 105.728 109.398 105.753C109.662 105.873 109.961 105.888 110.235 105.795C109.99 105.636 109.717 105.526 109.431 105.471Z" fill="#F39712"/>
<path d="M110.4 105.876H110.373C110.13 105.744 109.656 105.225 109.707 104.976C109.715 104.935 109.737 104.898 109.77 104.871C109.802 104.845 109.842 104.83 109.884 104.829C109.927 104.823 109.971 104.826 110.012 104.839C110.053 104.851 110.092 104.872 110.124 104.901C110.397 105.123 110.454 105.801 110.454 105.834C110.456 105.844 110.454 105.854 110.45 105.863C110.446 105.872 110.439 105.88 110.43 105.885C110.42 105.885 110.409 105.882 110.4 105.876ZM109.923 104.919H109.899C109.827 104.919 109.818 104.961 109.818 104.976C109.788 105.129 110.088 105.522 110.331 105.705C110.315 105.436 110.218 105.179 110.052 104.967C110.012 104.933 109.961 104.916 109.908 104.919H109.923Z" fill="#F39712"/>
<path d="M93.837 103.674C93.45 103.647 92.775 103.557 92.586 103.266C92.5554 103.223 92.5368 103.172 92.5321 103.12C92.5273 103.067 92.5366 103.014 92.559 102.966C92.5676 102.937 92.5838 102.91 92.6059 102.889C92.628 102.868 92.6553 102.853 92.685 102.846C93.003 102.774 93.792 103.485 93.885 103.566C93.8935 103.573 93.8997 103.582 93.9028 103.592C93.906 103.603 93.906 103.614 93.9027 103.624C93.8995 103.635 93.8932 103.644 93.8847 103.651C93.8762 103.657 93.8658 103.661 93.855 103.662L93.837 103.674ZM92.715 102.966H92.7C92.688 102.969 92.6771 102.976 92.6687 102.985C92.6602 102.994 92.6544 103.005 92.652 103.017C92.6387 103.047 92.6332 103.08 92.6358 103.113C92.6384 103.146 92.6491 103.178 92.667 103.206C92.775 103.368 93.141 103.506 93.666 103.548C93.351 103.275 92.901 102.945 92.715 102.966Z" fill="#F39712"/>
<path d="M93.837 103.674C93.8303 103.677 93.8232 103.678 93.816 103.678C93.8088 103.678 93.8016 103.677 93.795 103.674C93.555 103.476 93.144 102.834 93.258 102.588C93.285 102.531 93.348 102.468 93.501 102.492C93.556 102.502 93.6086 102.523 93.6554 102.553C93.7023 102.583 93.7427 102.623 93.774 102.669C93.996 102.984 93.888 103.614 93.885 103.641C93.8837 103.651 93.8796 103.66 93.8732 103.667C93.8668 103.675 93.8584 103.68 93.849 103.683L93.837 103.674ZM93.417 102.588C93.372 102.588 93.363 102.615 93.36 102.624C93.291 102.771 93.555 103.257 93.789 103.503C93.835 103.237 93.7972 102.964 93.681 102.72C93.6581 102.686 93.6284 102.657 93.5939 102.635C93.5593 102.613 93.5205 102.598 93.48 102.591C93.4587 102.591 93.4375 102.594 93.417 102.6V102.588Z" fill="#F39712"/>
<path d="M112.737 50.4361L110.337 50.6761L111.768 52.9471C111.768 52.9471 113.712 52.1821 113.421 51.1081L112.737 50.4361Z" fill="#FFC3BD"/>
<path d="M108.759 51.8701L110.235 53.8801L111.78 52.9471L110.349 50.6761L108.759 51.8701Z" fill="#FFC3BD"/>
<path d="M118.35 40.128C118.134 39.528 117.888 38.928 117.627 38.361C117.432 37.734 115.782 32.586 113.811 31.86C111.27 30.924 110.481 33.234 111.738 35.937C112.311 37.0681 112.982 38.1472 113.742 39.162C113.877 39.381 114.012 39.6 114.138 39.822C114.438 40.368 114.738 40.923 114.996 41.484C115.508 42.5283 115.848 43.6489 116.001 44.802C116.001 44.931 116.019 45.057 116.019 45.18V45.267C116.018 45.2799 116.018 45.293 116.019 45.306C116.022 45.3369 116.022 45.368 116.019 45.399C116.001 45.6044 115.954 45.8063 115.881 45.999C115.666 46.5263 115.384 47.0234 115.041 47.478C114.271 48.5063 113.401 49.4568 112.446 50.316L113.466 51.768C114.722 51.0474 115.897 50.1956 116.973 49.227C117.567 48.6942 118.092 48.0896 118.536 47.427C118.802 47.0265 119.004 46.5873 119.136 46.125C119.172 45.9918 119.2 45.8566 119.22 45.72L119.247 45.504V45.336C119.265 45.12 119.268 44.907 119.271 44.697C119.223 43.1331 118.911 41.5884 118.35 40.128Z" fill="#263238"/>
<path d="M25.8211 58.9709H75.6481C76.2909 58.9647 76.9069 58.7124 77.3694 58.2661C77.832 57.8197 78.106 57.2131 78.1351 56.5709L79.2511 24.7949C79.2633 24.4836 79.2123 24.173 79.1013 23.8818C78.9903 23.5907 78.8215 23.325 78.6051 23.1008C78.3888 22.8766 78.1293 22.6985 77.8423 22.5772C77.5553 22.4559 77.2467 22.3939 76.9351 22.3949H27.1051C26.4621 22.4004 25.8457 22.6524 25.383 23.099C24.9203 23.5455 24.6465 24.1525 24.6181 24.7949L23.5021 56.5679C23.49 56.8797 23.541 57.1906 23.6522 57.4821C23.7634 57.7736 23.9324 58.0396 24.149 58.2641C24.3656 58.4886 24.6255 58.6669 24.9128 58.7884C25.2002 58.9099 25.5091 58.972 25.8211 58.9709Z" fill="#F39712"/>
<path opacity="0.4" d="M25.8211 58.9709H75.6481C76.2909 58.9647 76.9069 58.7124 77.3694 58.2661C77.832 57.8197 78.106 57.2131 78.1351 56.5709L79.2511 24.7949C79.2633 24.4836 79.2123 24.173 79.1013 23.8818C78.9903 23.5907 78.8215 23.325 78.6051 23.1008C78.3888 22.8766 78.1293 22.6985 77.8423 22.5772C77.5553 22.4559 77.2467 22.3939 76.9351 22.3949H27.1051C26.4621 22.4004 25.8457 22.6524 25.383 23.099C24.9203 23.5455 24.6465 24.1525 24.6181 24.7949L23.5021 56.5679C23.49 56.8797 23.541 57.1906 23.6522 57.4821C23.7634 57.7736 23.9324 58.0396 24.149 58.2641C24.3656 58.4886 24.6255 58.6669 24.9128 58.7884C25.2002 58.9099 25.5091 58.972 25.8211 58.9709Z" fill="#130C01"/>
<path d="M26.2952 58.971H76.1252C76.7677 58.9641 77.3833 58.7116 77.8457 58.2654C78.3081 57.8191 78.5823 57.213 78.6122 56.571L79.7282 24.795C79.7403 24.4834 79.6893 24.1726 79.5781 23.8813C79.4669 23.5899 79.2978 23.3241 79.0811 23.0999C78.8644 22.8756 78.6046 22.6976 78.3173 22.5764C78.0299 22.4553 77.721 22.3936 77.4092 22.395H27.5792C26.9367 22.4013 26.321 22.6537 25.859 23.1001C25.3969 23.5466 25.1235 24.1532 25.0952 24.795L23.9792 56.568C23.9666 56.8796 24.0173 57.1906 24.1281 57.482C24.2389 57.7735 24.4076 58.0396 24.624 58.2641C24.8405 58.4886 25.1001 58.667 25.3873 58.7885C25.6745 58.91 25.9833 58.9721 26.2952 58.971Z" fill="#F39712"/>
<path opacity="0.9" d="M75.6481 56.9701C75.9018 56.9673 76.1447 56.8675 76.3272 56.6913C76.5096 56.515 76.6176 56.2756 76.6291 56.0221L77.7001 25.3381C77.7066 25.216 77.6882 25.0938 77.6459 24.979C77.6036 24.8642 77.5383 24.7592 77.4541 24.6705C77.3699 24.5818 77.2684 24.5111 77.156 24.4629C77.0435 24.4147 76.9224 24.39 76.8001 24.3901H28.0561C27.8027 24.3937 27.5601 24.4937 27.3778 24.6698C27.1956 24.846 27.0873 25.085 27.0751 25.3381L25.9981 56.0221C25.9916 56.1443 26.01 56.2665 26.0523 56.3813C26.0946 56.4961 26.1599 56.6011 26.2441 56.6898C26.3284 56.7785 26.4298 56.8491 26.5422 56.8973C26.6547 56.9455 26.7758 56.9703 26.8981 56.9701H75.6481Z" fill="white"/>
<path opacity="0.3" d="M60.9422 48.6661C62.5179 46.6812 63.4364 44.2549 63.5702 41.7241C63.7001 39.2653 63.017 36.832 61.6262 34.8001V34.7641C61.6026 34.7293 61.5765 34.6962 61.5482 34.6651C60.5162 33.2112 59.1485 32.0278 57.5612 31.2156C55.974 30.4035 54.2141 29.9865 52.4312 30.0001C50.588 30.0142 48.7713 30.4401 47.1139 31.2467C45.4565 32.0534 44.0005 33.2203 42.8522 34.6621C42.8282 34.6891 42.8042 34.7131 42.7832 34.7401C42.7788 34.7504 42.7738 34.7604 42.7682 34.7701C41.1906 36.7554 40.271 39.1829 40.1372 41.7151C40.0019 44.1825 40.6864 46.6254 42.0842 48.6631C42.083 48.6721 42.083 48.6812 42.0842 48.6901L42.1112 48.7231C43.1417 50.1904 44.513 51.3856 46.1073 52.2061C47.7016 53.0265 49.4712 53.4475 51.2642 53.4331C53.1044 53.4188 54.9181 52.9938 56.5732 52.1894C58.2283 51.3849 59.683 50.2212 60.8312 48.7831C60.8588 48.7535 60.8848 48.7225 60.9092 48.6901C60.9207 48.6829 60.9317 48.6748 60.9422 48.6661ZM51.3422 52.0471C49.6652 52.0471 48.2522 50.0881 47.5352 47.1991C48.8735 46.9309 50.2353 46.7972 51.6002 46.8001C52.9523 46.7971 54.3013 46.9318 55.6262 47.2021C54.6242 50.1001 53.0192 52.0471 51.3452 52.0471H51.3422ZM51.6692 45.4021C50.1882 45.3991 48.7106 45.5458 47.2592 45.8401C47.0811 44.7102 47.0028 43.5668 47.0252 42.4231H56.6102C56.5161 43.5761 56.3255 44.7191 56.0402 45.8401C54.603 45.5447 53.1393 45.398 51.6722 45.4021H51.6692ZM41.5202 42.4231H45.6302C45.601 43.6792 45.6853 44.9353 45.8822 46.1761C44.8591 46.4639 43.8718 46.8665 42.9392 47.3761C42.0341 45.8809 41.5452 44.1708 41.5232 42.4231H41.5202ZM43.5002 36.0751C44.39 36.5884 45.339 36.9913 46.3262 37.2751C46.0099 38.5066 45.8021 39.7634 45.7052 41.0311H41.5952C41.8054 39.2457 42.4604 37.5417 43.5002 36.0751ZM52.3652 31.4041C54.0422 31.4041 55.4522 33.3631 56.1722 36.2521C54.8326 36.5188 53.47 36.6524 52.1042 36.6511C50.7522 36.6535 49.4034 36.5198 48.0782 36.2521C49.0802 33.3631 50.7002 31.4041 52.3622 31.4041H52.3652ZM52.0382 38.0461C53.5192 38.0489 54.9967 37.9022 56.4482 37.6081C56.6249 38.7392 56.7032 39.8835 56.6822 41.0281H47.1002C47.1925 39.874 47.3832 38.7298 47.6702 37.6081C49.1063 37.9037 50.569 38.0504 52.0352 38.0461H52.0382ZM62.1872 41.0281H58.0772C58.105 39.7711 58.0206 38.5142 57.8252 37.2721C58.8479 36.9833 59.8351 36.5808 60.7682 36.0721C61.6724 37.5689 62.1612 39.2796 62.1842 41.0281H62.1872ZM58.0082 42.4231H62.1182C61.9051 44.2065 61.2492 45.9082 60.2102 47.3731C59.32 46.8606 58.3711 46.4577 57.3842 46.1731C57.7016 44.9439 57.9094 43.689 58.0052 42.4231H58.0082ZM59.9732 34.9561C59.1989 35.3571 58.3857 35.6777 57.5462 35.9131C57.2362 34.516 56.6597 33.1919 55.8482 32.0131C57.4589 32.6112 58.8815 33.627 59.9702 34.9561H59.9732ZM48.8192 32.0191C47.9007 33.1863 47.1959 34.5066 46.7372 35.9191C45.9282 35.6845 45.1467 35.3636 44.4062 34.9621C45.6169 33.6393 47.13 32.6295 48.8162 32.0191H48.8192ZM43.7402 48.4951C44.5141 48.095 45.3261 47.7734 46.1642 47.5351C46.4748 48.932 47.0513 50.2561 47.8622 51.4351C46.2508 50.8382 44.8272 49.8236 43.7372 48.4951H43.7402ZM54.9002 51.4291C55.8206 50.2633 56.5256 48.9426 56.9822 47.5291C57.7915 47.7643 58.573 48.0861 59.3132 48.4891C58.102 49.8121 56.5876 50.821 54.9002 51.4291Z" fill="#F39712"/>
<path opacity="0.6" d="M37.041 24.3901L32.709 56.9701H38.475L42.807 24.3901H37.041Z" fill="white"/>
<path opacity="0.6" d="M44.7751 24.3901L40.4431 56.9701H42.8071L47.1421 24.3901H44.7751Z" fill="white"/>
<path opacity="0.3" d="M52.0891 23.4451C52.087 23.4931 52.0948 23.541 52.1118 23.5859C52.1289 23.6308 52.1549 23.6717 52.1883 23.7062C52.2217 23.7407 52.2618 23.7681 52.3061 23.7866C52.3504 23.8052 52.398 23.8145 52.4461 23.8141C52.5448 23.8134 52.6395 23.7746 52.7105 23.7059C52.7815 23.6372 52.8232 23.5438 52.8271 23.4451C52.8291 23.3971 52.8213 23.3492 52.8043 23.3043C52.7872 23.2594 52.7612 23.2184 52.7278 23.1839C52.6944 23.1494 52.6543 23.122 52.61 23.1035C52.5657 23.0849 52.5181 23.0756 52.4701 23.0761C52.3713 23.0768 52.2766 23.1155 52.2056 23.1842C52.1347 23.2529 52.0929 23.3464 52.0891 23.4451Z" fill="white"/>
<path d="M83.4331 92.1361H33.6001C32.9164 92.1035 32.261 91.853 31.7298 91.4211C31.1987 90.9893 30.8196 90.3988 30.6481 89.7361L24.2701 61.8661C23.9701 60.5461 24.8011 59.4661 26.1211 59.4661H75.9511C76.6348 59.4992 77.2899 59.7499 77.821 60.1817C78.3521 60.6134 78.7312 61.2036 78.9031 61.8661L85.2811 89.7361C85.5871 91.0561 84.7531 92.1361 83.4331 92.1361Z" fill="#F39712"/>
<path opacity="0.4" d="M83.4331 92.1361H33.6001C32.9164 92.1035 32.261 91.853 31.7298 91.4211C31.1987 90.9893 30.8196 90.3988 30.6481 89.7361L24.2701 61.8661C23.9701 60.5461 24.8011 59.4661 26.1211 59.4661H75.9511C76.6348 59.4992 77.2899 59.7499 77.821 60.1817C78.3521 60.6134 78.7312 61.2036 78.9031 61.8661L85.2811 89.7361C85.5871 91.0561 84.7531 92.1361 83.4331 92.1361Z" fill="#130C01"/>
<path d="M83.9101 92.1361H34.0801C33.3962 92.1039 32.7406 91.8536 32.2093 91.4217C31.6781 90.9897 31.2992 90.399 31.1281 89.7361L24.7501 61.8631C24.4501 60.5431 25.2811 59.4631 26.6011 59.4631H76.4311C77.1148 59.4961 77.7699 59.7469 78.301 60.1786C78.8321 60.6104 79.2112 61.2006 79.3831 61.8631L85.7611 89.7331C86.0641 91.0561 85.2301 92.1361 83.9101 92.1361Z" fill="#F39712"/>
<path opacity="0.2" d="M31.4431 78.2251C31.1732 78.2124 30.9145 78.1134 30.705 77.9428C30.4955 77.7722 30.3462 77.5388 30.2791 77.2771L26.8771 62.4001C26.8449 62.2894 26.8394 62.1727 26.8608 62.0594C26.8823 61.9461 26.9303 61.8396 27.0007 61.7483C27.0712 61.6571 27.1622 61.5838 27.2664 61.5344C27.3705 61.485 27.4849 61.4609 27.6001 61.4641H76.3411C76.6111 61.4763 76.8701 61.5751 77.0797 61.7458C77.2893 61.9165 77.4384 62.1501 77.5051 62.4121L80.9101 77.2771C80.9442 77.3892 80.9509 77.5079 80.9298 77.6232C80.9086 77.7385 80.8602 77.8471 80.7886 77.9398C80.7169 78.0326 80.6241 78.1069 80.5179 78.1565C80.4118 78.2062 80.2952 78.2297 80.1781 78.2251H31.4431Z" fill="#130C01"/>
<path opacity="0.2" d="M51.5252 89.919C51.3678 89.9114 51.2168 89.8537 51.0943 89.7545C50.9719 89.6552 50.8843 89.5195 50.8442 89.367L48.8612 80.7C48.8416 80.6347 48.8379 80.5657 48.8503 80.4987C48.8627 80.4317 48.8909 80.3686 48.9325 80.3146C48.9742 80.2607 49.028 80.2174 49.0897 80.1884C49.1514 80.1594 49.2191 80.1456 49.2872 80.148H63.2132C63.3719 80.1538 63.5244 80.2107 63.6482 80.3102C63.7719 80.4096 63.8603 80.5463 63.9002 80.7L65.8862 89.367C65.9058 89.4323 65.9096 89.5013 65.8972 89.5683C65.8848 89.6353 65.8566 89.6984 65.8149 89.7523C65.7733 89.8063 65.7194 89.8495 65.6577 89.8785C65.596 89.9075 65.5283 89.9214 65.4602 89.919H51.5252Z" fill="#130C01"/>
<path d="M85.2689 70.4698L86.7689 30.9388C86.7794 30.6915 86.7399 30.4445 86.6528 30.2128C86.5656 29.981 86.4327 29.7692 86.2619 29.59C86.0911 29.4107 85.8859 29.2678 85.6585 29.1697C85.4312 29.0715 85.1865 29.0202 84.9389 29.0188L59.7389 28.8058C59.2292 28.8061 58.7391 29.0025 58.3705 29.3544C58.0018 29.7064 57.7828 30.1867 57.7589 30.6958L56.2589 70.2238C56.248 70.4715 56.2871 70.7187 56.3741 70.9509C56.461 71.183 56.5939 71.3952 56.7647 71.5747C56.9356 71.7543 57.1409 71.8975 57.3685 71.9958C57.596 72.0941 57.841 72.1455 58.0889 72.1468L83.2889 72.3599C83.7983 72.3589 84.2879 72.1622 84.6565 71.8104C85.025 71.4587 85.2442 70.9787 85.2689 70.4698Z" fill="#F39712"/>
<path opacity="0.4" d="M85.2689 70.4698L86.7689 30.9388C86.7794 30.6915 86.7399 30.4445 86.6528 30.2128C86.5656 29.981 86.4327 29.7692 86.2619 29.59C86.0911 29.4107 85.8859 29.2678 85.6585 29.1697C85.4312 29.0715 85.1865 29.0202 84.9389 29.0188L59.7389 28.8058C59.2292 28.8061 58.7391 29.0025 58.3705 29.3544C58.0018 29.7064 57.7828 30.1867 57.7589 30.6958L56.2589 70.2238C56.248 70.4715 56.2871 70.7187 56.3741 70.9509C56.461 71.183 56.5939 71.3952 56.7647 71.5747C56.9356 71.7543 57.1409 71.8975 57.3685 71.9958C57.596 72.0941 57.841 72.1455 58.0889 72.1468L83.2889 72.3599C83.7983 72.3589 84.2879 72.1622 84.6565 71.8104C85.025 71.4587 85.2442 70.9787 85.2689 70.4698Z" fill="#130C01"/>
<path d="M85.824 70.4699L87.339 30.9389C87.3491 30.6914 87.3092 30.4444 87.2218 30.2126C87.1343 29.9808 87.0011 29.7691 86.83 29.5899C86.659 29.4107 86.4536 29.2678 86.2261 29.1697C85.9986 29.0716 85.7537 29.0203 85.506 29.0189L60.3 28.7999C59.7903 28.8001 59.3003 28.9966 58.9316 29.3485C58.5629 29.7004 58.3439 30.1808 58.32 30.6899L56.82 70.2179C56.8091 70.4655 56.8483 70.7128 56.9352 70.9449C57.0221 71.177 57.155 71.3892 57.3259 71.5688C57.4967 71.7483 57.7021 71.8915 57.9296 71.9899C58.1571 72.0882 58.4022 72.1395 58.65 72.1409L83.85 72.3539C84.3577 72.3523 84.8454 72.1559 85.2126 71.8054C85.5798 71.4549 85.7987 70.9769 85.824 70.4699Z" fill="#F39712"/>
<path opacity="0.9" d="M85.734 31.3588C85.7381 31.2612 85.7224 31.1638 85.6879 31.0725C85.6534 30.9811 85.6008 30.8976 85.5333 30.827C85.4658 30.7564 85.3848 30.7002 85.295 30.6617C85.2053 30.6232 85.1087 30.6031 85.011 30.6028L60.678 30.3958C60.477 30.3964 60.2838 30.4742 60.1386 30.6133C59.9934 30.7524 59.9073 30.942 59.898 31.1428L58.416 69.8038C58.412 69.9015 58.4277 69.9991 58.4621 70.0906C58.4966 70.1822 58.5491 70.2658 58.6166 70.3366C58.684 70.4075 58.765 70.464 58.8548 70.5028C58.9446 70.5417 59.0412 70.5621 59.139 70.5628L83.472 70.7668C83.6728 70.767 83.8659 70.6898 84.0112 70.5512C84.1565 70.4126 84.2428 70.2234 84.252 70.0228L85.734 31.3588Z" fill="white"/>
<path opacity="0.3" d="M81.123 57.3749C82.5849 55.5309 83.4373 53.2779 83.562 50.9279C83.687 48.6404 83.0544 46.3755 81.762 44.4839V44.4539C81.7412 44.4198 81.716 44.3886 81.687 44.3609C80.7288 43.0165 79.4607 41.9228 77.9902 41.1724C76.5196 40.422 74.8899 40.037 73.239 40.0499C71.5276 40.0635 69.8407 40.4592 68.3018 41.2081C66.7628 41.9571 65.4107 43.0404 64.344 44.3789C64.3214 44.4025 64.3004 44.4276 64.281 44.4539L64.266 44.4809C62.7909 46.3197 61.9286 48.5741 61.8 50.9279C61.6715 53.2177 62.3044 55.4856 63.6 57.3779C63.6012 57.3869 63.6012 57.396 63.6 57.4049L63.627 57.4349C64.5864 58.7992 65.8634 59.9095 67.3478 60.67C68.8322 61.4304 70.4793 61.8182 72.147 61.7999C73.8557 61.7871 75.5399 61.3929 77.0767 60.646C78.6136 59.8991 79.9642 58.8185 81.03 57.4829C81.0566 57.4564 81.0816 57.4283 81.105 57.3989L81.123 57.3749ZM72.21 60.5129C70.656 60.5129 69.345 58.6919 68.676 56.0129C69.9187 55.7647 71.1828 55.6401 72.45 55.6409C73.7093 55.6374 74.9656 55.761 76.2 56.0099C75.258 58.6919 73.767 60.5129 72.21 60.5129ZM72.51 54.3449C71.1349 54.3418 69.7629 54.4774 68.415 54.7499C68.2496 53.7004 68.1763 52.6383 68.196 51.5759H77.1C77.0127 52.647 76.8351 53.7088 76.569 54.7499C75.2355 54.4762 73.8774 54.3405 72.516 54.3449H72.51ZM63.087 51.5759H66.9C66.8711 52.7427 66.9495 53.9096 67.134 55.0619C66.1842 55.3281 65.2675 55.7005 64.401 56.1719C63.5646 54.7833 63.1131 53.1969 63.093 51.5759H63.087ZM64.92 45.6839C65.7465 46.1595 66.6281 46.5323 67.545 46.7939C67.2495 47.9376 67.0557 49.1051 66.966 50.2829H63.156C63.3512 48.6258 63.9599 47.0444 64.926 45.6839H64.92ZM73.149 41.3459C74.706 41.3459 76.017 43.1639 76.686 45.8459C75.4426 46.0956 74.1773 46.2202 72.909 46.2179C71.6536 46.2216 70.4011 46.0969 69.171 45.8459C70.11 43.1639 71.598 41.3459 73.155 41.3459H73.149ZM72.849 47.5139C74.2256 47.5156 75.5987 47.3769 76.947 47.0999C77.1113 48.1506 77.1836 49.2137 77.163 50.2769H68.268C68.3532 49.2048 68.5298 48.142 68.796 47.0999C70.13 47.3781 71.4893 47.5168 72.852 47.5139H72.849ZM82.272 50.2829H78.459C78.4849 49.1153 78.4066 47.9477 78.225 46.7939C79.1753 46.5291 80.0922 46.1567 80.958 45.6839C81.7976 47.0728 82.2522 48.6602 82.275 50.2829H82.272ZM78.393 51.5759H82.2C82.0021 53.2315 81.3937 54.8113 80.43 56.1719C79.6026 55.6982 78.7213 55.3256 77.805 55.0619C78.1032 53.9194 78.3009 52.7529 78.396 51.5759H78.393ZM80.217 44.6429C79.4985 45.0186 78.7436 45.3201 77.964 45.5429C77.676 44.248 77.1412 43.0207 76.389 41.9279C77.8838 42.478 79.2058 43.4149 80.22 44.6429H80.217ZM69.861 41.9189C69.0072 42.9995 68.353 44.2236 67.929 45.5339C67.1772 45.3142 66.4518 45.0124 65.766 44.6339C66.8926 43.4111 68.2987 42.4795 69.864 41.9189H69.861ZM65.145 57.2189C65.8625 56.8433 66.6164 56.5417 67.395 56.3189C67.6854 57.6137 68.221 58.8408 68.973 59.9339C67.4797 59.3829 66.1597 58.4449 65.148 57.2159L65.145 57.2189ZM75.501 59.9429C76.3531 58.8613 77.0072 57.6374 77.433 56.3279C78.1842 56.5495 78.9094 56.8512 79.596 57.2279C78.4716 58.4497 77.0674 59.3804 75.504 59.9399L75.501 59.9429Z" fill="#F39712"/>
<path opacity="0.6" d="M65.937 30.4409L61.614 70.5839L67.374 70.6319L71.697 30.4889L65.937 30.4409Z" fill="white"/>
<path opacity="0.6" d="M73.662 30.5069L69.339 70.6499L71.703 70.6679L76.026 30.5249L73.662 30.5069Z" fill="white"/>
<path opacity="0.3" d="M72.3359 29.922C72.4155 29.922 72.4918 29.8904 72.5481 29.8341C72.6043 29.7778 72.6359 29.7015 72.6359 29.622C72.6384 29.5834 72.6329 29.5448 72.6199 29.5085C72.6068 29.4722 72.5864 29.4389 72.56 29.4108C72.5335 29.3827 72.5016 29.3603 72.4662 29.345C72.4307 29.3297 72.3925 29.3219 72.3539 29.322C72.2744 29.322 72.1981 29.3536 72.1418 29.4098C72.0855 29.4661 72.0539 29.5424 72.0539 29.622C72.0515 29.6605 72.0569 29.6991 72.07 29.7354C72.0831 29.7717 72.1034 29.805 72.1299 29.8331C72.1563 29.8612 72.1882 29.8836 72.2237 29.8989C72.2591 29.9142 72.2973 29.922 72.3359 29.922Z" fill="white"/>
<path d="M92.865 81.066L94.38 50.04C94.3904 49.7925 94.351 49.5454 94.2639 49.3135C94.1768 49.0816 94.0439 48.8696 93.8731 48.6901C93.7024 48.5106 93.4972 48.3674 93.2699 48.269C93.0425 48.1705 92.7977 48.1188 92.55 48.117L77.979 47.907C77.4698 47.9072 76.9802 48.1033 76.6116 48.4545C76.243 48.8058 76.0236 49.2855 75.999 49.794L74.499 80.823C74.4885 81.0704 74.528 81.3174 74.6151 81.5491C74.7022 81.7809 74.8351 81.9927 75.0059 82.1719C75.1768 82.3512 75.382 82.4941 75.6093 82.5922C75.8366 82.6904 76.0814 82.7417 76.329 82.743L90.9 82.956C91.4071 82.952 91.8933 82.7538 92.2588 82.4023C92.6243 82.0508 92.8412 81.5726 92.865 81.066Z" fill="#F39712"/>
<path opacity="0.4" d="M92.865 81.066L94.38 50.04C94.3904 49.7925 94.351 49.5454 94.2639 49.3135C94.1768 49.0816 94.0439 48.8696 93.8731 48.6901C93.7024 48.5106 93.4972 48.3674 93.2699 48.269C93.0425 48.1705 92.7977 48.1188 92.55 48.117L77.979 47.907C77.4698 47.9072 76.9802 48.1033 76.6116 48.4545C76.243 48.8058 76.0236 49.2855 75.999 49.794L74.499 80.823C74.4885 81.0704 74.528 81.3174 74.6151 81.5491C74.7022 81.7809 74.8351 81.9927 75.0059 82.1719C75.1768 82.3512 75.382 82.4941 75.6093 82.5922C75.8366 82.6904 76.0814 82.7417 76.329 82.743L90.9 82.956C91.4071 82.952 91.8933 82.7538 92.2588 82.4023C92.6243 82.0508 92.8412 81.5726 92.865 81.066Z" fill="#130C01"/>
<path d="M93.4229 81.0661L94.9228 50.0401C94.9338 49.7925 94.8946 49.5452 94.8076 49.3131C94.7207 49.081 94.5878 48.8688 94.417 48.6892C94.2461 48.5097 94.0408 48.3665 93.8132 48.2682C93.5857 48.1699 93.3407 48.1185 93.0928 48.1171L78.5218 47.9071C78.013 47.9073 77.5237 48.1034 77.1556 48.4548C76.7875 48.8062 76.5688 49.2858 76.5448 49.7941L75.0299 80.8231C75.0194 81.0705 75.0589 81.3174 75.146 81.5492C75.2331 81.7809 75.366 81.9928 75.5368 82.172C75.7077 82.3512 75.9129 82.4942 76.1402 82.5923C76.3675 82.6904 76.6123 82.7417 76.8599 82.7431L91.4308 82.9561C91.9424 82.9582 92.435 82.7629 92.8061 82.4108C93.1772 82.0588 93.3981 81.577 93.4229 81.0661Z" fill="#F39712"/>
<path opacity="0.9" d="M93.3329 50.4601C93.3365 50.3625 93.3206 50.2651 93.286 50.1738C93.2514 50.0824 93.1988 49.9989 93.1314 49.9282C93.0641 49.8575 92.9832 49.8009 92.8936 49.7619C92.8041 49.7229 92.7076 49.7023 92.6099 49.7011L78.8999 49.5001C78.6989 49.5007 78.5057 49.5786 78.3605 49.7176C78.2153 49.8567 78.1292 50.0463 78.1199 50.2471L76.6439 80.4001C76.6399 80.4978 76.6556 80.5954 76.69 80.6869C76.7245 80.7785 76.777 80.8621 76.8445 80.9329C76.9119 81.0038 76.993 81.0603 77.0827 81.0991C77.1725 81.138 77.2691 81.1584 77.3669 81.1591L91.0709 81.3631C91.2717 81.3633 91.4648 81.2861 91.6101 81.1475C91.7554 81.009 91.8417 80.8197 91.8509 80.6191L93.3329 50.4601Z" fill="white"/>
<path opacity="0.3" d="M90.168 69.6002C91.0664 68.4688 91.5906 67.0859 91.668 65.6432C91.7438 64.2384 91.3548 62.8477 90.561 61.6862C90.561 61.6862 90.561 61.6862 90.561 61.6682C90.5487 61.648 90.5347 61.6289 90.519 61.6112C89.9297 60.7861 89.1505 60.1149 88.2472 59.6543C87.3439 59.1938 86.3429 58.9574 85.329 58.9652C84.2788 58.9732 83.2436 59.2161 82.2994 59.676C81.3552 60.1359 80.5258 60.8012 79.872 61.6232L79.83 61.6682V61.6862C78.9302 62.8169 78.4058 64.2002 78.33 65.6432C78.2508 67.0493 78.6401 68.442 79.437 69.6032V69.6182C79.437 69.6182 79.437 69.6182 79.452 69.6362C80.04 70.4683 80.821 71.1454 81.7281 71.6093C82.6351 72.0733 83.6412 72.3104 84.66 72.3002C85.7085 72.2922 86.7419 72.0502 87.685 71.5919C88.628 71.1336 89.4569 70.4706 90.111 69.6512C90.1286 69.6347 90.1446 69.6166 90.159 69.5972L90.168 69.6002ZM84.699 71.5262C83.742 71.5262 82.938 70.4102 82.53 68.7632C83.2926 68.6111 84.0684 68.5347 84.846 68.5352C85.6167 68.5339 86.3856 68.6103 87.141 68.7632C86.568 70.3952 85.653 71.5112 84.699 71.5112V71.5262ZM84.885 67.7402C84.0408 67.7385 83.1985 67.8219 82.371 67.9892C82.2707 67.3453 82.2265 66.6938 82.239 66.0422H87.699C87.6472 66.6993 87.5388 67.3507 87.375 67.9892C86.5612 67.8171 85.7319 67.7287 84.9 67.7252L84.885 67.7402ZM79.101 66.0422H81.444C81.4275 66.7581 81.4757 67.474 81.588 68.1812C81.0042 68.3442 80.4406 68.5727 79.908 68.8622C79.3911 68.006 79.1125 67.0273 79.101 66.0272V66.0422ZM80.226 62.4002C80.7338 62.6909 81.2747 62.9195 81.837 63.0812C81.656 63.7834 81.5375 64.5002 81.483 65.2232H79.14C79.2602 64.2062 79.6336 63.2356 80.226 62.4002ZM85.278 59.7362C86.235 59.7362 87.039 60.8522 87.45 62.4992C86.6866 62.6527 85.9097 62.7291 85.131 62.7272C84.3602 62.73 83.5912 62.6536 82.836 62.4992C83.4 60.8612 84.324 59.7452 85.278 59.7452V59.7362ZM85.092 63.5222C85.9363 63.5239 86.7785 63.4405 87.606 63.2732C87.7065 63.9182 87.7506 64.5706 87.738 65.2232H82.278C82.3311 64.5653 82.4395 63.913 82.602 63.2732C83.421 63.4443 84.2554 63.5308 85.092 63.5312V63.5222ZM90.876 65.2232H88.533C88.5495 64.5063 88.5013 63.7894 88.389 63.0812C88.9729 62.9182 89.5364 62.6897 90.069 62.4002C90.5853 63.2556 90.8639 64.2332 90.876 65.2322V65.2232ZM88.5 66.0272H90.843C90.7223 67.0432 90.3489 68.0127 89.757 68.8472C89.2492 68.5566 88.7083 68.3279 88.146 68.1662C88.3268 67.465 88.4452 66.7492 88.5 66.0272ZM89.622 61.7702C89.1807 61.9985 88.7173 62.1815 88.239 62.3162C88.0617 61.5208 87.7326 60.7671 87.27 60.0962C88.1864 60.4368 88.996 61.0144 89.616 61.7702H89.622ZM83.265 60.0962C82.7365 60.7592 82.3302 61.5109 82.065 62.3162C81.6034 62.1833 81.1577 62.0002 80.736 61.7702C81.4289 61.016 82.2948 60.4415 83.259 60.0962H83.265ZM80.37 69.4862C80.8107 69.2586 81.273 69.0757 81.75 68.9402C81.9287 69.7352 82.2576 70.4887 82.719 71.1602C81.7988 70.8222 80.9857 70.2443 80.364 69.4862H80.37ZM86.724 71.1602C87.2525 70.4973 87.6589 69.7455 87.924 68.9402C88.3852 69.0744 88.8307 69.2574 89.253 69.4862C88.5567 70.2421 87.6866 70.8167 86.718 71.1602H86.724Z" fill="#F39712"/>
<path opacity="0.6" d="M81.4378 49.5362L78.0598 81.1682L82.5778 81.2372L85.9858 49.6022L81.4378 49.5362Z" fill="white"/>
<path opacity="0.6" d="M87.5369 49.6262L84.1289 81.2612L85.9949 81.2882L89.4029 49.6532L87.5369 49.6262Z" fill="white"/>
<path opacity="0.3" d="M79.9108 49.0681C79.9904 49.0681 80.0667 49.0365 80.1229 48.9802C80.1792 48.9239 80.2108 48.8476 80.2108 48.7681C80.2109 48.6915 80.1818 48.6178 80.1294 48.5621C80.077 48.5063 80.0052 48.4727 79.9288 48.4681C79.8492 48.4681 79.7729 48.4997 79.7167 48.5559C79.6604 48.6122 79.6288 48.6885 79.6288 48.7681C79.6286 48.8446 79.6578 48.9183 79.7102 48.9741C79.7626 49.0299 79.8344 49.0635 79.9108 49.0681Z" fill="white"/>
</svg>
