<svg width="25" height="25" viewBox="0 0 25 25" fill="none" xmlns="http://www.w3.org/2000/svg">
<path d="M24.6854 0.666504H0.853178C0.849319 0.666504 0.846191 0.669632 0.846191 0.67349V24.5057C0.846191 24.5095 0.849319 24.5127 0.853178 24.5127H24.6854C24.6892 24.5127 24.6923 24.5095 24.6923 24.5057V0.67349C24.6923 0.669632 24.6892 0.666504 24.6854 0.666504Z" fill="black"/>
<path d="M24.6854 0.666504H0.853178C0.849319 0.666504 0.846191 0.669632 0.846191 0.67349V24.5057C0.846191 24.5095 0.849319 24.5127 0.853178 24.5127H24.6854C24.6892 24.5127 24.6923 24.5095 24.6923 24.5057V0.67349C24.6923 0.669632 24.6892 0.666504 24.6854 0.666504Z" fill="url(#paint0_radial_590_472)"/>
<path d="M24.6854 0.666504H0.853178C0.849319 0.666504 0.846191 0.669632 0.846191 0.67349V24.5057C0.846191 24.5095 0.849319 24.5127 0.853178 24.5127H24.6854C24.6892 24.5127 24.6923 24.5095 24.6923 24.5057V0.67349C24.6923 0.669632 24.6892 0.666504 24.6854 0.666504Z" fill="url(#paint1_linear_590_472)"/>
<path d="M16.1691 5.41528H9.36922C7.2857 5.41528 5.59668 7.10431 5.59668 9.18782V15.9877C5.59668 18.0712 7.2857 19.7602 9.36922 19.7602H16.1691C18.2526 19.7602 19.9416 18.0712 19.9416 15.9877V9.18782C19.9416 7.10431 18.2526 5.41528 16.1691 5.41528Z" stroke="white" stroke-width="1.39724"/>
<path d="M12.7691 15.9411C14.6212 15.9411 16.1225 14.4398 16.1225 12.5877C16.1225 10.7357 14.6212 9.23438 12.7691 9.23438C10.9171 9.23438 9.41577 10.7357 9.41577 12.5877C9.41577 14.4398 10.9171 15.9411 12.7691 15.9411Z" stroke="white" stroke-width="1.39724"/>
<path d="M17.0075 8.62725C17.1618 8.62725 17.2869 8.50214 17.2869 8.34781C17.2869 8.19347 17.1618 8.06836 17.0075 8.06836C16.8531 8.06836 16.728 8.19347 16.728 8.34781C16.728 8.50214 16.8531 8.62725 17.0075 8.62725Z" stroke="white" stroke-width="1.39724"/>
<defs>
<radialGradient id="paint0_radial_590_472" cx="0" cy="0" r="1" gradientUnits="userSpaceOnUse" gradientTransform="translate(10.3847 24.5127) scale(23.8462)">
<stop offset="0.1" stop-color="#FFDD55"/>
<stop offset="0.5" stop-color="#FF543E"/>
<stop offset="1" stop-color="#C837AB"/>
</radialGradient>
<linearGradient id="paint1_linear_590_472" x1="0.846191" y1="0.666504" x2="5.61542" y2="24.5127" gradientUnits="userSpaceOnUse">
<stop offset="0.1" stop-color="#3771C8"/>
<stop offset="0.5" stop-color="#6600FF" stop-opacity="0"/>
</linearGradient>
</defs>
</svg>
